<svg width="327" height="38" viewBox="0 0 327 38" fill="none" xmlns="http://www.w3.org/2000/svg">
<rect y="13.75" width="10.5" height="10.5" rx="5.25" fill="#22C851"/>
<path d="M23.54 3.12H24.82L20.74 14H18.692L14.628 3.12H15.94L19.556 12.896H19.924L23.54 3.12ZM28.7931 3.12H30.5051V14H29.3051V4.336H29.1131L26.5371 6.704L25.7371 5.936L28.7931 3.12ZM44.7545 14L43.7945 11.456H37.9705L37.0105 14H35.7465L39.8905 3.12H41.9065L46.0505 14H44.7545ZM40.6905 4.224L38.3865 10.368H43.3785L41.0745 4.224H40.6905ZM52.0787 6.496H53.3267L50.4307 14H48.4947L45.5827 6.496H46.8627L49.2947 12.96H49.6467L52.0787 6.496ZM57.7275 6.432C59.0182 6.432 59.9568 6.72 60.5435 7.296C61.1408 7.86133 61.4395 8.784 61.4395 10.064V14H60.3515V12.912C60.1382 13.264 59.7915 13.5467 59.3115 13.76C58.8422 13.9733 58.2608 14.08 57.5675 14.08H57.4395C56.1808 14.08 55.2635 13.7867 54.6875 13.2C54.1222 12.6027 53.8395 11.6533 53.8395 10.352V10.144C53.8395 8.84267 54.1275 7.89867 54.7035 7.312C55.2902 6.72533 56.2288 6.432 57.5195 6.432H57.7275ZM57.5835 13.024C58.5648 13.024 59.2582 12.8107 59.6635 12.384C60.0795 11.9467 60.2875 11.2 60.2875 10.144C60.2875 9.14133 60.0902 8.448 59.6955 8.064C59.3115 7.68 58.6182 7.488 57.6155 7.488C56.6342 7.488 55.9515 7.69067 55.5675 8.096C55.1942 8.49067 55.0075 9.21067 55.0075 10.256C55.0075 11.3013 55.1942 12.0267 55.5675 12.432C55.9408 12.8267 56.6128 13.024 57.5835 13.024ZM63.1669 3.12H64.3189V4.816H63.1669V3.12ZM63.1669 6.496H64.3189V14H63.1669V6.496ZM66.0969 3.12H67.2489V14H66.0969V3.12ZM72.6269 6.432C73.9175 6.432 74.8562 6.72 75.4429 7.296C76.0402 7.86133 76.3389 8.784 76.3389 10.064V14H75.2509V12.912C75.0375 13.264 74.6909 13.5467 74.2109 13.76C73.7415 13.9733 73.1602 14.08 72.4669 14.08H72.3389C71.0802 14.08 70.1629 13.7867 69.5869 13.2C69.0215 12.6027 68.7389 11.6533 68.7389 10.352V10.144C68.7389 8.84267 69.0269 7.89867 69.6029 7.312C70.1895 6.72533 71.1282 6.432 72.4189 6.432H72.6269ZM72.4829 13.024C73.4642 13.024 74.1575 12.8107 74.5629 12.384C74.9789 11.9467 75.1869 11.2 75.1869 10.144C75.1869 9.14133 74.9895 8.448 74.5949 8.064C74.2109 7.68 73.5175 7.488 72.5149 7.488C71.5335 7.488 70.8509 7.69067 70.4669 8.096C70.0935 8.49067 69.9069 9.21067 69.9069 10.256C69.9069 11.3013 70.0935 12.0267 70.4669 12.432C70.8402 12.8267 71.5122 13.024 72.4829 13.024ZM81.9702 6.416C83.2502 6.416 84.1836 6.71467 84.7702 7.312C85.3569 7.89867 85.6502 8.84267 85.6502 10.144V10.352C85.6502 11.6533 85.3569 12.6027 84.7702 13.2C84.1836 13.7867 83.2502 14.08 81.9702 14.08H81.7462C80.4556 14.08 79.5116 13.7867 78.9142 13.2C78.3276 12.6027 78.0342 11.648 78.0342 10.336V3.12H79.1862V7.344C79.7089 6.72533 80.5889 6.416 81.8262 6.416H81.9702ZM79.7782 12.416C80.1729 12.8213 80.8662 13.024 81.8582 13.024C82.8502 13.024 83.5329 12.8267 83.9062 12.432C84.2902 12.0267 84.4822 11.3013 84.4822 10.256C84.4822 9.21067 84.2902 8.49067 83.9062 8.096C83.5222 7.69067 82.8396 7.488 81.8582 7.488C80.8769 7.488 80.1889 7.696 79.7942 8.112C79.3996 8.51733 79.2022 9.232 79.2022 10.256C79.2022 11.2907 79.3942 12.0107 79.7782 12.416ZM87.1056 3.12H88.2576V14H87.1056V3.12ZM97.1396 10.176V10.704H90.8996C90.9423 11.5787 91.1556 12.1867 91.5396 12.528C91.9343 12.8693 92.6223 13.04 93.6036 13.04C94.425 13.04 95.0116 12.9387 95.3636 12.736C95.7156 12.5333 95.913 12.1813 95.9556 11.68H97.0756C97.033 12.5333 96.7396 13.1467 96.1956 13.52C95.6516 13.8933 94.8196 14.08 93.6996 14.08H93.4756C92.153 14.08 91.1983 13.7867 90.6116 13.2C90.0356 12.6133 89.7476 11.664 89.7476 10.352V10.144C89.7476 8.84267 90.0356 7.89867 90.6116 7.312C91.1983 6.71467 92.1263 6.416 93.3956 6.416H93.6196C94.8463 6.416 95.737 6.71467 96.2916 7.312C96.857 7.90933 97.1396 8.864 97.1396 10.176ZM93.4916 7.456C92.5956 7.456 91.9556 7.62133 91.5716 7.952C91.1876 8.28267 90.9636 8.85867 90.8996 9.68H95.9876C95.945 8.86933 95.7316 8.29867 95.3476 7.968C94.9743 7.62667 94.3556 7.456 93.4916 7.456ZM107.47 11.312C107.492 11.5467 107.502 11.7333 107.502 11.872C107.502 13.3333 106.734 14.064 105.198 14.064H104.99C104.073 14.064 103.422 13.8667 103.038 13.472C102.665 13.0773 102.478 12.4267 102.478 11.52V7.52H100.75V6.496H102.526V4.624H103.63V6.496H107.278V7.52H103.63V11.328C103.63 11.968 103.737 12.4053 103.95 12.64C104.164 12.864 104.548 12.976 105.102 12.976C105.582 12.976 105.913 12.8747 106.094 12.672C106.286 12.4693 106.382 12.16 106.382 11.744C106.382 11.5627 106.372 11.4187 106.35 11.312H107.47ZM112.171 6.416H112.395C113.675 6.416 114.608 6.71467 115.195 7.312C115.792 7.89867 116.091 8.84267 116.091 10.144V10.352C116.091 11.6533 115.792 12.6027 115.195 13.2C114.608 13.7867 113.675 14.08 112.395 14.08H112.171C110.891 14.08 109.952 13.7867 109.355 13.2C108.768 12.6027 108.475 11.6533 108.475 10.352V10.144C108.475 8.84267 108.768 7.89867 109.355 7.312C109.952 6.71467 110.891 6.416 112.171 6.416ZM114.347 8.096C113.963 7.69067 113.275 7.488 112.283 7.488C111.291 7.488 110.603 7.69067 110.219 8.096C109.835 8.49067 109.643 9.21067 109.643 10.256C109.643 11.3013 109.835 12.0267 110.219 12.432C110.603 12.8267 111.291 13.024 112.283 13.024C113.275 13.024 113.963 12.8267 114.347 12.432C114.731 12.0267 114.923 11.3013 114.923 10.256C114.923 9.21067 114.731 8.49067 114.347 8.096ZM126.721 3.12H127.873V10.336C127.873 11.648 127.574 12.6027 126.977 13.2C126.39 13.7867 125.451 14.08 124.161 14.08H123.953C122.662 14.08 121.723 13.7867 121.137 13.2C120.561 12.6027 120.273 11.6533 120.273 10.352V10.144C120.273 8.84267 120.566 7.89867 121.153 7.312C121.739 6.71467 122.673 6.416 123.953 6.416H124.081C125.307 6.416 126.187 6.72 126.721 7.328V3.12ZM124.049 13.024C125.051 13.024 125.745 12.8213 126.129 12.416C126.523 12.0107 126.721 11.2907 126.721 10.256C126.721 9.232 126.518 8.51733 126.113 8.112C125.718 7.696 125.03 7.488 124.049 7.488C123.067 7.488 122.385 7.69067 122.001 8.096C121.627 8.49067 121.441 9.21067 121.441 10.256C121.441 11.3013 121.627 12.0267 122.001 12.432C122.385 12.8267 123.067 13.024 124.049 13.024ZM133.008 6.416H133.232C134.512 6.416 135.445 6.71467 136.032 7.312C136.629 7.89867 136.928 8.84267 136.928 10.144V10.352C136.928 11.6533 136.629 12.6027 136.032 13.2C135.445 13.7867 134.512 14.08 133.232 14.08H133.008C131.728 14.08 130.789 13.7867 130.192 13.2C129.605 12.6027 129.312 11.6533 129.312 10.352V10.144C129.312 8.84267 129.605 7.89867 130.192 7.312C130.789 6.71467 131.728 6.416 133.008 6.416ZM135.184 8.096C134.8 7.69067 134.112 7.488 133.12 7.488C132.128 7.488 131.44 7.69067 131.056 8.096C130.672 8.49067 130.48 9.21067 130.48 10.256C130.48 11.3013 130.672 12.0267 131.056 12.432C131.44 12.8267 132.128 13.024 133.12 13.024C134.112 13.024 134.8 12.8267 135.184 12.432C135.568 12.0267 135.76 11.3013 135.76 10.256C135.76 9.21067 135.568 8.49067 135.184 8.096ZM148.837 6.496H150.005L147.797 14H145.845L143.941 7.584H143.637L141.749 14H139.797L137.573 6.496H138.805L140.661 12.912H140.949L142.837 6.496H144.805L146.693 12.912H146.981L148.837 6.496ZM154.385 6.416H154.593C155.819 6.416 156.705 6.66667 157.249 7.168C157.803 7.66933 158.081 8.48533 158.081 9.616V14H156.929V9.872C156.929 8.98667 156.747 8.368 156.385 8.016C156.022 7.664 155.387 7.488 154.481 7.488C153.574 7.488 152.939 7.664 152.577 8.016C152.225 8.368 152.049 8.98667 152.049 9.872V14H150.897V9.616C150.897 8.48533 151.169 7.66933 151.713 7.168C152.257 6.66667 153.147 6.416 154.385 6.416ZM159.812 3.12H160.964V14H159.812V3.12ZM166.15 6.416H166.374C167.654 6.416 168.587 6.71467 169.174 7.312C169.771 7.89867 170.07 8.84267 170.07 10.144V10.352C170.07 11.6533 169.771 12.6027 169.174 13.2C168.587 13.7867 167.654 14.08 166.374 14.08H166.15C164.87 14.08 163.931 13.7867 163.334 13.2C162.747 12.6027 162.454 11.6533 162.454 10.352V10.144C162.454 8.84267 162.747 7.89867 163.334 7.312C163.931 6.71467 164.87 6.416 166.15 6.416ZM168.326 8.096C167.942 7.69067 167.254 7.488 166.262 7.488C165.27 7.488 164.582 7.69067 164.198 8.096C163.814 8.49067 163.622 9.21067 163.622 10.256C163.622 11.3013 163.814 12.0267 164.198 12.432C164.582 12.8267 165.27 13.024 166.262 13.024C167.254 13.024 167.942 12.8267 168.326 12.432C168.71 12.0267 168.902 11.3013 168.902 10.256C168.902 9.21067 168.71 8.49067 168.326 8.096ZM175.147 6.432C176.438 6.432 177.376 6.72 177.963 7.296C178.56 7.86133 178.859 8.784 178.859 10.064V14H177.771V12.912C177.558 13.264 177.211 13.5467 176.731 13.76C176.262 13.9733 175.68 14.08 174.987 14.08H174.859C173.6 14.08 172.683 13.7867 172.107 13.2C171.542 12.6027 171.259 11.6533 171.259 10.352V10.144C171.259 8.84267 171.547 7.89867 172.123 7.312C172.71 6.72533 173.648 6.432 174.939 6.432H175.147ZM175.003 13.024C175.984 13.024 176.678 12.8107 177.083 12.384C177.499 11.9467 177.707 11.2 177.707 10.144C177.707 9.14133 177.51 8.448 177.115 8.064C176.731 7.68 176.038 7.488 175.035 7.488C174.054 7.488 173.371 7.69067 172.987 8.096C172.614 8.49067 172.427 9.21067 172.427 10.256C172.427 11.3013 172.614 12.0267 172.987 12.432C173.36 12.8267 174.032 13.024 175.003 13.024ZM186.746 3.12H187.898V10.336C187.898 11.648 187.6 12.6027 187.002 13.2C186.416 13.7867 185.477 14.08 184.186 14.08H183.978C182.688 14.08 181.749 13.7867 181.162 13.2C180.586 12.6027 180.298 11.6533 180.298 10.352V10.144C180.298 8.84267 180.592 7.89867 181.178 7.312C181.765 6.71467 182.698 6.416 183.978 6.416H184.106C185.333 6.416 186.213 6.72 186.746 7.328V3.12ZM184.074 13.024C185.077 13.024 185.77 12.8213 186.154 12.416C186.549 12.0107 186.746 11.2907 186.746 10.256C186.746 9.232 186.544 8.51733 186.138 8.112C185.744 7.696 185.056 7.488 184.074 7.488C183.093 7.488 182.41 7.69067 182.026 8.096C181.653 8.49067 181.466 9.21067 181.466 10.256C181.466 11.3013 181.653 12.0267 182.026 12.432C182.41 12.8267 183.093 13.024 184.074 13.024ZM196.138 4.144C195.541 4.144 195.135 4.26133 194.922 4.496C194.709 4.73067 194.602 5.184 194.602 5.856V6.496H197.29V7.52H194.602V14H193.45V7.52H191.77V6.496H193.45V5.632C193.45 4.704 193.631 4.05333 193.994 3.68C194.367 3.30667 195.007 3.12 195.914 3.12H197.37V4.144H196.138ZM201.55 6.416H201.774C203.054 6.416 203.987 6.71467 204.574 7.312C205.171 7.89867 205.47 8.84267 205.47 10.144V10.352C205.47 11.6533 205.171 12.6027 204.574 13.2C203.987 13.7867 203.054 14.08 201.774 14.08H201.55C200.27 14.08 199.331 13.7867 198.734 13.2C198.147 12.6027 197.854 11.6533 197.854 10.352V10.144C197.854 8.84267 198.147 7.89867 198.734 7.312C199.331 6.71467 200.27 6.416 201.55 6.416ZM203.726 8.096C203.342 7.69067 202.654 7.488 201.662 7.488C200.67 7.488 199.982 7.69067 199.598 8.096C199.214 8.49067 199.022 9.21067 199.022 10.256C199.022 11.3013 199.214 12.0267 199.598 12.432C199.982 12.8267 200.67 13.024 201.662 13.024C202.654 13.024 203.342 12.8267 203.726 12.432C204.11 12.0267 204.302 11.3013 204.302 10.256C204.302 9.21067 204.11 8.49067 203.726 8.096ZM210.083 6.416H210.275C211.342 6.416 212.083 6.624 212.499 7.04C212.926 7.44533 213.155 8.128 213.187 9.088H212.051C212.03 8.46933 211.891 8.048 211.635 7.824C211.379 7.6 210.899 7.488 210.195 7.488C209.352 7.488 208.787 7.65333 208.499 7.984C208.211 8.304 208.067 8.93333 208.067 9.872V14H206.915V9.648C206.915 8.464 207.15 7.632 207.619 7.152C208.099 6.66133 208.92 6.416 210.083 6.416ZM231.456 3.12H232.688L229.616 14H227.504L224.672 4.224H224.336L221.504 14H219.376L216.32 3.12H217.584L220.32 12.896H220.608L223.408 3.12H225.632L228.448 12.896H228.72L231.456 3.12ZM233.674 3.12H234.826V4.816H233.674V3.12ZM233.674 6.496H234.826V14H233.674V6.496ZM240.06 6.416H240.268C241.495 6.416 242.38 6.66667 242.924 7.168C243.479 7.66933 243.756 8.48533 243.756 9.616V14H242.604V9.872C242.604 8.98667 242.423 8.368 242.06 8.016C241.698 7.664 241.063 7.488 240.156 7.488C239.25 7.488 238.615 7.664 238.252 8.016C237.9 8.368 237.724 8.98667 237.724 9.872V14H236.572V9.616C236.572 8.48533 236.844 7.66933 237.388 7.168C237.932 6.66667 238.823 6.416 240.06 6.416ZM251.647 3.12H252.799V10.336C252.799 11.648 252.501 12.6027 251.903 13.2C251.317 13.7867 250.378 14.08 249.087 14.08H248.879C247.589 14.08 246.65 13.7867 246.063 13.2C245.487 12.6027 245.199 11.6533 245.199 10.352V10.144C245.199 8.84267 245.493 7.89867 246.079 7.312C246.666 6.71467 247.599 6.416 248.879 6.416H249.007C250.234 6.416 251.114 6.72 251.647 7.328V3.12ZM248.975 13.024C249.978 13.024 250.671 12.8213 251.055 12.416C251.45 12.0107 251.647 11.2907 251.647 10.256C251.647 9.232 251.445 8.51733 251.039 8.112C250.645 7.696 249.957 7.488 248.975 7.488C247.994 7.488 247.311 7.69067 246.927 8.096C246.554 8.49067 246.367 9.21067 246.367 10.256C246.367 11.3013 246.554 12.0267 246.927 12.432C247.311 12.8267 247.994 13.024 248.975 13.024ZM257.935 6.416H258.159C259.439 6.416 260.372 6.71467 260.959 7.312C261.556 7.89867 261.855 8.84267 261.855 10.144V10.352C261.855 11.6533 261.556 12.6027 260.959 13.2C260.372 13.7867 259.439 14.08 258.159 14.08H257.935C256.655 14.08 255.716 13.7867 255.119 13.2C254.532 12.6027 254.239 11.6533 254.239 10.352V10.144C254.239 8.84267 254.532 7.89867 255.119 7.312C255.716 6.71467 256.655 6.416 257.935 6.416ZM260.111 8.096C259.727 7.69067 259.039 7.488 258.047 7.488C257.055 7.488 256.367 7.69067 255.983 8.096C255.599 8.49067 255.407 9.21067 255.407 10.256C255.407 11.3013 255.599 12.0267 255.983 12.432C256.367 12.8267 257.055 13.024 258.047 13.024C259.039 13.024 259.727 12.8267 260.111 12.432C260.495 12.0267 260.687 11.3013 260.687 10.256C260.687 9.21067 260.495 8.49067 260.111 8.096ZM273.764 6.496H274.932L272.724 14H270.772L268.868 7.584H268.564L266.676 14H264.724L262.5 6.496H263.732L265.588 12.912H265.876L267.764 6.496H269.732L271.62 12.912H271.908L273.764 6.496ZM279.072 6.416H279.264C280.138 6.416 280.81 6.50667 281.28 6.688C281.76 6.86933 282.08 7.12 282.24 7.44C282.41 7.76 282.517 8.208 282.56 8.784H281.424C281.392 8.41067 281.317 8.13333 281.2 7.952C281.082 7.77067 280.869 7.64267 280.56 7.568C280.25 7.48267 279.786 7.44 279.168 7.44C278.24 7.44 277.616 7.51467 277.296 7.664C276.986 7.80267 276.832 8.08533 276.832 8.512C276.832 9.00267 276.986 9.32267 277.296 9.472C277.616 9.62133 278.32 9.696 279.408 9.696C280.73 9.696 281.61 9.83467 282.048 10.112C282.496 10.3893 282.72 10.96 282.72 11.824V12.048C282.72 12.8053 282.458 13.3333 281.936 13.632C281.424 13.9307 280.522 14.08 279.232 14.08H279.04C277.728 14.08 276.842 13.904 276.384 13.552C275.925 13.1893 275.674 12.5653 275.632 11.68H276.752C276.794 12.2347 276.965 12.6027 277.264 12.784C277.562 12.9653 278.176 13.056 279.104 13.056C280.074 13.056 280.725 12.9813 281.056 12.832C281.397 12.672 281.568 12.3733 281.568 11.936C281.568 11.584 281.504 11.328 281.376 11.168C281.258 11.008 281.024 10.896 280.672 10.832C280.32 10.7573 279.76 10.72 278.992 10.72C277.69 10.72 276.81 10.5813 276.352 10.304C275.904 10.0267 275.68 9.472 275.68 8.64V8.448C275.68 7.70133 275.93 7.17867 276.432 6.88C276.944 6.57067 277.824 6.416 279.072 6.416ZM284.062 12.32H285.566V14.16C285.566 14.7147 285.464 15.1093 285.262 15.344C285.059 15.5893 284.723 15.712 284.254 15.712H283.998V15.088H284.158C284.414 15.088 284.59 15.024 284.686 14.896C284.782 14.7787 284.83 14.5707 284.83 14.272V14H284.062V12.32ZM291.24 12.896H297.32V14H290.024V3.12H291.24V12.896ZM298.404 3.12H299.556V4.816H298.404V3.12ZM298.404 6.496H299.556V14H298.404V6.496ZM304.79 6.416H304.998C306.224 6.416 307.11 6.66667 307.654 7.168C308.208 7.66933 308.486 8.48533 308.486 9.616V14H307.334V9.872C307.334 8.98667 307.152 8.368 306.79 8.016C306.427 7.664 305.792 7.488 304.886 7.488C303.979 7.488 303.344 7.664 302.982 8.016C302.63 8.368 302.454 8.98667 302.454 9.872V14H301.302V9.616C301.302 8.48533 301.574 7.66933 302.118 7.168C302.662 6.66667 303.552 6.416 304.79 6.416ZM310.185 6.496H311.337V10.64C311.337 11.5253 311.513 12.144 311.865 12.496C312.217 12.848 312.841 13.024 313.737 13.024C314.612 13.024 315.23 12.848 315.593 12.496C315.956 12.1333 316.137 11.5147 316.137 10.64V6.496H317.289V10.896C317.289 12.016 317.012 12.832 316.457 13.344C315.913 13.8453 315.038 14.096 313.833 14.096H313.625C312.409 14.096 311.529 13.8453 310.985 13.344C310.452 12.832 310.185 12.016 310.185 10.896V6.496ZM325.934 14H324.51L322.014 10.96L319.518 14H318.078L321.294 10.224L318.19 6.496H319.614L322.03 9.408L324.398 6.496H325.822L322.734 10.144L325.934 14ZM15.636 22.12H16.852V29.064C16.852 30.1947 17.076 30.9627 17.524 31.368C17.9827 31.7733 18.8467 31.976 20.116 31.976C21.3853 31.976 22.244 31.7733 22.692 31.368C23.1507 30.9627 23.38 30.1947 23.38 29.064V22.12H24.596V29.256C24.596 30.6427 24.2653 31.6293 23.604 32.216C22.9533 32.792 21.8333 33.08 20.244 33.08H19.988C18.3987 33.08 17.2733 32.792 16.612 32.216C15.9613 31.6293 15.636 30.6427 15.636 29.256V22.12ZM29.686 25.416H29.878C30.7527 25.416 31.4247 25.5067 31.894 25.688C32.374 25.8693 32.694 26.12 32.854 26.44C33.0247 26.76 33.1313 27.208 33.174 27.784H32.038C32.006 27.4107 31.9313 27.1333 31.814 26.952C31.6967 26.7707 31.4833 26.6427 31.174 26.568C30.8647 26.4827 30.4007 26.44 29.782 26.44C28.854 26.44 28.23 26.5147 27.91 26.664C27.6007 26.8027 27.446 27.0853 27.446 27.512C27.446 28.0027 27.6007 28.3227 27.91 28.472C28.23 28.6213 28.934 28.696 30.022 28.696C31.3447 28.696 32.2247 28.8347 32.662 29.112C33.11 29.3893 33.334 29.96 33.334 30.824V31.048C33.334 31.8053 33.0727 32.3333 32.55 32.632C32.038 32.9307 31.1367 33.08 29.846 33.08H29.654C28.342 33.08 27.4567 32.904 26.998 32.552C26.5393 32.1893 26.2887 31.5653 26.246 30.68H27.366C27.4087 31.2347 27.5793 31.6027 27.878 31.784C28.1767 31.9653 28.79 32.056 29.718 32.056C30.6887 32.056 31.3393 31.9813 31.67 31.832C32.0113 31.672 32.182 31.3733 32.182 30.936C32.182 30.584 32.118 30.328 31.99 30.168C31.8727 30.008 31.638 29.896 31.286 29.832C30.934 29.7573 30.374 29.72 29.606 29.72C28.3047 29.72 27.4247 29.5813 26.966 29.304C26.518 29.0267 26.294 28.472 26.294 27.64V27.448C26.294 26.7013 26.5447 26.1787 27.046 25.88C27.558 25.5707 28.438 25.416 29.686 25.416ZM41.9884 29.176V29.704H35.7484C35.791 30.5787 36.0044 31.1867 36.3884 31.528C36.783 31.8693 37.471 32.04 38.4524 32.04C39.2737 32.04 39.8604 31.9387 40.2124 31.736C40.5644 31.5333 40.7617 31.1813 40.8044 30.68H41.9244C41.8817 31.5333 41.5884 32.1467 41.0444 32.52C40.5004 32.8933 39.6684 33.08 38.5484 33.08H38.3244C37.0017 33.08 36.047 32.7867 35.4604 32.2C34.8844 31.6133 34.5964 30.664 34.5964 29.352V29.144C34.5964 27.8427 34.8844 26.8987 35.4604 26.312C36.047 25.7147 36.975 25.416 38.2444 25.416H38.4684C39.695 25.416 40.5857 25.7147 41.1404 26.312C41.7057 26.9093 41.9884 27.864 41.9884 29.176ZM38.3404 26.456C37.4444 26.456 36.8044 26.6213 36.4204 26.952C36.0364 27.2827 35.8124 27.8587 35.7484 28.68H40.8364C40.7937 27.8693 40.5804 27.2987 40.1964 26.968C39.823 26.6267 39.2044 26.456 38.3404 26.456ZM46.5911 22.12H51.1031C52.9058 22.12 54.1751 22.52 54.9111 23.32C55.6578 24.12 56.0311 25.48 56.0311 27.4V27.72C56.0311 29.64 55.6578 31 54.9111 31.8C54.1751 32.6 52.9058 33 51.1031 33H46.5911V22.12ZM47.8071 23.224V31.896H50.9751C52.4365 31.896 53.4338 31.5867 53.9671 30.968C54.5111 30.3493 54.7831 29.2133 54.7831 27.56C54.7831 25.9067 54.5111 24.7707 53.9671 24.152C53.4338 23.5333 52.4365 23.224 50.9751 23.224H47.8071ZM64.7159 29.176V29.704H58.4759C58.5185 30.5787 58.7319 31.1867 59.1159 31.528C59.5105 31.8693 60.1985 32.04 61.1799 32.04C62.0012 32.04 62.5879 31.9387 62.9399 31.736C63.2919 31.5333 63.4892 31.1813 63.5319 30.68H64.6519C64.6092 31.5333 64.3159 32.1467 63.7719 32.52C63.2279 32.8933 62.3959 33.08 61.2759 33.08H61.0519C59.7292 33.08 58.7745 32.7867 58.1879 32.2C57.6119 31.6133 57.3239 30.664 57.3239 29.352V29.144C57.3239 27.8427 57.6119 26.8987 58.1879 26.312C58.7745 25.7147 59.7025 25.416 60.9719 25.416H61.1959C62.4225 25.416 63.3132 25.7147 63.8679 26.312C64.4332 26.9093 64.7159 27.864 64.7159 29.176ZM61.0679 26.456C60.1719 26.456 59.5319 26.6213 59.1479 26.952C58.7639 27.2827 58.5399 27.8587 58.4759 28.68H63.5639C63.5212 27.8693 63.3079 27.2987 62.9239 26.968C62.5505 26.6267 61.9319 26.456 61.0679 26.456ZM69.4141 25.416H69.6061C70.4808 25.416 71.1528 25.5067 71.6221 25.688C72.1021 25.8693 72.4221 26.12 72.5821 26.44C72.7528 26.76 72.8595 27.208 72.9021 27.784H71.7661C71.7341 27.4107 71.6595 27.1333 71.5421 26.952C71.4248 26.7707 71.2115 26.6427 70.9021 26.568C70.5928 26.4827 70.1288 26.44 69.5101 26.44C68.5821 26.44 67.9581 26.5147 67.6381 26.664C67.3288 26.8027 67.1741 27.0853 67.1741 27.512C67.1741 28.0027 67.3288 28.3227 67.6381 28.472C67.9581 28.6213 68.6621 28.696 69.7501 28.696C71.0728 28.696 71.9528 28.8347 72.3901 29.112C72.8381 29.3893 73.0621 29.96 73.0621 30.824V31.048C73.0621 31.8053 72.8008 32.3333 72.2781 32.632C71.7661 32.9307 70.8648 33.08 69.5741 33.08H69.3821C68.0701 33.08 67.1848 32.904 66.7261 32.552C66.2675 32.1893 66.0168 31.5653 65.9741 30.68H67.0941C67.1368 31.2347 67.3075 31.6027 67.6061 31.784C67.9048 31.9653 68.5181 32.056 69.4461 32.056C70.4168 32.056 71.0675 31.9813 71.3981 31.832C71.7395 31.672 71.9101 31.3733 71.9101 30.936C71.9101 30.584 71.8461 30.328 71.7181 30.168C71.6008 30.008 71.3661 29.896 71.0141 29.832C70.6621 29.7573 70.1021 29.72 69.3341 29.72C68.0328 29.72 67.1528 29.5813 66.6941 29.304C66.2461 29.0267 66.0221 28.472 66.0221 27.64V27.448C66.0221 26.7013 66.2728 26.1787 66.7741 25.88C67.2861 25.5707 68.1661 25.416 69.4141 25.416ZM81.5721 33H80.0201L76.7081 29.672H75.7801V33H74.6281V22.12H75.7801V28.6H76.7241L79.8761 25.496H81.4121L77.6841 29.144L81.5721 33ZM88.3204 30.312C88.3417 30.5467 88.3524 30.7333 88.3524 30.872C88.3524 32.3333 87.5844 33.064 86.0484 33.064H85.8404C84.923 33.064 84.2724 32.8667 83.8884 32.472C83.515 32.0773 83.3284 31.4267 83.3284 30.52V26.52H81.6004V25.496H83.3764V23.624H84.4804V25.496H88.1284V26.52H84.4804V30.328C84.4804 30.968 84.587 31.4053 84.8004 31.64C85.0137 31.864 85.3977 31.976 85.9524 31.976C86.4324 31.976 86.763 31.8747 86.9444 31.672C87.1364 31.4693 87.2324 31.16 87.2324 30.744C87.2324 30.5627 87.2217 30.4187 87.2004 30.312H88.3204ZM93.0211 25.416H93.2451C94.5251 25.416 95.4585 25.7147 96.0451 26.312C96.6425 26.8987 96.9411 27.8427 96.9411 29.144V29.352C96.9411 30.6533 96.6425 31.6027 96.0451 32.2C95.4585 32.7867 94.5251 33.08 93.2451 33.08H93.0211C91.7411 33.08 90.8025 32.7867 90.2051 32.2C89.6185 31.6027 89.3251 30.6533 89.3251 29.352V29.144C89.3251 27.8427 89.6185 26.8987 90.2051 26.312C90.8025 25.7147 91.7411 25.416 93.0211 25.416ZM95.1971 27.096C94.8131 26.6907 94.1251 26.488 93.1331 26.488C92.1411 26.488 91.4531 26.6907 91.0691 27.096C90.6851 27.4907 90.4931 28.2107 90.4931 29.256C90.4931 30.3013 90.6851 31.0267 91.0691 31.432C91.4531 31.8267 92.1411 32.024 93.1331 32.024C94.1251 32.024 94.8131 31.8267 95.1971 31.432C95.5811 31.0267 95.7731 30.3013 95.7731 29.256C95.7731 28.2107 95.5811 27.4907 95.1971 27.096ZM102.306 25.416C103.586 25.416 104.519 25.7147 105.106 26.312C105.693 26.8987 105.986 27.8427 105.986 29.144V29.352C105.986 30.6533 105.693 31.6027 105.106 32.2C104.519 32.7867 103.586 33.08 102.306 33.08H102.162C100.946 33.08 100.071 32.776 99.5381 32.168V36.04H98.3861V29.16C98.3861 27.848 98.6795 26.8987 99.2661 26.312C99.8635 25.7147 100.807 25.416 102.098 25.416H102.306ZM100.13 31.416C100.525 31.8213 101.213 32.024 102.194 32.024C103.175 32.024 103.858 31.8213 104.242 31.416C104.626 31.0107 104.818 30.2907 104.818 29.256C104.818 28.2107 104.626 27.4907 104.242 27.096C103.869 26.6907 103.186 26.488 102.194 26.488C101.202 26.488 100.509 26.6907 100.114 27.096C99.7301 27.4907 99.5381 28.2107 99.5381 29.256C99.5381 30.28 99.7355 31 100.13 31.416ZM116.306 30.312C116.327 30.5467 116.338 30.7333 116.338 30.872C116.338 32.3333 115.57 33.064 114.034 33.064H113.826C112.909 33.064 112.258 32.8667 111.874 32.472C111.501 32.0773 111.314 31.4267 111.314 30.52V26.52H109.586V25.496H111.362V23.624H112.466V25.496H116.114V26.52H112.466V30.328C112.466 30.968 112.573 31.4053 112.786 31.64C112.999 31.864 113.383 31.976 113.938 31.976C114.418 31.976 114.749 31.8747 114.93 31.672C115.122 31.4693 115.218 31.16 115.218 30.744C115.218 30.5627 115.207 30.4187 115.186 30.312H116.306ZM121.007 25.416H121.231C122.511 25.416 123.444 25.7147 124.031 26.312C124.628 26.8987 124.927 27.8427 124.927 29.144V29.352C124.927 30.6533 124.628 31.6027 124.031 32.2C123.444 32.7867 122.511 33.08 121.231 33.08H121.007C119.727 33.08 118.788 32.7867 118.191 32.2C117.604 31.6027 117.311 30.6533 117.311 29.352V29.144C117.311 27.8427 117.604 26.8987 118.191 26.312C118.788 25.7147 119.727 25.416 121.007 25.416ZM123.183 27.096C122.799 26.6907 122.111 26.488 121.119 26.488C120.127 26.488 119.439 26.6907 119.055 27.096C118.671 27.4907 118.479 28.2107 118.479 29.256C118.479 30.3013 118.671 31.0267 119.055 31.432C119.439 31.8267 120.127 32.024 121.119 32.024C122.111 32.024 122.799 31.8267 123.183 31.432C123.567 31.0267 123.759 30.3013 123.759 29.256C123.759 28.2107 123.567 27.4907 123.183 27.096ZM129.524 22.12H134.036C135.839 22.12 137.108 22.52 137.844 23.32C138.591 24.12 138.964 25.48 138.964 27.4V27.72C138.964 29.64 138.591 31 137.844 31.8C137.108 32.6 135.839 33 134.036 33H129.524V22.12ZM130.74 23.224V31.896H133.908C135.37 31.896 136.367 31.5867 136.9 30.968C137.444 30.3493 137.716 29.2133 137.716 27.56C137.716 25.9067 137.444 24.7707 136.9 24.152C136.367 23.5333 135.37 23.224 133.908 23.224H130.74ZM143.953 25.416H144.177C145.457 25.416 146.39 25.7147 146.977 26.312C147.574 26.8987 147.873 27.8427 147.873 29.144V29.352C147.873 30.6533 147.574 31.6027 146.977 32.2C146.39 32.7867 145.457 33.08 144.177 33.08H143.953C142.673 33.08 141.734 32.7867 141.137 32.2C140.55 31.6027 140.257 30.6533 140.257 29.352V29.144C140.257 27.8427 140.55 26.8987 141.137 26.312C141.734 25.7147 142.673 25.416 143.953 25.416ZM146.129 27.096C145.745 26.6907 145.057 26.488 144.065 26.488C143.073 26.488 142.385 26.6907 142.001 27.096C141.617 27.4907 141.425 28.2107 141.425 29.256C141.425 30.3013 141.617 31.0267 142.001 31.432C142.385 31.8267 143.073 32.024 144.065 32.024C145.057 32.024 145.745 31.8267 146.129 31.432C146.513 31.0267 146.705 30.3013 146.705 29.256C146.705 28.2107 146.513 27.4907 146.129 27.096ZM159.782 25.496H160.95L158.742 33H156.79L154.886 26.584H154.582L152.694 33H150.742L148.518 25.496H149.75L151.606 31.912H151.894L153.782 25.496H155.75L157.638 31.912H157.926L159.782 25.496ZM165.33 25.416H165.538C166.764 25.416 167.65 25.6667 168.194 26.168C168.748 26.6693 169.026 27.4853 169.026 28.616V33H167.874V28.872C167.874 27.9867 167.692 27.368 167.33 27.016C166.967 26.664 166.332 26.488 165.426 26.488C164.519 26.488 163.884 26.664 163.522 27.016C163.17 27.368 162.994 27.9867 162.994 28.872V33H161.842V28.616C161.842 27.4853 162.114 26.6693 162.658 26.168C163.202 25.6667 164.092 25.416 165.33 25.416ZM170.757 22.12H171.909V33H170.757V22.12ZM177.095 25.416H177.319C178.599 25.416 179.532 25.7147 180.119 26.312C180.716 26.8987 181.015 27.8427 181.015 29.144V29.352C181.015 30.6533 180.716 31.6027 180.119 32.2C179.532 32.7867 178.599 33.08 177.319 33.08H177.095C175.815 33.08 174.876 32.7867 174.279 32.2C173.692 31.6027 173.399 30.6533 173.399 29.352V29.144C173.399 27.8427 173.692 26.8987 174.279 26.312C174.876 25.7147 175.815 25.416 177.095 25.416ZM179.271 27.096C178.887 26.6907 178.199 26.488 177.207 26.488C176.215 26.488 175.527 26.6907 175.143 27.096C174.759 27.4907 174.567 28.2107 174.567 29.256C174.567 30.3013 174.759 31.0267 175.143 31.432C175.527 31.8267 176.215 32.024 177.207 32.024C178.199 32.024 178.887 31.8267 179.271 31.432C179.655 31.0267 179.847 30.3013 179.847 29.256C179.847 28.2107 179.655 27.4907 179.271 27.096ZM186.092 25.432C187.383 25.432 188.321 25.72 188.908 26.296C189.505 26.8613 189.804 27.784 189.804 29.064V33H188.716V31.912C188.503 32.264 188.156 32.5467 187.676 32.76C187.207 32.9733 186.625 33.08 185.932 33.08H185.804C184.545 33.08 183.628 32.7867 183.052 32.2C182.487 31.6027 182.204 30.6533 182.204 29.352V29.144C182.204 27.8427 182.492 26.8987 183.068 26.312C183.655 25.7253 184.593 25.432 185.884 25.432H186.092ZM185.948 32.024C186.929 32.024 187.623 31.8107 188.028 31.384C188.444 30.9467 188.652 30.2 188.652 29.144C188.652 28.1413 188.455 27.448 188.06 27.064C187.676 26.68 186.983 26.488 185.98 26.488C184.999 26.488 184.316 26.6907 183.932 27.096C183.559 27.4907 183.372 28.2107 183.372 29.256C183.372 30.3013 183.559 31.0267 183.932 31.432C184.305 31.8267 184.977 32.024 185.948 32.024ZM197.691 22.12H198.843V29.336C198.843 30.648 198.545 31.6027 197.947 32.2C197.361 32.7867 196.422 33.08 195.131 33.08H194.923C193.633 33.08 192.694 32.7867 192.107 32.2C191.531 31.6027 191.243 30.6533 191.243 29.352V29.144C191.243 27.8427 191.537 26.8987 192.123 26.312C192.71 25.7147 193.643 25.416 194.923 25.416H195.051C196.278 25.416 197.158 25.72 197.691 26.328V22.12ZM195.019 32.024C196.022 32.024 196.715 31.8213 197.099 31.416C197.494 31.0107 197.691 30.2907 197.691 29.256C197.691 28.232 197.489 27.5173 197.083 27.112C196.689 26.696 196.001 26.488 195.019 26.488C194.038 26.488 193.355 26.6907 192.971 27.096C192.598 27.4907 192.411 28.2107 192.411 29.256C192.411 30.3013 192.598 31.0267 192.971 31.432C193.355 31.8267 194.038 32.024 195.019 32.024ZM204.907 31.896H210.987V33H203.691V22.12H204.907V31.896ZM215.656 25.432C216.946 25.432 217.885 25.72 218.472 26.296C219.069 26.8613 219.368 27.784 219.368 29.064V33H218.28V31.912C218.066 32.264 217.72 32.5467 217.24 32.76C216.77 32.9733 216.189 33.08 215.496 33.08H215.368C214.109 33.08 213.192 32.7867 212.616 32.2C212.05 31.6027 211.768 30.6533 211.768 29.352V29.144C211.768 27.8427 212.056 26.8987 212.632 26.312C213.218 25.7253 214.157 25.432 215.448 25.432H215.656ZM215.512 32.024C216.493 32.024 217.186 31.8107 217.592 31.384C218.008 30.9467 218.216 30.2 218.216 29.144C218.216 28.1413 218.018 27.448 217.624 27.064C217.24 26.68 216.546 26.488 215.544 26.488C214.562 26.488 213.88 26.6907 213.496 27.096C213.122 27.4907 212.936 28.2107 212.936 29.256C212.936 30.3013 213.122 31.0267 213.496 31.432C213.869 31.8267 214.541 32.024 215.512 32.024ZM221.063 25.496H222.215V29.64C222.215 30.5253 222.391 31.144 222.743 31.496C223.095 31.848 223.719 32.024 224.615 32.024C225.49 32.024 226.108 31.848 226.471 31.496C226.834 31.1333 227.015 30.5147 227.015 29.64V25.496H228.167V29.896C228.167 31.016 227.89 31.832 227.335 32.344C226.791 32.8453 225.916 33.096 224.711 33.096H224.503C223.287 33.096 222.407 32.8453 221.863 32.344C221.33 31.832 221.063 31.016 221.063 29.896V25.496ZM233.34 25.416H233.548C234.775 25.416 235.66 25.6667 236.204 26.168C236.759 26.6693 237.036 27.4853 237.036 28.616V33H235.884V28.872C235.884 27.9867 235.703 27.368 235.34 27.016C234.978 26.664 234.343 26.488 233.436 26.488C232.53 26.488 231.895 26.664 231.532 27.016C231.18 27.368 231.004 27.9867 231.004 28.872V33H229.852V28.616C229.852 27.4853 230.124 26.6693 230.668 26.168C231.212 25.6667 232.103 25.416 233.34 25.416ZM242.175 25.416H242.367C243.487 25.416 244.325 25.6293 244.879 26.056C245.445 26.4827 245.743 27.16 245.775 28.088H244.623C244.602 27.5227 244.405 27.1173 244.031 26.872C243.658 26.616 243.071 26.488 242.271 26.488C241.29 26.488 240.607 26.6907 240.223 27.096C239.839 27.4907 239.647 28.2107 239.647 29.256C239.647 30.2907 239.839 31.0107 240.223 31.416C240.607 31.8213 241.29 32.024 242.271 32.024C243.093 32.024 243.685 31.896 244.047 31.64C244.421 31.3733 244.618 30.9413 244.639 30.344H245.791C245.749 31.2933 245.45 31.9867 244.895 32.424C244.351 32.8613 243.509 33.08 242.367 33.08H242.175C240.895 33.08 239.957 32.7867 239.359 32.2C238.773 31.6027 238.479 30.6533 238.479 29.352V29.144C238.479 27.8427 238.773 26.8987 239.359 26.312C239.957 25.7147 240.895 25.416 242.175 25.416ZM251.053 25.416C252.237 25.416 253.095 25.672 253.629 26.184C254.162 26.6853 254.429 27.496 254.429 28.616V33H253.277V28.872C253.277 27.9973 253.095 27.384 252.733 27.032C252.381 26.6693 251.767 26.488 250.893 26.488C249.986 26.488 249.341 26.6747 248.957 27.048C248.573 27.4107 248.381 28.0293 248.381 28.904V33H247.229V22.12H248.381V26.296C248.914 25.7093 249.757 25.416 250.909 25.416H251.053ZM263.247 29.176V29.704H257.007C257.05 30.5787 257.263 31.1867 257.647 31.528C258.042 31.8693 258.73 32.04 259.711 32.04C260.532 32.04 261.119 31.9387 261.471 31.736C261.823 31.5333 262.02 31.1813 262.063 30.68H263.183C263.14 31.5333 262.847 32.1467 262.303 32.52C261.759 32.8933 260.927 33.08 259.807 33.08H259.583C258.26 33.08 257.306 32.7867 256.719 32.2C256.143 31.6133 255.855 30.664 255.855 29.352V29.144C255.855 27.8427 256.143 26.8987 256.719 26.312C257.306 25.7147 258.234 25.416 259.503 25.416H259.727C260.954 25.416 261.844 25.7147 262.399 26.312C262.964 26.9093 263.247 27.864 263.247 29.176ZM259.599 26.456C258.703 26.456 258.063 26.6213 257.679 26.952C257.295 27.2827 257.071 27.8587 257.007 28.68H262.095C262.052 27.8693 261.839 27.2987 261.455 26.968C261.082 26.6267 260.463 26.456 259.599 26.456ZM267.865 25.416H268.057C269.124 25.416 269.865 25.624 270.281 26.04C270.708 26.4453 270.937 27.128 270.969 28.088H269.833C269.812 27.4693 269.673 27.048 269.417 26.824C269.161 26.6 268.681 26.488 267.977 26.488C267.135 26.488 266.569 26.6533 266.281 26.984C265.993 27.304 265.849 27.9333 265.849 28.872V33H264.697V28.648C264.697 27.464 264.932 26.632 265.401 26.152C265.881 25.6613 266.703 25.416 267.865 25.416Z" fill="white"/>
</svg>
