<svg width="132" height="19" viewBox="0 0 132 19" fill="none" xmlns="http://www.w3.org/2000/svg">
<rect y="4.25" width="10.5" height="10.5" rx="5.25" fill="#22C851"/>
<path d="M23.7369 3.12H25.0169L20.9369 14H18.8889L14.8249 3.12H16.1369L19.7529 12.896H20.1209L23.7369 3.12ZM28.99 3.12H30.702V14H29.502V4.336H29.31L26.734 6.704L25.934 5.936L28.99 3.12ZM44.9514 14L43.9914 11.456H38.1674L37.2074 14H35.9434L40.0874 3.12H42.1034L46.2474 14H44.9514ZM40.8874 4.224L38.5834 10.368H43.5754L41.2714 4.224H40.8874ZM52.2756 6.496H53.5236L50.6276 14H48.6916L45.7796 6.496H47.0596L49.4916 12.96H49.8436L52.2756 6.496ZM57.9244 6.432C59.215 6.432 60.1537 6.72 60.7404 7.296C61.3377 7.86133 61.6364 8.784 61.6364 10.064V14H60.5484V12.912C60.335 13.264 59.9884 13.5467 59.5084 13.76C59.039 13.9733 58.4577 14.08 57.7644 14.08H57.6364C56.3777 14.08 55.4604 13.7867 54.8844 13.2C54.319 12.6027 54.0364 11.6533 54.0364 10.352V10.144C54.0364 8.84267 54.3244 7.89867 54.9004 7.312C55.487 6.72533 56.4257 6.432 57.7164 6.432H57.9244ZM57.7804 13.024C58.7617 13.024 59.455 12.8107 59.8604 12.384C60.2764 11.9467 60.4844 11.2 60.4844 10.144C60.4844 9.14133 60.287 8.448 59.8924 8.064C59.5084 7.68 58.815 7.488 57.8124 7.488C56.831 7.488 56.1484 7.69067 55.7644 8.096C55.391 8.49067 55.2044 9.21067 55.2044 10.256C55.2044 11.3013 55.391 12.0267 55.7644 12.432C56.1377 12.8267 56.8097 13.024 57.7804 13.024ZM63.3638 3.12H64.5158V4.816H63.3638V3.12ZM63.3638 6.496H64.5158V14H63.3638V6.496ZM66.2937 3.12H67.4457V14H66.2937V3.12ZM72.8238 6.432C74.1144 6.432 75.0531 6.72 75.6398 7.296C76.2371 7.86133 76.5358 8.784 76.5358 10.064V14H75.4478V12.912C75.2344 13.264 74.8878 13.5467 74.4078 13.76C73.9384 13.9733 73.3571 14.08 72.6638 14.08H72.5358C71.2771 14.08 70.3598 13.7867 69.7838 13.2C69.2184 12.6027 68.9358 11.6533 68.9358 10.352V10.144C68.9358 8.84267 69.2238 7.89867 69.7998 7.312C70.3864 6.72533 71.3251 6.432 72.6158 6.432H72.8238ZM72.6798 13.024C73.6611 13.024 74.3544 12.8107 74.7598 12.384C75.1758 11.9467 75.3838 11.2 75.3838 10.144C75.3838 9.14133 75.1864 8.448 74.7918 8.064C74.4078 7.68 73.7144 7.488 72.7118 7.488C71.7304 7.488 71.0478 7.69067 70.6638 8.096C70.2904 8.49067 70.1038 9.21067 70.1038 10.256C70.1038 11.3013 70.2904 12.0267 70.6638 12.432C71.0371 12.8267 71.7091 13.024 72.6798 13.024ZM82.1671 6.416C83.4471 6.416 84.3805 6.71467 84.9671 7.312C85.5538 7.89867 85.8471 8.84267 85.8471 10.144V10.352C85.8471 11.6533 85.5538 12.6027 84.9671 13.2C84.3805 13.7867 83.4471 14.08 82.1671 14.08H81.9431C80.6525 14.08 79.7085 13.7867 79.1111 13.2C78.5245 12.6027 78.2311 11.648 78.2311 10.336V3.12H79.3831V7.344C79.9058 6.72533 80.7858 6.416 82.0231 6.416H82.1671ZM79.9751 12.416C80.3698 12.8213 81.0631 13.024 82.0551 13.024C83.0471 13.024 83.7298 12.8267 84.1031 12.432C84.4871 12.0267 84.6791 11.3013 84.6791 10.256C84.6791 9.21067 84.4871 8.49067 84.1031 8.096C83.7191 7.69067 83.0365 7.488 82.0551 7.488C81.0738 7.488 80.3858 7.696 79.9911 8.112C79.5965 8.51733 79.3991 9.232 79.3991 10.256C79.3991 11.2907 79.5911 12.0107 79.9751 12.416ZM87.3025 3.12H88.4545V14H87.3025V3.12ZM97.3365 10.176V10.704H91.0965C91.1392 11.5787 91.3525 12.1867 91.7365 12.528C92.1312 12.8693 92.8192 13.04 93.8005 13.04C94.6218 13.04 95.2085 12.9387 95.5605 12.736C95.9125 12.5333 96.1098 12.1813 96.1525 11.68H97.2725C97.2298 12.5333 96.9365 13.1467 96.3925 13.52C95.8485 13.8933 95.0165 14.08 93.8965 14.08H93.6725C92.3498 14.08 91.3952 13.7867 90.8085 13.2C90.2325 12.6133 89.9445 11.664 89.9445 10.352V10.144C89.9445 8.84267 90.2325 7.89867 90.8085 7.312C91.3952 6.71467 92.3232 6.416 93.5925 6.416H93.8165C95.0432 6.416 95.9338 6.71467 96.4885 7.312C97.0538 7.90933 97.3365 8.864 97.3365 10.176ZM93.6885 7.456C92.7925 7.456 92.1525 7.62133 91.7685 7.952C91.3845 8.28267 91.1605 8.85867 91.0965 9.68H96.1845C96.1418 8.86933 95.9285 8.29867 95.5445 7.968C95.1712 7.62667 94.5525 7.456 93.6885 7.456ZM105.267 6.416H105.475C106.702 6.416 107.587 6.66667 108.131 7.168C108.686 7.66933 108.963 8.48533 108.963 9.616V14H107.811V9.872C107.811 8.98667 107.63 8.368 107.267 8.016C106.905 7.664 106.27 7.488 105.363 7.488C104.457 7.488 103.822 7.664 103.459 8.016C103.107 8.368 102.931 8.98667 102.931 9.872V14H101.779V9.616C101.779 8.48533 102.051 7.66933 102.595 7.168C103.139 6.66667 104.03 6.416 105.267 6.416ZM114.102 6.416H114.326C115.606 6.416 116.54 6.71467 117.126 7.312C117.724 7.89867 118.022 8.84267 118.022 10.144V10.352C118.022 11.6533 117.724 12.6027 117.126 13.2C116.54 13.7867 115.606 14.08 114.326 14.08H114.102C112.822 14.08 111.884 13.7867 111.286 13.2C110.7 12.6027 110.406 11.6533 110.406 10.352V10.144C110.406 8.84267 110.7 7.89867 111.286 7.312C111.884 6.71467 112.822 6.416 114.102 6.416ZM116.278 8.096C115.894 7.69067 115.206 7.488 114.214 7.488C113.222 7.488 112.534 7.69067 112.15 8.096C111.766 8.49067 111.574 9.21067 111.574 10.256C111.574 11.3013 111.766 12.0267 112.15 12.432C112.534 12.8267 113.222 13.024 114.214 13.024C115.206 13.024 115.894 12.8267 116.278 12.432C116.662 12.0267 116.854 11.3013 116.854 10.256C116.854 9.21067 116.662 8.49067 116.278 8.096ZM129.931 6.496H131.099L128.891 14H126.939L125.035 7.584H124.731L122.843 14H120.891L118.667 6.496H119.899L121.755 12.912H122.043L123.931 6.496H125.899L127.787 12.912H128.075L129.931 6.496Z" fill="white"/>
</svg>
