<svg width="130" height="129" viewBox="0 0 130 129" fill="none" xmlns="http://www.w3.org/2000/svg">
<g filter="url(#filter0_f_525_4787)">
<path d="M74.4184 30H41.1698C35.4151 30 30.75 34.6651 30.75 40.4198V73.6684C30.75 79.423 35.4151 84.0881 41.1698 84.0881H74.4184C80.173 84.0881 84.8381 79.423 84.8381 73.6684V40.4198C84.8381 34.6651 80.173 30 74.4184 30Z" fill="#52E1F2"/>
</g>
<path d="M74.4184 30H41.1698C35.4151 30 30.75 34.6651 30.75 40.4198V73.6684C30.75 79.423 35.4151 84.0881 41.1698 84.0881H74.4184C80.173 84.0881 84.8381 79.423 84.8381 73.6684V40.4198C84.8381 34.6651 80.173 30 74.4184 30Z" fill="#52E1F2"/>
<g filter="url(#filter1_b_525_4787)">
<path d="M91.2855 45.9117H58.0369C52.2823 45.9117 47.6172 50.5768 47.6172 56.3315V89.5801C47.6172 95.3348 52.2823 99.9999 58.0369 99.9999H91.2855C97.0402 99.9999 101.705 95.3348 101.705 89.5801V56.3315C101.705 50.5768 97.0402 45.9117 91.2855 45.9117Z" fill="url(#paint0_linear_525_4787)"/>
<path d="M91.2855 45.7378H58.0369C52.1862 45.7378 47.4433 50.4808 47.4433 56.3315V89.5801C47.4433 95.4308 52.1862 100.174 58.0369 100.174H91.2855C97.1362 100.174 101.879 95.4308 101.879 89.5801V56.3315C101.879 50.4808 97.1362 45.7378 91.2855 45.7378Z" stroke="url(#paint1_linear_525_4787)" stroke-width="0.347789"/>
</g>
<defs>
<filter id="filter0_f_525_4787" x="0.840174" y="0.0901737" width="113.908" height="113.908" filterUnits="userSpaceOnUse" color-interpolation-filters="sRGB">
<feFlood flood-opacity="0" result="BackgroundImageFix"/>
<feBlend mode="normal" in="SourceGraphic" in2="BackgroundImageFix" result="shape"/>
<feGaussianBlur stdDeviation="14.9549" result="effect1_foregroundBlur_525_4787"/>
</filter>
<filter id="filter1_b_525_4787" x="34.7491" y="33.0436" width="79.824" height="79.8245" filterUnits="userSpaceOnUse" color-interpolation-filters="sRGB">
<feFlood flood-opacity="0" result="BackgroundImageFix"/>
<feGaussianBlur in="BackgroundImageFix" stdDeviation="6.2602"/>
<feComposite in2="SourceAlpha" operator="in" result="effect1_backgroundBlur_525_4787"/>
<feBlend mode="normal" in="SourceGraphic" in2="effect1_backgroundBlur_525_4787" result="shape"/>
</filter>
<linearGradient id="paint0_linear_525_4787" x1="50.6708" y1="96.9463" x2="98.6517" y2="48.9653" gradientUnits="userSpaceOnUse">
<stop stop-color="white" stop-opacity="0.2"/>
<stop offset="1" stop-color="white" stop-opacity="0.49"/>
</linearGradient>
<linearGradient id="paint1_linear_525_4787" x1="51.4352" y1="50.1657" x2="96.6477" y2="98.5083" gradientUnits="userSpaceOnUse">
<stop stop-color="white"/>
<stop offset="1" stop-color="white" stop-opacity="0"/>
</linearGradient>
</defs>
</svg>
