<svg width="140" height="129" viewBox="0 0 140 129" fill="none" xmlns="http://www.w3.org/2000/svg">
<g filter="url(#filter0_f_525_4793)">
<path d="M109.936 94.405C107.795 83.3572 98.0706 75.0194 86.3922 75.0194C74.7137 75.0194 64.9897 83.3572 62.848 94.405C62.3837 96.7892 64.2689 99.0002 66.6947 99.0002H106.083C108.515 99.0002 110.394 96.7961 109.929 94.405H109.936Z" fill="#FFD966"/>
<path d="M86.3916 69.3845C92.9678 69.3845 98.2988 64.0535 98.2988 57.4773C98.2988 50.9011 92.9678 45.5701 86.3916 45.5701C79.8154 45.5701 74.4844 50.9011 74.4844 57.4773C74.4844 64.0535 79.8154 69.3845 86.3916 69.3845Z" fill="#FFD966"/>
</g>
<path d="M109.936 94.405C107.795 83.3572 98.0706 75.0194 86.3922 75.0194C74.7137 75.0194 64.9897 83.3572 62.848 94.405C62.3837 96.7892 64.2689 99.0002 66.6947 99.0002H106.083C108.515 99.0002 110.394 96.7961 109.929 94.405H109.936Z" fill="#FFD966"/>
<path d="M86.3916 69.3845C92.9678 69.3845 98.2988 64.0535 98.2988 57.4773C98.2988 50.9011 92.9678 45.5701 86.3916 45.5701C79.8154 45.5701 74.4844 50.9011 74.4844 57.4773C74.4844 64.0535 79.8154 69.3845 86.3916 69.3845Z" fill="#FFD966"/>
<g filter="url(#filter1_b_525_4793)">
<path d="M77.3758 93.2403C74.6867 79.3924 62.4953 68.9337 47.8573 68.9337C33.2194 68.9337 21.028 79.3924 18.3388 93.2403C17.7566 96.2344 20.1131 98.9998 23.1627 98.9998H72.545C75.5946 98.9998 77.9511 96.2344 77.3689 93.2403H77.3758Z" fill="url(#paint0_linear_525_4793)"/>
<path d="M47.8573 69.107C62.338 69.107 74.4108 79.4016 77.1649 93.067H77.1587L77.1988 93.2734C77.7595 96.1568 75.4895 98.8266 72.545 98.8266H23.1627C20.2182 98.8266 17.9482 96.1568 18.5089 93.2734L18.5089 93.2733C21.1826 79.5053 33.3039 69.107 47.8573 69.107Z" stroke="url(#paint1_linear_525_4793)" stroke-width="0.346543"/>
</g>
<g filter="url(#filter2_b_525_4793)">
<path d="M51.2732 61.4738C59.294 59.5807 64.2616 51.5438 62.3685 43.5229C60.4754 35.502 52.4385 30.5345 44.4176 32.4276C36.3967 34.3207 31.4292 42.3576 33.3223 50.3784C35.2154 58.3993 43.2523 63.3669 51.2732 61.4738Z" fill="url(#paint2_linear_525_4793)"/>
<path d="M62.1999 43.5627C64.071 51.4905 59.1611 59.434 51.2334 61.3052C43.3056 63.1763 35.3621 58.2664 33.4909 50.3386C31.6198 42.4109 36.5297 34.4673 44.4574 32.5962C52.3852 30.7251 60.3287 35.635 62.1999 43.5627Z" stroke="url(#paint3_linear_525_4793)" stroke-width="0.346543"/>
</g>
<defs>
<filter id="filter0_f_525_4793" x="32.9747" y="15.7674" width="106.828" height="113.035" filterUnits="userSpaceOnUse" color-interpolation-filters="sRGB">
<feFlood flood-opacity="0" result="BackgroundImageFix"/>
<feBlend mode="normal" in="SourceGraphic" in2="BackgroundImageFix" result="shape"/>
<feGaussianBlur stdDeviation="14.9013" result="effect1_foregroundBlur_525_4793"/>
</filter>
<filter id="filter1_b_525_4793" x="5.77446" y="56.4582" width="84.1581" height="55.0172" filterUnits="userSpaceOnUse" color-interpolation-filters="sRGB">
<feFlood flood-opacity="0" result="BackgroundImageFix"/>
<feGaussianBlur in="BackgroundImageFix" stdDeviation="6.23777"/>
<feComposite in2="SourceAlpha" operator="in" result="effect1_backgroundBlur_525_4793"/>
<feBlend mode="normal" in="SourceGraphic" in2="effect1_backgroundBlur_525_4793" result="shape"/>
</filter>
<filter id="filter2_b_525_4793" x="20.4444" y="19.5496" width="54.8026" height="54.8021" filterUnits="userSpaceOnUse" color-interpolation-filters="sRGB">
<feFlood flood-opacity="0" result="BackgroundImageFix"/>
<feGaussianBlur in="BackgroundImageFix" stdDeviation="6.23777"/>
<feComposite in2="SourceAlpha" operator="in" result="effect1_backgroundBlur_525_4793"/>
<feBlend mode="normal" in="SourceGraphic" in2="effect1_backgroundBlur_525_4793" result="shape"/>
</filter>
<linearGradient id="paint0_linear_525_4793" x1="21.5926" y1="97.3024" x2="43.1272" y2="54.8953" gradientUnits="userSpaceOnUse">
<stop stop-color="white" stop-opacity="0.2"/>
<stop offset="1" stop-color="white" stop-opacity="0.49"/>
</linearGradient>
<linearGradient id="paint1_linear_525_4793" x1="22.4294" y1="71.2984" x2="41.9517" y2="112.404" gradientUnits="userSpaceOnUse">
<stop stop-color="white"/>
<stop offset="1" stop-color="white" stop-opacity="0"/>
</linearGradient>
<linearGradient id="paint2_linear_525_4793" x1="38.0029" y1="62.8747" x2="57.6879" y2="31.0267" gradientUnits="userSpaceOnUse">
<stop stop-color="white" stop-opacity="0.2"/>
<stop offset="1" stop-color="white" stop-opacity="0.49"/>
</linearGradient>
<linearGradient id="paint3_linear_525_4793" x1="32.484" y1="37.6559" x2="62.8912" y2="57.8861" gradientUnits="userSpaceOnUse">
<stop stop-color="white"/>
<stop offset="1" stop-color="white" stop-opacity="0"/>
</linearGradient>
</defs>
</svg>
