<svg width="474" height="159" viewBox="0 0 474 159" fill="none" xmlns="http://www.w3.org/2000/svg">
<path opacity="0.2" d="M58.896 18.36H61.056C69.024 18.36 75.312 19.08 79.92 20.52C84.528 21.96 88.128 24.504 90.72 28.152C93.408 31.8 94.704 36.744 94.608 42.984C94.608 49.224 93.888 57.096 92.448 66.6L91.872 69.768C88.512 88.68 83.472 101.448 76.752 108.072C70.128 114.696 59.04 118.008 43.488 118.008H41.328C25.776 118.008 15.792 114.696 11.376 108.072C7.056 101.448 6.624 88.68 10.08 69.768L10.512 66.6C13.776 47.688 18.768 34.92 25.488 28.296C32.208 21.672 43.344 18.36 58.896 18.36ZM57.888 30.888C51.936 30.888 47.232 31.32 43.776 32.184C40.416 32.952 37.392 34.776 34.704 37.656C32.112 40.44 30.096 44.136 28.656 48.744C27.216 53.352 25.776 59.832 24.336 68.184C23.376 73.752 22.704 78.408 22.32 82.152C21.936 85.8 21.888 89.112 22.176 92.088C22.464 94.968 23.04 97.224 23.904 98.856C24.768 100.488 26.16 101.832 28.08 102.888C30.096 103.944 32.352 104.664 34.848 105.048C37.44 105.336 40.704 105.48 44.64 105.48C50.592 105.48 55.248 105.096 58.608 104.328C62.064 103.464 65.088 101.592 67.68 98.712C70.272 95.832 72.288 92.136 73.728 87.624C75.168 83.016 76.656 76.536 78.192 68.184C79.344 61.464 80.016 56.088 80.208 52.056C80.496 47.928 80.4 44.376 79.92 41.4C79.44 38.328 78.24 36.12 76.32 34.776C74.4 33.336 72.048 32.328 69.264 31.752C66.48 31.176 62.688 30.888 57.888 30.888ZM136.655 19.08H155.087L137.807 117H123.983L138.671 33.192H137.519L111.887 54.072L104.255 45.144L136.655 19.08Z" fill="white"/>
</svg>
