<svg width="129" height="133" viewBox="0 0 129 133" fill="none" xmlns="http://www.w3.org/2000/svg">
<g filter="url(#filter0_f_525_4775)">
<path d="M93.2321 31H52.8052C51.1576 31 49.8281 32.3365 49.8281 33.977V57.9277C49.8281 59.5753 51.1646 60.9047 52.8052 60.9047H57.2672V67.5376C57.2672 69.5176 59.6573 70.5076 61.0574 69.1075L69.2602 60.9047H93.2321C94.8797 60.9047 96.2091 59.5682 96.2091 57.9277V33.977C96.2091 32.3294 94.8726 31 93.2321 31Z" fill="#EF4444"/>
</g>
<path d="M93.2301 31H52.8032C51.1556 31 49.8262 32.3365 49.8262 33.977V57.9277C49.8262 59.5753 51.1627 60.9047 52.8032 60.9047H57.2652V67.5376C57.2652 69.5176 59.6553 70.5076 61.0555 69.1075L69.2583 60.9047H93.2301C94.8777 60.9047 96.2072 59.5682 96.2072 57.9277V33.977C96.2072 32.3294 94.8707 31 93.2301 31Z" fill="#EF4444"/>
<g filter="url(#filter1_b_525_4775)">
<path d="M72.201 41.8687H39.1283C35.6068 41.8687 32.75 44.7255 32.75 48.24V101.629C32.75 105.15 35.6068 108 39.1283 108H72.201C75.7226 108 78.5794 105.15 78.5794 101.629V48.24C78.5794 44.7255 75.7226 41.8687 72.201 41.8687ZM69.6271 103.418C69.3654 103.679 68.9977 103.842 68.6017 103.842H42.7277C41.9286 103.842 41.278 103.198 41.278 102.399C41.278 102.003 41.4407 101.636 41.7023 101.374C41.9639 101.112 42.3246 100.95 42.7277 100.95H68.6017C69.4008 100.95 70.0514 101.6 70.0514 102.399C70.0514 102.795 69.8887 103.163 69.6271 103.418Z" fill="url(#paint0_linear_525_4775)"/>
<path d="M39.1283 42.0455H72.201C75.6251 42.0455 78.4026 44.8233 78.4026 48.24V101.629C78.4026 105.052 75.6252 107.823 72.201 107.823H39.1283C35.7042 107.823 32.9268 105.052 32.9268 101.629V48.24C32.9268 44.8233 35.7043 42.0455 39.1283 42.0455ZM68.6017 104.019C69.0457 104.019 69.4576 103.837 69.7512 103.544C70.0463 103.256 70.2281 102.843 70.2281 102.399C70.2281 101.503 69.4984 100.773 68.6017 100.773H42.7277C42.2757 100.773 41.8707 100.956 41.5773 101.249C41.2836 101.543 41.1013 101.955 41.1013 102.399C41.1013 103.297 41.8321 104.019 42.7277 104.019H68.6017Z" stroke="url(#paint1_linear_525_4775)" stroke-width="0.353567"/>
</g>
<path d="M70.0507 102.399C70.0507 102.795 69.888 103.163 69.6264 103.418C69.3647 103.679 68.997 103.842 68.601 103.842H42.727C41.9279 103.842 41.2773 103.198 41.2773 102.399C41.2773 102.003 41.44 101.636 41.7016 101.374C41.9632 101.112 42.3239 100.95 42.727 100.95H68.601C69.4001 100.95 70.0507 101.6 70.0507 102.399Z" fill="white"/>
<defs>
<filter id="filter0_f_525_4775" x="19.4213" y="0.593204" width="107.194" height="99.5769" filterUnits="userSpaceOnUse" color-interpolation-filters="sRGB">
<feFlood flood-opacity="0" result="BackgroundImageFix"/>
<feBlend mode="normal" in="SourceGraphic" in2="BackgroundImageFix" result="shape"/>
<feGaussianBlur stdDeviation="15.2034" result="effect1_foregroundBlur_525_4775"/>
</filter>
<filter id="filter1_b_525_4775" x="20.0216" y="29.1403" width="71.2869" height="91.5881" filterUnits="userSpaceOnUse" color-interpolation-filters="sRGB">
<feFlood flood-opacity="0" result="BackgroundImageFix"/>
<feGaussianBlur in="BackgroundImageFix" stdDeviation="6.36421"/>
<feComposite in2="SourceAlpha" operator="in" result="effect1_backgroundBlur_525_4775"/>
<feBlend mode="normal" in="SourceGraphic" in2="effect1_backgroundBlur_525_4775" result="shape"/>
</filter>
<linearGradient id="paint0_linear_525_4775" x1="35.3373" y1="104.266" x2="90.2666" y2="66.2001" gradientUnits="userSpaceOnUse">
<stop stop-color="white" stop-opacity="0.2"/>
<stop offset="1" stop-color="white" stop-opacity="0.49"/>
</linearGradient>
<linearGradient id="paint1_linear_525_4775" x1="35.985" y1="47.0698" x2="88.9889" y2="86.3448" gradientUnits="userSpaceOnUse">
<stop stop-color="white"/>
<stop offset="1" stop-color="white" stop-opacity="0"/>
</linearGradient>
</defs>
</svg>
