<svg width="141" height="130" viewBox="0 0 141 130" fill="none" xmlns="http://www.w3.org/2000/svg">
<g filter="url(#filter0_f_157_2608)">
<path d="M110.21 94.8527C108.069 83.8049 98.3446 75.467 86.6661 75.467C74.9876 75.467 65.2636 83.8049 63.122 94.8527C62.6576 97.2369 64.5428 99.4478 66.9686 99.4478H106.357C108.789 99.4478 110.668 97.2438 110.203 94.8527H110.21Z" fill="#9146FF"/>
<path d="M86.6655 69.8322C93.2417 69.8322 98.5727 64.5012 98.5727 57.925C98.5727 51.3489 93.2417 46.0178 86.6655 46.0178C80.0893 46.0178 74.7583 51.3489 74.7583 57.925C74.7583 64.5012 80.0893 69.8322 86.6655 69.8322Z" fill="#9146FF"/>
</g>
<path d="M110.21 94.8527C108.069 83.8049 98.3446 75.467 86.6661 75.467C74.9876 75.467 65.2636 83.8049 63.122 94.8527C62.6576 97.2369 64.5428 99.4478 66.9686 99.4478H106.357C108.789 99.4478 110.668 97.2438 110.203 94.8527H110.21Z" fill="#9146FF"/>
<path d="M86.6655 69.8322C93.2417 69.8322 98.5727 64.5012 98.5727 57.925C98.5727 51.3489 93.2417 46.0178 86.6655 46.0178C80.0893 46.0178 74.7583 51.3489 74.7583 57.925C74.7583 64.5012 80.0893 69.8322 86.6655 69.8322Z" fill="#9146FF"/>
<g filter="url(#filter1_b_157_2608)">
<path d="M77.6498 93.6879C74.9606 79.84 62.7692 69.3813 48.1313 69.3813C33.4933 69.3813 21.3019 79.84 18.6127 93.6879C18.0306 96.682 20.387 99.4474 23.4366 99.4474H72.819C75.8685 99.4474 78.225 96.682 77.6428 93.6879H77.6498Z" fill="url(#paint0_linear_157_2608)"/>
<path d="M48.1313 69.5546C62.6119 69.5546 74.6847 79.8492 77.4389 93.5146H77.4326L77.4728 93.721C78.0334 96.6044 75.7635 99.2742 72.819 99.2742H23.4366C20.4921 99.2742 18.2222 96.6044 18.7828 93.721L18.7828 93.7209C21.4565 79.9529 33.5778 69.5546 48.1313 69.5546Z" stroke="url(#paint1_linear_157_2608)" stroke-width="0.346543"/>
</g>
<g filter="url(#filter2_b_157_2608)">
<path d="M51.5481 61.9212C59.5689 60.0281 64.5365 51.9912 62.6434 43.9703C60.7503 35.9494 52.7134 30.9819 44.6925 32.875C36.6716 34.7681 31.7041 42.8049 33.5972 50.8258C35.4903 58.8467 43.5272 63.8143 51.5481 61.9212Z" fill="url(#paint2_linear_157_2608)"/>
<path d="M62.4748 44.0101C64.3459 51.9379 59.436 59.8814 51.5083 61.7525C43.5805 63.6237 35.637 58.7138 33.7658 50.786C31.8947 42.8583 36.8046 34.9147 44.7323 33.0436C52.6601 31.1725 60.6036 36.0824 62.4748 44.0101Z" stroke="url(#paint3_linear_157_2608)" stroke-width="0.346543"/>
</g>
<defs>
<filter id="filter0_f_157_2608" x="33.2486" y="16.2151" width="106.828" height="113.035" filterUnits="userSpaceOnUse" color-interpolation-filters="sRGB">
<feFlood flood-opacity="0" result="BackgroundImageFix"/>
<feBlend mode="normal" in="SourceGraphic" in2="BackgroundImageFix" result="shape"/>
<feGaussianBlur stdDeviation="14.9013" result="effect1_foregroundBlur_157_2608"/>
</filter>
<filter id="filter1_b_157_2608" x="6.04839" y="56.9058" width="84.1586" height="55.0172" filterUnits="userSpaceOnUse" color-interpolation-filters="sRGB">
<feFlood flood-opacity="0" result="BackgroundImageFix"/>
<feGaussianBlur in="BackgroundImageFix" stdDeviation="6.23777"/>
<feComposite in2="SourceAlpha" operator="in" result="effect1_backgroundBlur_157_2608"/>
<feBlend mode="normal" in="SourceGraphic" in2="effect1_backgroundBlur_157_2608" result="shape"/>
</filter>
<filter id="filter2_b_157_2608" x="20.7193" y="19.9971" width="54.8022" height="54.8019" filterUnits="userSpaceOnUse" color-interpolation-filters="sRGB">
<feFlood flood-opacity="0" result="BackgroundImageFix"/>
<feGaussianBlur in="BackgroundImageFix" stdDeviation="6.23777"/>
<feComposite in2="SourceAlpha" operator="in" result="effect1_backgroundBlur_157_2608"/>
<feBlend mode="normal" in="SourceGraphic" in2="effect1_backgroundBlur_157_2608" result="shape"/>
</filter>
<linearGradient id="paint0_linear_157_2608" x1="21.8665" y1="97.75" x2="43.4012" y2="55.3429" gradientUnits="userSpaceOnUse">
<stop stop-color="white" stop-opacity="0.2"/>
<stop offset="1" stop-color="white" stop-opacity="0.49"/>
</linearGradient>
<linearGradient id="paint1_linear_157_2608" x1="22.7033" y1="71.746" x2="42.2256" y2="112.852" gradientUnits="userSpaceOnUse">
<stop stop-color="white"/>
<stop offset="1" stop-color="white" stop-opacity="0"/>
</linearGradient>
<linearGradient id="paint2_linear_157_2608" x1="38.2778" y1="63.3221" x2="57.9628" y2="31.4741" gradientUnits="userSpaceOnUse">
<stop stop-color="white" stop-opacity="0.2"/>
<stop offset="1" stop-color="white" stop-opacity="0.49"/>
</linearGradient>
<linearGradient id="paint3_linear_157_2608" x1="32.7589" y1="38.1032" x2="63.1661" y2="58.3335" gradientUnits="userSpaceOnUse">
<stop stop-color="white"/>
<stop offset="1" stop-color="white" stop-opacity="0"/>
</linearGradient>
</defs>
</svg>
