<svg width="129" height="129" viewBox="0 0 129 129" fill="none" xmlns="http://www.w3.org/2000/svg">
<g filter="url(#filter0_f_58_2803)">
<path d="M73.6684 30H40.4198C34.6651 30 30 34.6651 30 40.4198V73.6684C30 79.423 34.6651 84.0881 40.4198 84.0881H73.6684C79.423 84.0881 84.0881 79.423 84.0881 73.6684V40.4198C84.0881 34.6651 79.423 30 73.6684 30Z" fill="#52E1F2"/>
</g>
<path d="M73.6684 30H40.4198C34.6651 30 30 34.6651 30 40.4198V73.6684C30 79.423 34.6651 84.0881 40.4198 84.0881H73.6684C79.423 84.0881 84.0881 79.423 84.0881 73.6684V40.4198C84.0881 34.6651 79.423 30 73.6684 30Z" fill="#52E1F2"/>
<g filter="url(#filter1_b_58_2803)">
<path d="M90.5355 45.9119H57.2869C51.5323 45.9119 46.8672 50.5769 46.8672 56.3316V89.5802C46.8672 95.3349 51.5323 100 57.2869 100H90.5355C96.2902 100 100.955 95.3349 100.955 89.5802V56.3316C100.955 50.5769 96.2902 45.9119 90.5355 45.9119Z" fill="url(#paint0_linear_58_2803)"/>
<path d="M90.5355 45.738H57.2869C51.4362 45.738 46.6933 50.4809 46.6933 56.3316V89.5802C46.6933 95.4309 51.4362 100.174 57.2869 100.174H90.5355C96.3862 100.174 101.129 95.4309 101.129 89.5802V56.3316C101.129 50.4809 96.3862 45.738 90.5355 45.738Z" stroke="url(#paint1_linear_58_2803)" stroke-width="0.347789"/>
</g>
<defs>
<filter id="filter0_f_58_2803" x="0.0901737" y="0.0901737" width="113.908" height="113.908" filterUnits="userSpaceOnUse" color-interpolation-filters="sRGB">
<feFlood flood-opacity="0" result="BackgroundImageFix"/>
<feBlend mode="normal" in="SourceGraphic" in2="BackgroundImageFix" result="shape"/>
<feGaussianBlur stdDeviation="14.9549" result="effect1_foregroundBlur_58_2803"/>
</filter>
<filter id="filter1_b_58_2803" x="33.9991" y="33.0436" width="79.824" height="79.8245" filterUnits="userSpaceOnUse" color-interpolation-filters="sRGB">
<feFlood flood-opacity="0" result="BackgroundImageFix"/>
<feGaussianBlur in="BackgroundImageFix" stdDeviation="6.2602"/>
<feComposite in2="SourceAlpha" operator="in" result="effect1_backgroundBlur_58_2803"/>
<feBlend mode="normal" in="SourceGraphic" in2="effect1_backgroundBlur_58_2803" result="shape"/>
</filter>
<linearGradient id="paint0_linear_58_2803" x1="49.9208" y1="96.9464" x2="97.9017" y2="48.9655" gradientUnits="userSpaceOnUse">
<stop stop-color="white" stop-opacity="0.2"/>
<stop offset="1" stop-color="white" stop-opacity="0.49"/>
</linearGradient>
<linearGradient id="paint1_linear_58_2803" x1="50.6852" y1="50.1658" x2="95.8977" y2="98.5084" gradientUnits="userSpaceOnUse">
<stop stop-color="white"/>
<stop offset="1" stop-color="white" stop-opacity="0"/>
</linearGradient>
</defs>
</svg>
