<svg width="329" height="330" viewBox="0 0 329 330" fill="none" xmlns="http://www.w3.org/2000/svg">
<g clip-path="url(#clip0_1163_5135)">
<g filter="url(#filter0_f_1163_5135)">
<g clip-path="url(#clip1_1163_5135)">
<circle cx="182.106" cy="145.253" r="48.0484" transform="rotate(42.8712 182.106 145.253)" fill="url(#paint0_angular_1163_5135)"/>
<g filter="url(#filter1_i_1163_5135)">
<circle cx="197.464" cy="180.467" r="48.0484" transform="rotate(90 197.464 180.467)" fill="url(#paint1_angular_1163_5135)"/>
</g>
<circle cx="184.63" cy="213.157" r="48.0484" transform="rotate(132.871 184.63 213.157)" fill="url(#paint2_angular_1163_5135)"/>
<g filter="url(#filter2_i_1163_5135)">
<circle cx="149.416" cy="228.515" r="48.0484" transform="rotate(180 149.416 228.515)" fill="url(#paint3_angular_1163_5135)"/>
</g>
<circle cx="116.727" cy="215.681" r="48.0484" transform="rotate(-137.129 116.727 215.681)" fill="url(#paint4_angular_1163_5135)"/>
<g filter="url(#filter3_i_1163_5135)">
<circle cx="101.368" cy="180.467" r="48.0484" transform="rotate(-90 101.368 180.467)" fill="url(#paint5_angular_1163_5135)"/>
</g>
<circle cx="114.203" cy="147.777" r="48.0484" transform="rotate(-47.1288 114.203 147.777)" fill="url(#paint6_angular_1163_5135)"/>
</g>
<g clip-path="url(#clip2_1163_5135)">
<circle cx="116.727" cy="215.681" r="48.0484" transform="rotate(-137.129 116.727 215.681)" fill="url(#paint7_angular_1163_5135)"/>
<circle cx="101.368" cy="180.467" r="48.0484" transform="rotate(-90 101.368 180.467)" fill="url(#paint8_angular_1163_5135)"/>
<g filter="url(#filter4_i_1163_5135)">
<circle cx="114.203" cy="147.777" r="48.0484" transform="rotate(-47.1288 114.203 147.777)" fill="url(#paint9_angular_1163_5135)"/>
</g>
<g filter="url(#filter5_i_1163_5135)">
<circle cx="149.417" cy="132.419" r="48.0484" fill="url(#paint10_angular_1163_5135)"/>
</g>
<g filter="url(#filter6_i_1163_5135)">
<circle cx="182.106" cy="145.253" r="48.0484" transform="rotate(42.8712 182.106 145.253)" fill="url(#paint11_angular_1163_5135)"/>
</g>
<g filter="url(#filter7_i_1163_5135)">
<circle cx="197.464" cy="180.467" r="48.0484" transform="rotate(90 197.464 180.467)" fill="url(#paint12_angular_1163_5135)"/>
</g>
<circle cx="184.63" cy="213.157" r="48.0484" transform="rotate(132.871 184.63 213.157)" fill="url(#paint13_angular_1163_5135)"/>
</g>
<g filter="url(#filter8_f_1163_5135)">
<circle cx="149.417" cy="180.467" r="31.1803" fill="#9747FF"/>
</g>
</g>
<rect x="62.5859" y="38.5222" width="221.192" height="221.192" rx="110.596" fill="url(#paint14_linear_1163_5135)"/>
<path d="M171.095 93.5448C170.831 94.1907 170.537 94.7999 170.214 95.3724C169.891 95.9449 169.539 96.4954 169.157 97.0239C168.658 97.7285 168.203 98.3304 167.792 98.8295C167.381 99.3286 167.014 99.725 166.691 100.019C166.221 100.459 165.715 100.797 165.172 101.031C164.629 101.266 164.078 101.384 163.52 101.384C163.109 101.384 162.662 101.325 162.177 101.208C161.693 101.09 161.157 100.914 160.57 100.679C160.012 100.444 159.469 100.275 158.94 100.173C158.412 100.07 157.913 100.019 157.443 100.019C156.914 100.019 156.386 100.07 155.858 100.173C155.329 100.275 154.771 100.444 154.184 100.679C153.597 100.914 153.068 101.098 152.599 101.23C152.129 101.362 151.718 101.428 151.366 101.428C150.837 101.457 150.301 101.354 149.758 101.12C149.215 100.885 148.664 100.518 148.107 100.019C147.784 99.6956 147.402 99.2773 146.962 98.7635C146.521 98.2497 146.051 97.6258 145.552 96.8918C144.994 96.1284 144.488 95.2917 144.033 94.3815C143.578 93.4714 143.16 92.5025 142.778 91.4749C142.396 90.3593 142.11 89.2583 141.919 88.172C141.728 87.0857 141.633 86.0287 141.633 85.0011C141.633 83.7974 141.765 82.6817 142.029 81.6541C142.293 80.6266 142.69 79.6724 143.218 78.7916C143.629 78.1163 144.099 77.4998 144.627 76.9419C145.156 76.3841 145.758 75.9143 146.433 75.5327C147.138 75.1216 147.85 74.8134 148.569 74.6078C149.288 74.4023 150.044 74.2849 150.837 74.2555C151.277 74.2555 151.784 74.3216 152.356 74.4537C152.929 74.5858 153.567 74.784 154.272 75.0482C154.947 75.3125 155.513 75.5106 155.968 75.6428C156.423 75.7749 156.753 75.8409 156.959 75.8409C157.105 75.8409 157.428 75.7675 157.927 75.6207C158.427 75.474 159.102 75.2391 159.953 74.9161C160.746 74.6225 161.48 74.417 162.155 74.2996C162.83 74.1821 163.447 74.1528 164.005 74.2115C165.502 74.3289 166.816 74.6812 167.946 75.2684C169.077 75.8556 170.024 76.6924 170.787 77.7787C169.436 78.5714 168.431 79.5403 167.77 80.6853C167.11 81.8303 166.779 83.1368 166.779 84.6048C166.779 85.7498 166.992 86.7921 167.418 87.7316C167.844 88.6711 168.453 89.5225 169.246 90.2859C169.627 90.6382 170.024 90.9465 170.435 91.2107C170.846 91.4749 171.271 91.7098 171.712 91.9153C171.624 92.1796 171.528 92.4511 171.425 92.7301C171.323 93.009 171.213 93.2805 171.095 93.5448Z" fill="url(#paint15_radial_1163_5135)"/>
<g opacity="0.5">
<mask id="mask0_1163_5135" style="mask-type:alpha" maskUnits="userSpaceOnUse" x="141" y="74" width="31" height="28">
<path d="M171.045 93.5448C170.781 94.1907 170.488 94.7999 170.165 95.3724C169.842 95.9449 169.489 96.4954 169.108 97.0239C168.609 97.7285 168.153 98.3304 167.742 98.8295C167.331 99.3286 166.964 99.725 166.641 100.019C166.172 100.459 165.665 100.797 165.122 101.031C164.579 101.266 164.028 101.384 163.471 101.384C163.06 101.384 162.612 101.325 162.127 101.208C161.643 101.09 161.107 100.914 160.52 100.679C159.962 100.444 159.419 100.275 158.89 100.173C158.362 100.07 157.863 100.019 157.393 100.019C156.865 100.019 156.336 100.07 155.808 100.173C155.279 100.275 154.721 100.444 154.134 100.679C153.547 100.914 153.019 101.098 152.549 101.23C152.079 101.362 151.668 101.428 151.316 101.428C150.787 101.457 150.251 101.354 149.708 101.12C149.165 100.885 148.615 100.518 148.057 100.019C147.734 99.6956 147.352 99.2773 146.912 98.7635C146.471 98.2497 146.002 97.6258 145.503 96.8918C144.945 96.1284 144.438 95.2917 143.983 94.3815C143.528 93.4714 143.11 92.5025 142.728 91.4749C142.346 90.3593 142.06 89.2583 141.869 88.172C141.678 87.0857 141.583 86.0287 141.583 85.0011C141.583 83.7974 141.715 82.6817 141.979 81.6541C142.244 80.6266 142.64 79.6724 143.168 78.7916C143.579 78.1163 144.049 77.4998 144.578 76.9419C145.106 76.3841 145.708 75.9143 146.383 75.5327C147.088 75.1216 147.8 74.8134 148.519 74.6078C149.239 74.4023 149.995 74.2849 150.787 74.2555C151.228 74.2555 151.734 74.3216 152.307 74.4537C152.879 74.5858 153.518 74.784 154.222 75.0482C154.898 75.3125 155.463 75.5106 155.918 75.6428C156.373 75.7749 156.703 75.8409 156.909 75.8409C157.056 75.8409 157.378 75.7675 157.878 75.6207C158.377 75.474 159.052 75.2391 159.903 74.9161C160.696 74.6225 161.43 74.417 162.105 74.2996C162.781 74.1821 163.397 74.1528 163.955 74.2115C165.452 74.3289 166.766 74.6812 167.897 75.2684C169.027 75.8556 169.974 76.6924 170.737 77.7787C169.387 78.5714 168.381 79.5403 167.72 80.6853C167.06 81.8303 166.73 83.1368 166.73 84.6048C166.73 85.7498 166.942 86.7921 167.368 87.7316C167.794 88.6711 168.403 89.5225 169.196 90.2859C169.577 90.6382 169.974 90.9465 170.385 91.2107C170.796 91.4749 171.222 91.7098 171.662 91.9153C171.574 92.1796 171.478 92.4511 171.376 92.7301C171.273 93.009 171.163 93.2805 171.045 93.5448Z" fill="#303638"/>
</mask>
<g mask="url(#mask0_1163_5135)">
<g opacity="0.7" filter="url(#filter9_i_1163_5135)">
<circle cx="169.978" cy="84.9272" r="7.19261" fill="url(#paint16_linear_1163_5135)"/>
</g>
</g>
</g>
<mask id="mask1_1163_5135" style="mask-type:alpha" maskUnits="userSpaceOnUse" x="156" y="65" width="9" height="10">
<path d="M164.225 66.4606C164.225 67.3414 164.056 68.2001 163.719 69.0369C163.381 69.8736 162.889 70.6737 162.243 71.437C161.451 72.3472 160.592 73.0518 159.667 73.5509C158.742 74.05 157.766 74.2556 156.738 74.1675C156.709 74.05 156.694 73.9399 156.694 73.8372C156.694 73.7344 156.694 73.6243 156.694 73.5069C156.694 72.6261 156.87 71.7453 157.223 70.8645C157.575 69.9837 158.089 69.1764 158.764 68.4424C159.087 68.0607 159.461 67.7084 159.887 67.3854C160.313 67.0625 160.775 66.7835 161.274 66.5487C161.803 66.2844 162.302 66.0862 162.772 65.9541C163.242 65.822 163.711 65.7413 164.181 65.7119C164.181 65.8294 164.188 65.9541 164.203 66.0862C164.218 66.2184 164.225 66.3431 164.225 66.4606Z" fill="#303638"/>
</mask>
<g mask="url(#mask1_1163_5135)">
<path d="M164.225 66.4606C164.225 67.3414 164.056 68.2001 163.719 69.0369C163.381 69.8736 162.889 70.6737 162.243 71.437C161.451 72.3472 160.592 73.0518 159.667 73.5509C158.742 74.05 157.766 74.2556 156.738 74.1675C156.709 74.05 156.694 73.9399 156.694 73.8372C156.694 73.7344 156.694 73.6243 156.694 73.5069C156.694 72.6261 156.87 71.7453 157.223 70.8645C157.575 69.9837 158.089 69.1764 158.764 68.4424C159.087 68.0607 159.461 67.7084 159.887 67.3854C160.313 67.0625 160.775 66.7835 161.274 66.5487C161.803 66.2844 162.302 66.0862 162.772 65.9541C163.242 65.822 163.711 65.7413 164.181 65.7119C164.181 65.8294 164.188 65.9541 164.203 66.0862C164.218 66.2184 164.225 66.3431 164.225 66.4606Z" fill="white"/>
<path opacity="0.5" d="M167.068 68.3283C167.068 69.6754 166.81 70.9888 166.294 72.2685C165.777 73.5482 165.025 74.7718 164.037 75.9393C162.825 77.3313 161.512 78.409 160.097 79.1723C158.683 79.9357 157.19 80.25 155.618 80.1153C155.573 79.9357 155.551 79.7673 155.551 79.6101C155.551 79.453 155.551 79.2846 155.551 79.105C155.551 77.7579 155.82 76.4108 156.359 75.0637C156.898 73.7166 157.684 72.4818 158.716 71.3592C159.21 70.7755 159.783 70.2366 160.434 69.7427C161.085 69.2488 161.792 68.8222 162.556 68.463C163.364 68.0588 164.127 67.7557 164.846 67.5537C165.564 67.3516 166.283 67.2281 167.001 67.1832C167.001 67.3628 167.012 67.5537 167.035 67.7557C167.057 67.9578 167.068 68.1486 167.068 68.3283Z" fill="url(#paint17_linear_1163_5135)"/>
<g opacity="0.2">
<g filter="url(#filter10_f_1163_5135)">
<path d="M159.711 70.3295C158.328 71.2918 156.564 74.0123 156.331 74.6922H157.028C157.704 72.8573 159.006 70.9846 159.711 70.3295Z" fill="white"/>
</g>
<g filter="url(#filter11_f_1163_5135)">
<path d="M159.711 70.3295C158.328 71.2918 156.564 74.0123 156.331 74.6922H157.028C157.704 72.8573 159.006 70.9846 159.711 70.3295Z" fill="white"/>
</g>
</g>
</g>
<path d="M185.527 102.947L185.526 102.947C185.459 102.977 185.411 103.035 185.393 103.103L182.622 113.279C182.419 114.025 183.135 114.706 183.85 114.447C186.33 113.548 188.255 113.363 189.853 113.591C191.451 113.819 192.736 114.463 193.934 115.244C194.455 115.583 195.146 115.319 195.315 114.709L198.161 104.378C198.267 103.994 198.128 103.575 197.8 103.35C196.422 102.408 194.92 101.62 192.972 101.415C191.026 101.21 188.651 101.588 185.527 102.947ZM192.525 99.4051L192.525 99.4051C194.675 99.4218 196.295 100.203 197.766 101.168C198.286 101.509 198.979 101.245 199.147 100.633L201.951 90.4168C202.057 90.0322 201.917 89.6132 201.59 89.3884C200.235 88.4604 198.764 87.6584 196.867 87.4135C194.97 87.1686 192.664 87.4824 189.64 88.7546C189.383 88.8626 189.19 89.0902 189.116 89.3629L186.403 99.2884C186.2 100.033 186.911 100.718 187.626 100.449C189.561 99.7241 191.153 99.3937 192.525 99.4051ZM210.944 106.354C208.4 107.127 206.467 107.273 204.878 107.038C203.289 106.803 202.033 106.185 200.841 105.413C200.32 105.075 199.628 105.338 199.46 105.949L196.654 116.151C196.548 116.535 196.687 116.954 197.015 117.179C198.368 118.108 199.837 118.91 201.733 119.155C203.628 119.4 205.933 119.086 208.955 117.814C209.212 117.706 209.405 117.478 209.48 117.205L212.113 107.531C212.309 106.812 211.647 106.14 210.944 106.354ZM214.736 92.2895C212.26 93.1876 210.328 93.3826 208.722 93.1653C207.116 92.9482 205.822 92.3173 204.624 91.5429C204.102 91.2055 203.409 91.4699 203.242 92.0823L200.434 102.364C200.329 102.747 200.468 103.166 200.796 103.389C202.161 104.32 203.692 105.13 205.617 105.372C207.543 105.613 209.846 105.284 212.752 103.963C212.998 103.852 213.18 103.63 213.252 103.366L215.964 93.4587C216.168 92.7124 215.452 92.0299 214.736 92.2895Z" fill="white" stroke="white" stroke-width="0.296239"/>
<path d="M227.815 128.122L227.351 129.885L225.077 131.644L221.473 134.553L219.992 137.483L220.314 142.411L223.708 145.422L229.687 147.357L236.352 145.855L240.54 141.472L236.533 134.104L235.892 130.487L227.815 128.122Z" fill="#ECEFF1"/>
<path d="M240.12 136.845C239.137 134.614 238.225 133.155 238.256 130.753C238.288 128.351 238.961 129.234 238.991 127.165C239.019 126.093 238.756 125.259 238.444 124.576C238.036 123.862 237.459 123.342 237.097 123.142C236.351 122.485 234.521 121.227 231.673 121.47C228.728 121.681 228.286 124.033 227.282 128.781C227.185 129.083 226.967 129.428 226.676 129.667C226.071 130.219 225.201 130.603 224.452 130.943C223.533 131.477 222.615 132.011 221.865 132.684C220.147 134.041 218.38 135.88 218.401 136.802C218.908 136.883 222.644 146.076 222.595 146.227C223.005 146.276 224.645 146.807 226.091 147.275C228.141 147.855 229.322 148.154 230.864 148.986C230.937 148.76 230.914 148.503 230.987 148.277C231.133 147.826 231.351 147.48 231.618 146.985C231.837 146.639 232.055 146.294 232.298 145.874C231.114 146.239 229.134 146.43 227.422 146.125C225.902 145.883 223.613 144.727 222.822 143.223C222.918 143.254 223.111 143.316 223.232 143.272C223.545 143.291 223.859 143.309 224.004 143.19C224.415 142.907 224.344 142.468 224.225 142.18C224.105 141.892 222.926 140.595 222.397 139.925C221.869 139.255 221.556 138.904 221.268 138.478C221.268 138.478 220.835 137.839 220.691 137.626C220.547 137.413 220.499 137.232 220.427 137.125C220.356 136.686 220.406 136.203 220.697 135.632C221.062 134.836 221.667 134.283 222.392 133.686C222.683 133.447 223.36 133.001 223.36 133.001C223.36 133.001 220.697 135.632 221.248 136.892C221.248 136.892 221.662 135.945 222.364 135.091C222.873 134.507 223.671 133.684 224.421 133.344C225.17 133.005 227.25 131.515 227.736 130.342C227.907 129.815 228.173 129.319 228.295 128.943C228.007 128.517 235.001 129.949 235.119 130.902C235.118 131.234 235.591 134.381 235.899 136.061C236.066 136.864 236.353 137.622 236.399 138.468C236.42 139.39 236.247 140.582 235.882 141.711C235.809 141.937 235.687 142.313 235.469 142.658C235.662 142.721 240.446 140.776 236.863 136.706C236.863 136.706 239.246 138.558 238.709 140.547C238.294 142.159 237.012 143.158 236.746 143.321C236.842 143.352 238.552 144.654 238.648 144.685C239.034 144.81 239.878 144.834 239.878 144.834C240.048 144.639 240.532 144.131 240.605 143.905C241.841 142.392 241.103 139.076 240.12 136.845Z" fill="#263238"/>
<path d="M229.482 127.913C230.175 128.137 230.954 127.644 231.223 126.813C231.492 125.981 231.149 125.126 230.457 124.902C229.764 124.677 228.985 125.17 228.716 126.001C228.447 126.833 228.79 127.689 229.482 127.913Z" fill="#ECEFF1"/>
<path d="M233.773 129.468C234.678 129.761 235.663 129.223 235.972 128.267C236.282 127.311 235.799 126.298 234.893 126.005C233.988 125.712 233.003 126.249 232.694 127.206C232.384 128.162 232.867 129.175 233.773 129.468Z" fill="#ECEFF1"/>
<path d="M230.636 126.737C230.716 126.216 230.471 125.726 230.089 125.643C229.708 125.56 229.333 125.915 229.253 126.436C229.173 126.956 229.418 127.446 229.799 127.529C230.181 127.613 230.555 127.258 230.636 126.737Z" fill="#212121"/>
<path d="M233.821 128.985C234.354 129.157 234.927 128.859 235.102 128.318C235.277 127.778 234.987 127.2 234.455 127.028C233.922 126.855 233.348 127.154 233.174 127.694C232.999 128.235 233.289 128.813 233.821 128.985Z" fill="#212121"/>
<path d="M241.604 148.719C241.267 148.444 240.665 147.999 240.306 147.135C240.138 146.665 240.576 145.642 240.24 145.034C240.048 144.639 239.613 144.665 239.517 144.634C238.6 144.504 236.234 144.902 235.274 143.261C235.13 143.048 234.914 142.728 234.431 142.572C233.949 142.416 233.708 142.504 233.417 142.743C233.127 142.982 233.054 143.208 232.81 143.96C232.615 144.563 232.396 145.24 232.129 145.736C231.522 146.953 230.989 147.613 230.745 148.365C230.477 149.193 230.596 149.814 230.909 150.165C231.125 150.484 231.558 150.791 232.619 151.134C233.68 151.477 234.453 151.395 235.298 151.086C235.902 150.866 236.337 150.84 237.93 150.524C239.162 150.341 241.02 150.194 241.383 150.061C241.624 149.973 241.938 149.992 242.084 149.54C242.206 149.163 241.869 148.888 241.604 148.719Z" fill="#868686"/>
<path d="M222.147 142.672C221.572 141.155 221.549 140.898 221.118 139.927C220.783 138.987 219.992 137.151 219.22 136.901C218.642 136.714 218.279 136.846 217.796 137.022C217.313 137.199 216.708 137.751 215.911 137.909C215.211 138.098 213.596 137.493 213.064 137.82C212.532 138.146 213.084 139.074 212.719 140.203C212.572 140.655 211.993 140.8 211.799 141.07C211.581 141.415 211.411 141.609 211.507 141.973C211.746 142.549 212.18 142.856 215.288 144.444C216.926 145.307 218.322 146.59 219.358 147.009C220.395 147.428 222.251 147.945 222.909 145.913C223.395 144.739 222.625 144.157 222.147 142.672Z" fill="#868686"/>
<path d="M228.39 129.639C227.909 129.15 227.524 128.693 227.67 128.242C227.816 127.79 228.251 127.764 228.951 127.575C229.072 127.531 230.376 127.121 231.437 127.465C232.498 127.808 233.581 128.741 234.014 129.047C234.834 129.479 235.653 129.91 235.386 130.406C235.046 131.128 234.901 131.247 233.814 131.311C233.091 131.243 231.569 131.666 230.701 131.385C230.315 131.26 229.737 131.073 229.375 130.873C229.111 130.704 228.75 130.171 228.39 129.639Z" fill="#868686"/>
<path d="M228.393 128.974C228.538 129.187 228.778 129.431 229.043 129.6C229.212 129.738 229.476 129.907 229.476 129.907C229.862 130.032 230.151 130.125 230.344 130.188C230.827 130.344 231.55 130.412 232.323 130.329C233.071 130.322 233.216 130.202 233.747 130.208C234.302 130.138 234.857 130.068 234.689 129.931C234.52 129.793 234.303 129.806 233.531 129.888C232.855 130.002 232.324 129.997 231.672 130.035C231.358 130.017 230.924 130.043 230.635 129.949C230.345 129.856 230.056 129.762 229.767 129.668C229.477 129.575 229.309 129.437 229.044 129.268C228.876 129.13 228.803 129.024 228.707 128.993C228.539 128.855 228.25 128.429 228.082 128.291C228.082 128.291 227.889 128.229 227.961 128.335C228.177 128.655 228.249 128.761 228.393 128.974Z" fill="#7A7A7A"/>
<path d="M231.822 128.254C231.87 128.436 232.062 128.498 232.135 128.605C232.207 128.711 232.303 128.743 232.303 128.743C232.424 128.699 232.376 128.517 232.28 128.486C232.328 128.335 231.846 128.179 231.822 128.254Z" fill="#7A7A7A"/>
<path d="M230.231 127.906C230.206 127.981 230.375 128.119 230.399 128.043C230.52 127.999 230.641 127.955 230.737 127.986C230.954 127.973 230.882 127.867 230.593 127.773C230.376 127.786 230.351 127.861 230.231 127.906Z" fill="#7A7A7A"/>
<path d="M235.272 144.258C235.247 144.333 235.223 144.408 235.198 144.484C235.294 144.847 235.752 145.078 236.137 145.203C236.716 145.391 237.392 145.277 237.779 145.069C237.803 144.994 237.924 144.95 238.045 144.906C238.311 144.742 238.456 144.623 238.577 144.579C238.577 144.579 238.505 144.472 238.529 144.397C238.481 144.215 238.241 143.971 237.879 143.771C237.614 143.602 237.157 143.371 236.964 143.308C236.12 142.952 235.565 143.022 235.203 143.154C235.203 143.154 235.299 143.185 235.275 143.261C235.419 143.474 235.466 143.655 235.393 143.881C235.441 144.063 235.32 144.107 235.272 144.258Z" fill="#455A64"/>
<g filter="url(#filter12_f_1163_5135)">
<path d="M225.038 213.811C221.239 194.211 203.987 179.418 183.267 179.418C162.548 179.418 145.296 194.211 141.497 213.811C140.673 218.041 144.017 221.964 148.321 221.964H218.201C222.518 221.964 225.85 218.053 225.026 213.811H225.038Z" fill="url(#paint18_linear_1163_5135)"/>
<path d="M183.268 169.421C194.935 169.421 204.393 159.963 204.393 148.296C204.393 136.629 194.935 127.171 183.268 127.171C171.601 127.171 162.143 136.629 162.143 148.296C162.143 159.963 171.601 169.421 183.268 169.421Z" fill="url(#paint19_linear_1163_5135)"/>
</g>
<path d="M225.038 213.811C221.239 194.211 203.987 179.418 183.267 179.418C162.548 179.418 145.296 194.211 141.497 213.811C140.673 218.041 144.017 221.964 148.321 221.964H218.201C222.518 221.964 225.85 218.053 225.026 213.811H225.038Z" fill="url(#paint20_linear_1163_5135)"/>
<path d="M183.268 169.421C194.935 169.421 204.393 159.963 204.393 148.296C204.393 136.629 194.935 127.171 183.268 127.171C171.601 127.171 162.143 136.629 162.143 148.296C162.143 159.963 171.601 169.421 183.268 169.421Z" fill="url(#paint21_linear_1163_5135)"/>
<g filter="url(#filter13_b_1163_5135)">
<path d="M167.269 211.745C162.498 187.177 140.869 168.622 114.899 168.622C88.9291 168.622 67.2997 187.177 62.5287 211.745C61.4958 217.057 65.6766 221.964 71.087 221.964H158.699C164.109 221.964 168.29 217.057 167.257 211.745H167.269Z" fill="url(#paint22_linear_1163_5135)"/>
<path d="M114.899 169.379C140.181 169.379 161.291 187.218 166.343 210.988H166.338L166.514 211.89C167.453 216.718 163.65 221.206 158.699 221.206H71.087C66.1359 221.206 62.3333 216.718 63.2721 211.89L63.2721 211.89C67.9754 187.671 89.2986 169.379 114.899 169.379Z" stroke="url(#paint23_linear_1163_5135)" stroke-width="1.5147"/>
</g>
<g filter="url(#filter14_b_1163_5135)">
<path d="M120.963 155.387C135.193 152.028 144.007 137.77 140.648 123.539C137.289 109.309 123.031 100.496 108.8 103.855C94.5701 107.213 85.7569 121.472 89.1156 135.702C92.4742 149.932 106.733 158.746 120.963 155.387Z" fill="url(#paint24_linear_1163_5135)"/>
<path d="M139.911 123.713C143.173 137.537 134.612 151.387 120.789 154.65C106.966 157.912 93.1152 149.351 89.8527 135.528C86.5901 121.705 95.1512 107.854 108.974 104.592C122.798 101.329 136.648 109.89 139.911 123.713Z" stroke="url(#paint25_linear_1163_5135)" stroke-width="1.5147"/>
</g>
</g>
<defs>
<filter id="filter0_f_1163_5135" x="-61.6273" y="-30.5767" width="422.088" height="430.67" filterUnits="userSpaceOnUse" color-interpolation-filters="sRGB">
<feFlood flood-opacity="0" result="BackgroundImageFix"/>
<feBlend mode="normal" in="SourceGraphic" in2="BackgroundImageFix" result="shape"/>
<feGaussianBlur stdDeviation="54.0231" result="effect1_foregroundBlur_1163_5135"/>
</filter>
<filter id="filter1_i_1163_5135" x="149.416" y="131.396" width="96.0967" height="97.1191" filterUnits="userSpaceOnUse" color-interpolation-filters="sRGB">
<feFlood flood-opacity="0" result="BackgroundImageFix"/>
<feBlend mode="normal" in="SourceGraphic" in2="BackgroundImageFix" result="shape"/>
<feColorMatrix in="SourceAlpha" type="matrix" values="0 0 0 0 0 0 0 0 0 0 0 0 0 0 0 0 0 0 127 0" result="hardAlpha"/>
<feOffset dy="-1.53346"/>
<feGaussianBlur stdDeviation="0.511153"/>
<feComposite in2="hardAlpha" operator="arithmetic" k2="-1" k3="1"/>
<feColorMatrix type="matrix" values="0 0 0 0 1 0 0 0 0 1 0 0 0 0 1 0 0 0 0.21 0"/>
<feBlend mode="normal" in2="shape" result="effect1_innerShadow_1163_5135"/>
</filter>
<filter id="filter2_i_1163_5135" x="101.368" y="179.445" width="96.0967" height="97.1191" filterUnits="userSpaceOnUse" color-interpolation-filters="sRGB">
<feFlood flood-opacity="0" result="BackgroundImageFix"/>
<feBlend mode="normal" in="SourceGraphic" in2="BackgroundImageFix" result="shape"/>
<feColorMatrix in="SourceAlpha" type="matrix" values="0 0 0 0 0 0 0 0 0 0 0 0 0 0 0 0 0 0 127 0" result="hardAlpha"/>
<feOffset dy="-1.53346"/>
<feGaussianBlur stdDeviation="0.511153"/>
<feComposite in2="hardAlpha" operator="arithmetic" k2="-1" k3="1"/>
<feColorMatrix type="matrix" values="0 0 0 0 1 0 0 0 0 1 0 0 0 0 1 0 0 0 0.21 0"/>
<feBlend mode="normal" in2="shape" result="effect1_innerShadow_1163_5135"/>
</filter>
<filter id="filter3_i_1163_5135" x="53.3193" y="131.396" width="96.0967" height="97.1191" filterUnits="userSpaceOnUse" color-interpolation-filters="sRGB">
<feFlood flood-opacity="0" result="BackgroundImageFix"/>
<feBlend mode="normal" in="SourceGraphic" in2="BackgroundImageFix" result="shape"/>
<feColorMatrix in="SourceAlpha" type="matrix" values="0 0 0 0 0 0 0 0 0 0 0 0 0 0 0 0 0 0 127 0" result="hardAlpha"/>
<feOffset dy="-1.53346"/>
<feGaussianBlur stdDeviation="0.511153"/>
<feComposite in2="hardAlpha" operator="arithmetic" k2="-1" k3="1"/>
<feColorMatrix type="matrix" values="0 0 0 0 1 0 0 0 0 1 0 0 0 0 1 0 0 0 0.21 0"/>
<feBlend mode="normal" in2="shape" result="effect1_innerShadow_1163_5135"/>
</filter>
<filter id="filter4_i_1163_5135" x="66.1543" y="99.7284" width="96.0967" height="97.1196" filterUnits="userSpaceOnUse" color-interpolation-filters="sRGB">
<feFlood flood-opacity="0" result="BackgroundImageFix"/>
<feBlend mode="normal" in="SourceGraphic" in2="BackgroundImageFix" result="shape"/>
<feColorMatrix in="SourceAlpha" type="matrix" values="0 0 0 0 0 0 0 0 0 0 0 0 0 0 0 0 0 0 127 0" result="hardAlpha"/>
<feOffset dy="1.53346"/>
<feGaussianBlur stdDeviation="0.511153"/>
<feComposite in2="hardAlpha" operator="arithmetic" k2="-1" k3="1"/>
<feColorMatrix type="matrix" values="0 0 0 0 1 0 0 0 0 1 0 0 0 0 1 0 0 0 0.21 0"/>
<feBlend mode="normal" in2="shape" result="effect1_innerShadow_1163_5135"/>
</filter>
<filter id="filter5_i_1163_5135" x="101.368" y="84.3701" width="96.0967" height="97.1191" filterUnits="userSpaceOnUse" color-interpolation-filters="sRGB">
<feFlood flood-opacity="0" result="BackgroundImageFix"/>
<feBlend mode="normal" in="SourceGraphic" in2="BackgroundImageFix" result="shape"/>
<feColorMatrix in="SourceAlpha" type="matrix" values="0 0 0 0 0 0 0 0 0 0 0 0 0 0 0 0 0 0 127 0" result="hardAlpha"/>
<feOffset dy="1.53346"/>
<feGaussianBlur stdDeviation="0.511153"/>
<feComposite in2="hardAlpha" operator="arithmetic" k2="-1" k3="1"/>
<feColorMatrix type="matrix" values="0 0 0 0 1 0 0 0 0 1 0 0 0 0 1 0 0 0 0.21 0"/>
<feBlend mode="normal" in2="shape" result="effect1_innerShadow_1163_5135"/>
</filter>
<filter id="filter6_i_1163_5135" x="134.058" y="97.2042" width="96.0967" height="97.1195" filterUnits="userSpaceOnUse" color-interpolation-filters="sRGB">
<feFlood flood-opacity="0" result="BackgroundImageFix"/>
<feBlend mode="normal" in="SourceGraphic" in2="BackgroundImageFix" result="shape"/>
<feColorMatrix in="SourceAlpha" type="matrix" values="0 0 0 0 0 0 0 0 0 0 0 0 0 0 0 0 0 0 127 0" result="hardAlpha"/>
<feOffset dy="1.53346"/>
<feGaussianBlur stdDeviation="0.511153"/>
<feComposite in2="hardAlpha" operator="arithmetic" k2="-1" k3="1"/>
<feColorMatrix type="matrix" values="0 0 0 0 1 0 0 0 0 1 0 0 0 0 1 0 0 0 0.21 0"/>
<feBlend mode="normal" in2="shape" result="effect1_innerShadow_1163_5135"/>
</filter>
<filter id="filter7_i_1163_5135" x="149.416" y="132.419" width="96.0967" height="97.1191" filterUnits="userSpaceOnUse" color-interpolation-filters="sRGB">
<feFlood flood-opacity="0" result="BackgroundImageFix"/>
<feBlend mode="normal" in="SourceGraphic" in2="BackgroundImageFix" result="shape"/>
<feColorMatrix in="SourceAlpha" type="matrix" values="0 0 0 0 0 0 0 0 0 0 0 0 0 0 0 0 0 0 127 0" result="hardAlpha"/>
<feOffset dy="1.53346"/>
<feGaussianBlur stdDeviation="0.511153"/>
<feComposite in2="hardAlpha" operator="arithmetic" k2="-1" k3="1"/>
<feColorMatrix type="matrix" values="0 0 0 0 1 0 0 0 0 1 0 0 0 0 1 0 0 0 0.21 0"/>
<feBlend mode="normal" in2="shape" result="effect1_innerShadow_1163_5135"/>
</filter>
<filter id="filter8_f_1163_5135" x="99.8348" y="130.885" width="99.1634" height="99.1637" filterUnits="userSpaceOnUse" color-interpolation-filters="sRGB">
<feFlood flood-opacity="0" result="BackgroundImageFix"/>
<feBlend mode="normal" in="SourceGraphic" in2="BackgroundImageFix" result="shape"/>
<feGaussianBlur stdDeviation="9.20076" result="effect1_foregroundBlur_1163_5135"/>
</filter>
<filter id="filter9_i_1163_5135" x="162.785" y="77.7346" width="15.0304" height="15.0309" filterUnits="userSpaceOnUse" color-interpolation-filters="sRGB">
<feFlood flood-opacity="0" result="BackgroundImageFix"/>
<feBlend mode="normal" in="SourceGraphic" in2="BackgroundImageFix" result="shape"/>
<feColorMatrix in="SourceAlpha" type="matrix" values="0 0 0 0 0 0 0 0 0 0 0 0 0 0 0 0 0 0 127 0" result="hardAlpha"/>
<feOffset dx="1.79336" dy="2.58244"/>
<feGaussianBlur stdDeviation="0.322805"/>
<feComposite in2="hardAlpha" operator="arithmetic" k2="-1" k3="1"/>
<feColorMatrix type="matrix" values="0 0 0 0 0 0 0 0 0 0 0 0 0 0 0 0 0 0 0.13 0"/>
<feBlend mode="normal" in2="shape" result="effect1_innerShadow_1163_5135"/>
</filter>
<filter id="filter10_f_1163_5135" x="155.183" y="69.1817" width="5.67538" height="6.65829" filterUnits="userSpaceOnUse" color-interpolation-filters="sRGB">
<feFlood flood-opacity="0" result="BackgroundImageFix"/>
<feBlend mode="normal" in="SourceGraphic" in2="BackgroundImageFix" result="shape"/>
<feGaussianBlur stdDeviation="0.573875" result="effect1_foregroundBlur_1163_5135"/>
</filter>
<filter id="filter11_f_1163_5135" x="155.829" y="69.8273" width="4.38416" height="5.36707" filterUnits="userSpaceOnUse" color-interpolation-filters="sRGB">
<feFlood flood-opacity="0" result="BackgroundImageFix"/>
<feBlend mode="normal" in="SourceGraphic" in2="BackgroundImageFix" result="shape"/>
<feGaussianBlur stdDeviation="0.25107" result="effect1_foregroundBlur_1163_5135"/>
</filter>
<filter id="filter12_f_1163_5135" x="74.7241" y="60.5237" width="217.074" height="228.087" filterUnits="userSpaceOnUse" color-interpolation-filters="sRGB">
<feFlood flood-opacity="0" result="BackgroundImageFix"/>
<feBlend mode="normal" in="SourceGraphic" in2="BackgroundImageFix" result="shape"/>
<feGaussianBlur stdDeviation="33.3235" result="effect1_foregroundBlur_1163_5135"/>
</filter>
<filter id="filter13_b_1163_5135" x="48.7388" y="154.989" width="132.309" height="80.6066" filterUnits="userSpaceOnUse" color-interpolation-filters="sRGB">
<feFlood flood-opacity="0" result="BackgroundImageFix"/>
<feGaussianBlur in="BackgroundImageFix" stdDeviation="6.81617"/>
<feComposite in2="SourceAlpha" operator="in" result="effect1_backgroundBlur_1163_5135"/>
<feBlend mode="normal" in="SourceGraphic" in2="effect1_backgroundBlur_1163_5135" result="shape"/>
</filter>
<filter id="filter14_b_1163_5135" x="74.769" y="89.5083" width="80.2256" height="80.225" filterUnits="userSpaceOnUse" color-interpolation-filters="sRGB">
<feFlood flood-opacity="0" result="BackgroundImageFix"/>
<feGaussianBlur in="BackgroundImageFix" stdDeviation="6.81617"/>
<feComposite in2="SourceAlpha" operator="in" result="effect1_backgroundBlur_1163_5135"/>
<feBlend mode="normal" in="SourceGraphic" in2="effect1_backgroundBlur_1163_5135" result="shape"/>
</filter>
<radialGradient id="paint0_angular_1163_5135" cx="0" cy="0" r="1" gradientUnits="userSpaceOnUse" gradientTransform="translate(182.106 145.253) rotate(90) scale(48.0484)">
<stop stop-color="#9747FF"/>
<stop offset="0.685417"/>
</radialGradient>
<radialGradient id="paint1_angular_1163_5135" cx="0" cy="0" r="1" gradientUnits="userSpaceOnUse" gradientTransform="translate(197.464 180.467) rotate(90) scale(48.0484)">
<stop stop-color="#9747FF"/>
<stop offset="0.685417"/>
</radialGradient>
<radialGradient id="paint2_angular_1163_5135" cx="0" cy="0" r="1" gradientUnits="userSpaceOnUse" gradientTransform="translate(184.63 213.157) rotate(90) scale(48.0484)">
<stop stop-color="#9747FF"/>
<stop offset="0.685417"/>
</radialGradient>
<radialGradient id="paint3_angular_1163_5135" cx="0" cy="0" r="1" gradientUnits="userSpaceOnUse" gradientTransform="translate(149.416 228.515) rotate(90) scale(48.0484)">
<stop stop-color="#9747FF"/>
<stop offset="0.685417"/>
</radialGradient>
<radialGradient id="paint4_angular_1163_5135" cx="0" cy="0" r="1" gradientUnits="userSpaceOnUse" gradientTransform="translate(116.727 215.681) rotate(90) scale(48.0484)">
<stop stop-color="#9747FF"/>
<stop offset="0.685417"/>
</radialGradient>
<radialGradient id="paint5_angular_1163_5135" cx="0" cy="0" r="1" gradientUnits="userSpaceOnUse" gradientTransform="translate(101.368 180.467) rotate(90) scale(48.0484)">
<stop stop-color="#9747FF"/>
<stop offset="0.685417"/>
</radialGradient>
<radialGradient id="paint6_angular_1163_5135" cx="0" cy="0" r="1" gradientUnits="userSpaceOnUse" gradientTransform="translate(114.203 147.777) rotate(90) scale(48.0484)">
<stop stop-color="#9747FF"/>
<stop offset="0.685417"/>
</radialGradient>
<radialGradient id="paint7_angular_1163_5135" cx="0" cy="0" r="1" gradientUnits="userSpaceOnUse" gradientTransform="translate(116.727 215.681) rotate(90) scale(48.0484)">
<stop stop-color="#9747FF"/>
<stop offset="0.685417"/>
</radialGradient>
<radialGradient id="paint8_angular_1163_5135" cx="0" cy="0" r="1" gradientUnits="userSpaceOnUse" gradientTransform="translate(101.368 180.467) rotate(90) scale(48.0484)">
<stop stop-color="#9747FF"/>
<stop offset="0.685417"/>
</radialGradient>
<radialGradient id="paint9_angular_1163_5135" cx="0" cy="0" r="1" gradientUnits="userSpaceOnUse" gradientTransform="translate(114.203 147.777) rotate(90) scale(48.0484)">
<stop stop-color="#9747FF"/>
<stop offset="0.685417"/>
</radialGradient>
<radialGradient id="paint10_angular_1163_5135" cx="0" cy="0" r="1" gradientUnits="userSpaceOnUse" gradientTransform="translate(149.417 132.419) rotate(90) scale(48.0484)">
<stop stop-color="#9747FF"/>
<stop offset="0.685417"/>
</radialGradient>
<radialGradient id="paint11_angular_1163_5135" cx="0" cy="0" r="1" gradientUnits="userSpaceOnUse" gradientTransform="translate(182.106 145.253) rotate(90) scale(48.0484)">
<stop stop-color="#9747FF"/>
<stop offset="0.685417"/>
</radialGradient>
<radialGradient id="paint12_angular_1163_5135" cx="0" cy="0" r="1" gradientUnits="userSpaceOnUse" gradientTransform="translate(197.464 180.467) rotate(90) scale(48.0484)">
<stop stop-color="#9747FF"/>
<stop offset="0.685417"/>
</radialGradient>
<radialGradient id="paint13_angular_1163_5135" cx="0" cy="0" r="1" gradientUnits="userSpaceOnUse" gradientTransform="translate(184.63 213.157) rotate(90) scale(48.0484)">
<stop stop-color="#9747FF"/>
<stop offset="0.685417"/>
</radialGradient>
<linearGradient id="paint14_linear_1163_5135" x1="173.182" y1="38.5222" x2="173.182" y2="259.714" gradientUnits="userSpaceOnUse">
<stop stop-color="#5258F2"/>
<stop offset="0.717951" stop-color="#6852F2" stop-opacity="0"/>
</linearGradient>
<radialGradient id="paint15_radial_1163_5135" cx="0" cy="0" r="1" gradientUnits="userSpaceOnUse" gradientTransform="translate(147.939 78.8524) rotate(42.5559) scale(18.594 20.5239)">
<stop stop-color="white"/>
<stop offset="1" stop-color="white"/>
</radialGradient>
<linearGradient id="paint16_linear_1163_5135" x1="165.052" y1="81.9353" x2="171.217" y2="87.7378" gradientUnits="userSpaceOnUse">
<stop stop-color="white"/>
<stop offset="1" stop-color="white"/>
</linearGradient>
<linearGradient id="paint17_linear_1163_5135" x1="157.128" y1="73.806" x2="162.98" y2="69.3166" gradientUnits="userSpaceOnUse">
<stop stop-color="white"/>
<stop offset="1" stop-color="white" stop-opacity="0"/>
</linearGradient>
<linearGradient id="paint18_linear_1163_5135" x1="183.267" y1="245.376" x2="183.267" y2="117.456" gradientUnits="userSpaceOnUse">
<stop stop-color="#0027F6"/>
<stop offset="1" stop-color="#F7CBAD"/>
</linearGradient>
<linearGradient id="paint19_linear_1163_5135" x1="183.268" y1="-427.705" x2="183.268" y2="117.456" gradientUnits="userSpaceOnUse">
<stop stop-color="#F6005A"/>
<stop offset="1" stop-color="#F7CBAD"/>
</linearGradient>
<linearGradient id="paint20_linear_1163_5135" x1="183.267" y1="245.376" x2="183.267" y2="117.456" gradientUnits="userSpaceOnUse">
<stop stop-color="#1E22A0"/>
<stop offset="1" stop-color="#928FFB"/>
</linearGradient>
<linearGradient id="paint21_linear_1163_5135" x1="183.268" y1="-427.705" x2="183.268" y2="117.456" gradientUnits="userSpaceOnUse">
<stop stop-color="#F6005A"/>
<stop offset="1" stop-color="#F7CBAD"/>
</linearGradient>
<linearGradient id="paint22_linear_1163_5135" x1="68.3014" y1="218.952" x2="106.507" y2="143.715" gradientUnits="userSpaceOnUse">
<stop stop-color="white" stop-opacity="0.2"/>
<stop offset="1" stop-color="white" stop-opacity="0.49"/>
</linearGradient>
<linearGradient id="paint23_linear_1163_5135" x1="69.786" y1="172.817" x2="104.421" y2="245.745" gradientUnits="userSpaceOnUse">
<stop stop-color="white"/>
<stop offset="1" stop-color="white" stop-opacity="0"/>
</linearGradient>
<linearGradient id="paint24_linear_1163_5135" x1="97.4196" y1="157.872" x2="132.344" y2="101.369" gradientUnits="userSpaceOnUse">
<stop stop-color="white" stop-opacity="0.2"/>
<stop offset="1" stop-color="white" stop-opacity="0.49"/>
</linearGradient>
<linearGradient id="paint25_linear_1163_5135" x1="87.6284" y1="113.13" x2="141.575" y2="149.022" gradientUnits="userSpaceOnUse">
<stop stop-color="white"/>
<stop offset="1" stop-color="white" stop-opacity="0"/>
</linearGradient>
<clipPath id="clip0_1163_5135">
<rect width="328.158" height="328.158" fill="white" transform="translate(0.841797 0.920898)"/>
</clipPath>
<clipPath id="clip1_1163_5135">
<rect width="205.995" height="102.997" fill="white" transform="translate(46.4189 180.467)"/>
</clipPath>
<clipPath id="clip2_1163_5135">
<rect width="205.995" height="102.997" fill="white" transform="matrix(-1 0 0 -1 252.414 180.467)"/>
</clipPath>
</defs>
</svg>
