<svg width="330" height="330" viewBox="0 0 330 330" fill="none" xmlns="http://www.w3.org/2000/svg">
<g clip-path="url(#clip0_1163_4974)">
<g filter="url(#filter0_f_1163_4974)">
<g clip-path="url(#clip1_1163_4974)">
<circle cx="186.449" cy="149.661" r="47.7245" transform="rotate(42.8712 186.449 149.661)" fill="url(#paint0_angular_1163_4974)"/>
<g filter="url(#filter1_i_1163_4974)">
<circle cx="201.704" cy="184.638" r="47.7245" transform="rotate(90 201.704 184.638)" fill="url(#paint1_angular_1163_4974)"/>
</g>
<circle cx="188.956" cy="217.107" r="47.7245" transform="rotate(132.871 188.956 217.107)" fill="url(#paint2_angular_1163_4974)"/>
<g filter="url(#filter2_i_1163_4974)">
<circle cx="153.98" cy="232.362" r="47.7245" transform="rotate(180 153.98 232.362)" fill="url(#paint3_angular_1163_4974)"/>
</g>
<circle cx="121.511" cy="219.614" r="47.7245" transform="rotate(-137.129 121.511 219.614)" fill="url(#paint4_angular_1163_4974)"/>
<g filter="url(#filter3_i_1163_4974)">
<circle cx="106.256" cy="184.638" r="47.7245" transform="rotate(-90 106.256 184.638)" fill="url(#paint5_angular_1163_4974)"/>
</g>
<circle cx="119.003" cy="152.168" r="47.7245" transform="rotate(-47.1288 119.003 152.168)" fill="url(#paint6_angular_1163_4974)"/>
</g>
<g clip-path="url(#clip2_1163_4974)">
<circle cx="121.511" cy="219.614" r="47.7245" transform="rotate(-137.129 121.511 219.614)" fill="url(#paint7_angular_1163_4974)"/>
<circle cx="106.256" cy="184.638" r="47.7245" transform="rotate(-90 106.256 184.638)" fill="url(#paint8_angular_1163_4974)"/>
<g filter="url(#filter4_i_1163_4974)">
<circle cx="119.003" cy="152.168" r="47.7245" transform="rotate(-47.1288 119.003 152.168)" fill="url(#paint9_angular_1163_4974)"/>
</g>
<g filter="url(#filter5_i_1163_4974)">
<circle cx="153.979" cy="136.913" r="47.7245" fill="url(#paint10_angular_1163_4974)"/>
</g>
<g filter="url(#filter6_i_1163_4974)">
<circle cx="186.449" cy="149.661" r="47.7245" transform="rotate(42.8712 186.449 149.661)" fill="url(#paint11_angular_1163_4974)"/>
</g>
<g filter="url(#filter7_i_1163_4974)">
<circle cx="201.704" cy="184.638" r="47.7245" transform="rotate(90 201.704 184.638)" fill="url(#paint12_angular_1163_4974)"/>
</g>
<circle cx="188.956" cy="217.107" r="47.7245" transform="rotate(132.871 188.956 217.107)" fill="url(#paint13_angular_1163_4974)"/>
</g>
<g filter="url(#filter8_f_1163_4974)">
<circle cx="153.98" cy="184.638" r="30.9701" fill="#F37322"/>
</g>
</g>
<rect x="67.7344" y="43.6498" width="219.7" height="219.7" rx="109.85" fill="url(#paint14_linear_1163_4974)"/>
<g filter="url(#filter9_b_1163_4974)">
<path d="M161.025 218.826C196.701 218.826 225.621 189.905 225.621 154.23C225.621 118.554 196.701 89.6335 161.025 89.6335C125.349 89.6335 96.4287 118.554 96.4287 154.23C96.4287 189.905 125.349 218.826 161.025 218.826Z" fill="url(#paint15_linear_1163_4974)" fill-opacity="0.3"/>
<path d="M224.891 154.23C224.891 189.502 196.297 218.096 161.025 218.096C125.753 218.096 97.1586 189.502 97.1586 154.23C97.1586 118.957 125.753 90.3634 161.025 90.3634C196.297 90.3634 224.891 118.957 224.891 154.23Z" stroke="url(#paint16_linear_1163_4974)" stroke-opacity="0.4" stroke-width="1.4598"/>
</g>
<g filter="url(#filter10_b_1163_4974)">
<g filter="url(#filter11_b_1163_4974)">
<path d="M113.924 256.152C115.129 256.715 116.373 257.213 117.643 257.619L118.193 257.802C119.398 258.169 120.629 258.457 121.887 258.666H122.45C125.043 259.072 127.688 259.072 130.281 258.666H130.883C132.114 258.47 133.332 258.195 134.524 257.828L135.205 257.619C136.41 257.239 137.602 256.767 138.754 256.243L139.265 255.995C140.43 255.431 141.557 254.803 142.657 254.109L142.919 253.952C144.071 253.218 145.184 252.406 146.258 251.555L146.887 251.044C147.921 250.18 148.93 249.25 149.886 248.255L150.54 247.587C151.536 246.566 152.531 245.492 153.553 244.352L153.972 243.815C154.875 242.702 155.74 241.563 156.578 240.358L156.879 239.939C147.201 239.389 137.641 237.582 128.421 234.596C127.151 234.19 125.789 234.19 124.519 234.596C115.299 237.608 105.726 239.428 96.0352 239.991C100.501 246.841 106.669 252.406 113.924 256.152Z" fill="url(#paint17_linear_1163_4974)"/>
<path d="M97.5134 240.718C106.786 240.061 115.94 238.261 124.771 235.376C125.878 235.023 127.064 235.023 128.17 235.376C136.986 238.231 146.112 240.017 155.356 240.664C154.702 241.569 154.031 242.441 153.335 243.299L153.33 243.305L153.325 243.311L152.923 243.826C151.914 244.951 150.934 246.009 149.954 247.014C149.954 247.014 149.954 247.014 149.953 247.015L149.3 247.681L149.3 247.681L149.294 247.687C148.362 248.657 147.378 249.565 146.365 250.411L145.745 250.916C144.692 251.75 143.606 252.542 142.487 253.254L142.235 253.406L142.227 253.41L142.219 253.415C141.144 254.094 140.045 254.707 138.908 255.256L138.906 255.257L138.405 255.501C137.281 256.012 136.125 256.469 134.961 256.836C134.96 256.836 134.959 256.836 134.959 256.836L134.283 257.044C133.152 257.392 131.993 257.656 130.818 257.846H130.281H130.217L130.154 257.856C127.645 258.249 125.085 258.249 122.576 257.856L122.513 257.846H122.45H121.955C120.759 257.644 119.588 257.369 118.442 257.021L117.903 256.841L117.903 256.841L117.893 256.837C116.665 256.445 115.458 255.963 114.286 255.416C107.582 251.952 101.824 246.906 97.5134 240.718Z" stroke="url(#paint18_linear_1163_4974)" stroke-width="1.63992"/>
</g>
<g filter="url(#filter12_b_1163_4974)">
<path d="M49.9909 205.104C50.1087 206.374 50.2921 207.644 50.5671 208.888L50.7111 209.583C50.9992 210.787 51.3528 211.992 51.7981 213.158L52.0338 213.721C52.9767 216.157 54.2994 218.435 55.9364 220.478L56.3293 220.963C57.102 221.919 57.9532 222.823 58.8437 223.661L59.3937 224.171C60.3366 225.01 61.345 225.795 62.3927 226.516L62.8642 226.843C63.8987 227.537 64.9595 228.179 66.0465 228.768L66.4394 228.978C67.618 229.58 68.849 230.117 70.08 230.628L70.9182 230.955C72.1492 231.413 73.4326 231.833 74.7553 232.186L75.7506 232.435C77.0994 232.789 78.4745 233.09 79.9151 233.325H80.6353C81.958 233.548 83.3069 233.718 84.6951 233.836H85.3499C84.276 231.741 83.2676 229.541 82.3509 227.262C81.8009 226.083 82.0628 224.682 83.0188 223.792C83.9617 222.901 85.3892 222.731 86.5285 223.359C87.144 223.674 87.6286 224.198 87.9036 224.839C88.7024 226.738 89.5537 228.572 90.4573 230.327C91.649 232.658 94.1111 234.059 96.7303 233.876C102.008 233.509 107.246 232.736 112.393 231.558C113.048 231.387 113.519 230.837 113.585 230.169C113.663 229.501 113.323 228.86 112.733 228.559C108.281 226.542 103.868 224.329 99.5459 221.801C81.7354 211.966 66.4655 198.111 54.9411 181.322L54.7709 181.714C54.103 183.155 53.5006 184.569 52.9898 185.984V186.285C52.4529 187.725 52.0076 189.284 51.6148 190.607L51.4052 191.327C51.0385 192.702 50.7504 194.077 50.5278 195.439V196.159C50.3183 197.521 50.1873 198.896 50.1087 200.271V200.573C50.0432 201.869 50.0432 203.179 50.1087 204.475C49.9647 204.685 49.9647 204.842 49.9909 205.104Z" fill="url(#paint19_linear_1163_4974)"/>
<path d="M50.8073 205.028L50.8067 205.022C50.802 204.974 50.7994 204.943 50.7983 204.919L50.9416 204.711L50.9276 204.434C50.8635 203.165 50.8635 201.883 50.9276 200.614L50.9287 200.593V200.573V200.295C51.0062 198.948 51.1346 197.607 51.3382 196.284L51.3478 196.222V196.159V195.506C51.5644 194.193 51.8429 192.869 52.1951 191.547L52.4008 190.84C52.401 190.839 52.4012 190.839 52.4014 190.838C52.4488 190.678 52.4968 190.516 52.5454 190.351C52.9036 189.139 53.2964 187.81 53.7582 186.571L53.8098 186.433V186.285V186.128C54.1901 185.087 54.6218 184.042 55.0953 182.981C66.589 199.335 81.6467 212.852 99.1407 222.514C103.483 225.053 107.912 227.274 112.374 229.296C112.645 229.442 112.809 229.746 112.77 230.074L112.769 230.081L112.769 230.089C112.737 230.409 112.516 230.674 112.196 230.761C107.096 231.929 101.904 232.694 96.6734 233.058L96.673 233.058C94.3835 233.218 92.2304 231.993 91.1874 229.953L91.1863 229.951C90.2931 228.217 89.4507 226.402 88.6594 224.521L88.6573 224.516C88.3102 223.706 87.6973 223.039 86.913 222.635C85.4702 221.846 83.6619 222.058 82.4582 223.193C81.2458 224.324 80.913 226.096 81.598 227.588C82.3396 229.429 83.1404 231.221 83.987 232.947C82.8931 232.837 81.8236 232.694 80.7714 232.517L80.7039 232.506H80.6353H79.982C78.5934 232.276 77.2648 231.984 75.9585 231.642L75.9585 231.642L75.9494 231.639L74.9607 231.392C73.6705 231.047 72.4162 230.638 71.2103 230.189L70.3865 229.867C69.1678 229.361 67.9647 228.836 66.8189 228.251L66.4373 228.047C66.4365 228.047 66.4358 228.046 66.435 228.046C65.3735 227.47 64.3373 226.844 63.3263 226.166L62.8604 225.842L62.8572 225.84C61.8388 225.14 60.8596 224.377 59.9451 223.564L59.4057 223.064C59.405 223.063 59.4043 223.062 59.4037 223.062C58.5378 222.247 57.7131 221.371 56.967 220.448L56.9662 220.447L56.5763 219.966C54.9904 217.987 53.7104 215.781 52.7985 213.425L52.7945 213.415L52.7902 213.404L52.5595 212.853C52.1331 211.735 51.7917 210.574 51.5115 209.404L51.3699 208.722L51.37 208.722L51.3677 208.711C51.1014 207.507 50.9226 206.271 50.8073 205.028ZM49.9909 205.104L49.991 205.104L49.9909 205.104Z" stroke="url(#paint20_linear_1163_4974)" stroke-width="1.63992"/>
</g>
<g filter="url(#filter13_b_1163_4974)">
<mask id="path-23-inside-1_1163_4974" fill="white">
<path d="M126.865 122.573H126.446C118.117 125.494 110.076 129.2 102.428 133.613C85.1152 143.199 70.343 156.793 59.3555 173.255C58.6614 174.368 58.6614 175.795 59.3555 176.908C63.4546 183.443 68.287 189.48 73.7349 194.928C72.8836 188.341 72.4646 181.714 72.4777 175.088V169.522C72.5038 168.828 72.7789 168.16 73.2503 167.636C74.1146 166.746 75.4242 166.471 76.5636 166.942C77.7029 167.414 78.4363 168.54 78.4232 169.771V175.14C78.4101 183.273 79.1042 191.392 80.4924 199.407C80.7281 200.756 81.4484 201.974 82.496 202.851C88.7559 208.024 95.4479 212.66 102.494 216.694C118.903 226.516 137.329 232.448 156.37 234.046C158.963 234.151 161.373 232.71 162.525 230.392C164.935 225.468 166.939 220.374 168.523 215.135C168.72 214.52 168.484 213.852 167.96 213.485C167.423 213.132 166.729 213.145 166.218 213.538C162.119 216.537 157.889 219.326 153.515 221.893C152.166 222.665 150.791 223.386 149.403 224.119C148.722 224.473 147.936 224.564 147.19 224.355C146.064 223.975 145.265 222.967 145.16 221.788C145.042 220.609 145.645 219.47 146.679 218.894C148.002 218.187 149.312 217.453 150.608 216.694C157.719 212.595 164.45 207.88 170.75 202.616C171.679 201.843 172.308 200.782 172.557 199.617C173.919 191.51 174.574 183.299 174.534 175.088V168.566C174.521 167.44 175.137 166.405 176.132 165.882C177.127 165.358 178.319 165.436 179.249 166.078C179.891 166.615 180.283 167.401 180.323 168.239C180.323 170.452 180.48 172.678 180.48 174.931C180.833 195.282 176.433 215.437 167.633 233.784H168.288C169.676 233.64 171.025 233.47 172.334 233.273H173.028C174.469 233.024 175.857 232.697 177.232 232.343L178.188 232.095C179.511 231.741 180.794 231.322 182.038 230.837L182.876 230.51C184.134 229.999 185.365 229.462 186.543 228.86L186.923 228.65C188.036 228.048 189.11 227.406 190.145 226.699L190.616 226.398C191.664 225.664 192.672 224.879 193.628 224.027L194.165 223.517C195.056 222.665 195.907 221.762 196.68 220.806L197.072 220.334C198.709 218.291 200.032 216.013 200.975 213.577L201.211 213.001C201.656 211.835 202.01 210.643 202.298 209.425L202.442 208.745C202.704 207.54 202.9 206.322 203.018 205.104V204.593C203.083 203.297 203.083 201.987 203.018 200.691V200.389C202.979 198.962 202.874 197.521 202.691 196.094V195.374C202.468 194.012 202.18 192.65 201.813 191.261L201.551 190.58C201.158 189.166 200.7 187.726 200.163 186.285V185.918C199.652 184.504 199.05 183.103 198.395 181.688L198.212 181.295C196.208 184.412 194.034 187.424 191.703 190.305C191.074 191.039 190.066 191.327 189.149 191.026C188.233 190.711 187.591 189.886 187.525 188.917V186.914C187.486 186.337 187.67 185.761 188.036 185.316C192.725 179.187 192.594 170.635 187.709 164.664C177.35 152.039 164.739 141.471 150.516 133.469C146.732 131.308 142.96 129.357 139.175 127.458C141.69 126.554 144.479 125.664 147.544 124.852C149.547 125.887 151.551 126.987 153.555 128.126C159.251 131.413 164.739 135.067 169.964 139.048C168.117 132.081 165.55 125.31 162.29 118.88C161.32 116.955 159.33 115.776 157.182 115.868C146.876 116.523 136.713 118.605 126.983 122.089L126.865 122.573ZM102.494 149.407L112.368 152.799C112.787 152.956 113.101 153.309 113.193 153.742C113.298 154.174 113.167 154.619 112.852 154.933L106.37 161.416C106.056 161.73 105.597 161.861 105.165 161.769C104.733 161.665 104.379 161.363 104.235 160.944L100.778 151.057C100.595 150.572 100.712 150.022 101.092 149.669C101.459 149.302 102.022 149.21 102.494 149.407ZM91.2965 176.28C90.8643 176.07 90.5762 175.612 90.5762 175.127C90.5762 174.643 90.8643 174.184 91.2965 173.975L100.66 169.378C101.053 169.182 101.524 169.208 101.904 169.431C102.284 169.666 102.52 170.072 102.52 170.517V179.711C102.52 180.143 102.284 180.562 101.904 180.785C101.524 181.02 101.053 181.047 100.66 180.85L91.2965 176.28ZM112.302 197.482L102.494 200.848C102.035 200.992 101.524 200.861 101.184 200.52C100.843 200.18 100.726 199.682 100.87 199.224L104.261 189.349C104.406 188.93 104.759 188.616 105.191 188.511C105.623 188.42 106.082 188.551 106.396 188.865L112.879 195.347C113.193 195.675 113.311 196.133 113.193 196.578C113.075 197.011 112.735 197.351 112.302 197.482ZM132.274 200.992L127.677 210.355C127.454 210.801 127.009 211.076 126.525 211.076C126.027 211.076 125.582 210.801 125.359 210.355L120.775 200.992C120.579 200.599 120.592 200.127 120.828 199.748C121.064 199.368 121.47 199.132 121.915 199.132H131.095C131.54 199.132 131.946 199.368 132.182 199.748C132.418 200.127 132.431 200.599 132.234 200.992H132.274ZM150.608 200.992L140.734 197.6C140.315 197.456 140 197.102 139.909 196.67C139.804 196.238 139.935 195.78 140.249 195.465L146.732 188.983C147.046 188.668 147.504 188.537 147.936 188.629C148.369 188.734 148.722 189.048 148.866 189.467L152.232 199.106C152.481 199.59 152.376 200.193 151.996 200.586C151.603 200.979 151.014 201.083 150.516 200.848L150.608 200.992ZM161.74 174.119C162.185 174.341 162.46 174.787 162.46 175.271C162.46 175.769 162.185 176.214 161.74 176.437L152.376 181.02C151.983 181.217 151.512 181.204 151.132 180.968C150.752 180.732 150.529 180.326 150.516 179.881V170.544C150.529 170.098 150.752 169.692 151.132 169.47C151.512 169.234 151.983 169.208 152.376 169.404L161.74 174.119ZM140.734 152.917L150.516 149.407C150.975 149.263 151.485 149.381 151.826 149.721C152.166 150.075 152.284 150.572 152.14 151.031L148.748 160.905C148.604 161.324 148.251 161.638 147.819 161.743C147.386 161.835 146.928 161.704 146.614 161.39L140.131 154.907C139.83 154.58 139.725 154.121 139.843 153.702C139.961 153.27 140.288 152.93 140.707 152.799L140.734 152.917ZM144.518 175.088C144.518 185.028 136.451 193.095 126.511 193.095C116.559 193.095 108.491 185.028 108.491 175.088C108.491 165.135 116.559 157.068 126.511 157.068C136.451 157.068 144.518 165.135 144.518 175.088ZM127.651 139.925L132.234 149.289C132.431 149.682 132.418 150.153 132.182 150.533C131.946 150.913 131.54 151.149 131.095 151.149H121.915C121.47 151.149 121.064 150.913 120.828 150.533C120.592 150.153 120.579 149.682 120.775 149.289L125.359 139.925C125.595 139.493 126.027 139.231 126.511 139.231C126.983 139.231 127.428 139.493 127.651 139.925Z"/>
</mask>
<path d="M126.865 122.573H126.446C118.117 125.494 110.076 129.2 102.428 133.613C85.1152 143.199 70.343 156.793 59.3555 173.255C58.6614 174.368 58.6614 175.795 59.3555 176.908C63.4546 183.443 68.287 189.48 73.7349 194.928C72.8836 188.341 72.4646 181.714 72.4777 175.088V169.522C72.5038 168.828 72.7789 168.16 73.2503 167.636C74.1146 166.746 75.4242 166.471 76.5636 166.942C77.7029 167.414 78.4363 168.54 78.4232 169.771V175.14C78.4101 183.273 79.1042 191.392 80.4924 199.407C80.7281 200.756 81.4484 201.974 82.496 202.851C88.7559 208.024 95.4479 212.66 102.494 216.694C118.903 226.516 137.329 232.448 156.37 234.046C158.963 234.151 161.373 232.71 162.525 230.392C164.935 225.468 166.939 220.374 168.523 215.135C168.72 214.52 168.484 213.852 167.96 213.485C167.423 213.132 166.729 213.145 166.218 213.538C162.119 216.537 157.889 219.326 153.515 221.893C152.166 222.665 150.791 223.386 149.403 224.119C148.722 224.473 147.936 224.564 147.19 224.355C146.064 223.975 145.265 222.967 145.16 221.788C145.042 220.609 145.645 219.47 146.679 218.894C148.002 218.187 149.312 217.453 150.608 216.694C157.719 212.595 164.45 207.88 170.75 202.616C171.679 201.843 172.308 200.782 172.557 199.617C173.919 191.51 174.574 183.299 174.534 175.088V168.566C174.521 167.44 175.137 166.405 176.132 165.882C177.127 165.358 178.319 165.436 179.249 166.078C179.891 166.615 180.283 167.401 180.323 168.239C180.323 170.452 180.48 172.678 180.48 174.931C180.833 195.282 176.433 215.437 167.633 233.784H168.288C169.676 233.64 171.025 233.47 172.334 233.273H173.028C174.469 233.024 175.857 232.697 177.232 232.343L178.188 232.095C179.511 231.741 180.794 231.322 182.038 230.837L182.876 230.51C184.134 229.999 185.365 229.462 186.543 228.86L186.923 228.65C188.036 228.048 189.11 227.406 190.145 226.699L190.616 226.398C191.664 225.664 192.672 224.879 193.628 224.027L194.165 223.517C195.056 222.665 195.907 221.762 196.68 220.806L197.072 220.334C198.709 218.291 200.032 216.013 200.975 213.577L201.211 213.001C201.656 211.835 202.01 210.643 202.298 209.425L202.442 208.745C202.704 207.54 202.9 206.322 203.018 205.104V204.593C203.083 203.297 203.083 201.987 203.018 200.691V200.389C202.979 198.962 202.874 197.521 202.691 196.094V195.374C202.468 194.012 202.18 192.65 201.813 191.261L201.551 190.58C201.158 189.166 200.7 187.726 200.163 186.285V185.918C199.652 184.504 199.05 183.103 198.395 181.688L198.212 181.295C196.208 184.412 194.034 187.424 191.703 190.305C191.074 191.039 190.066 191.327 189.149 191.026C188.233 190.711 187.591 189.886 187.525 188.917V186.914C187.486 186.337 187.67 185.761 188.036 185.316C192.725 179.187 192.594 170.635 187.709 164.664C177.35 152.039 164.739 141.471 150.516 133.469C146.732 131.308 142.96 129.357 139.175 127.458C141.69 126.554 144.479 125.664 147.544 124.852C149.547 125.887 151.551 126.987 153.555 128.126C159.251 131.413 164.739 135.067 169.964 139.048C168.117 132.081 165.55 125.31 162.29 118.88C161.32 116.955 159.33 115.776 157.182 115.868C146.876 116.523 136.713 118.605 126.983 122.089L126.865 122.573ZM102.494 149.407L112.368 152.799C112.787 152.956 113.101 153.309 113.193 153.742C113.298 154.174 113.167 154.619 112.852 154.933L106.37 161.416C106.056 161.73 105.597 161.861 105.165 161.769C104.733 161.665 104.379 161.363 104.235 160.944L100.778 151.057C100.595 150.572 100.712 150.022 101.092 149.669C101.459 149.302 102.022 149.21 102.494 149.407ZM91.2965 176.28C90.8643 176.07 90.5762 175.612 90.5762 175.127C90.5762 174.643 90.8643 174.184 91.2965 173.975L100.66 169.378C101.053 169.182 101.524 169.208 101.904 169.431C102.284 169.666 102.52 170.072 102.52 170.517V179.711C102.52 180.143 102.284 180.562 101.904 180.785C101.524 181.02 101.053 181.047 100.66 180.85L91.2965 176.28ZM112.302 197.482L102.494 200.848C102.035 200.992 101.524 200.861 101.184 200.52C100.843 200.18 100.726 199.682 100.87 199.224L104.261 189.349C104.406 188.93 104.759 188.616 105.191 188.511C105.623 188.42 106.082 188.551 106.396 188.865L112.879 195.347C113.193 195.675 113.311 196.133 113.193 196.578C113.075 197.011 112.735 197.351 112.302 197.482ZM132.274 200.992L127.677 210.355C127.454 210.801 127.009 211.076 126.525 211.076C126.027 211.076 125.582 210.801 125.359 210.355L120.775 200.992C120.579 200.599 120.592 200.127 120.828 199.748C121.064 199.368 121.47 199.132 121.915 199.132H131.095C131.54 199.132 131.946 199.368 132.182 199.748C132.418 200.127 132.431 200.599 132.234 200.992H132.274ZM150.608 200.992L140.734 197.6C140.315 197.456 140 197.102 139.909 196.67C139.804 196.238 139.935 195.78 140.249 195.465L146.732 188.983C147.046 188.668 147.504 188.537 147.936 188.629C148.369 188.734 148.722 189.048 148.866 189.467L152.232 199.106C152.481 199.59 152.376 200.193 151.996 200.586C151.603 200.979 151.014 201.083 150.516 200.848L150.608 200.992ZM161.74 174.119C162.185 174.341 162.46 174.787 162.46 175.271C162.46 175.769 162.185 176.214 161.74 176.437L152.376 181.02C151.983 181.217 151.512 181.204 151.132 180.968C150.752 180.732 150.529 180.326 150.516 179.881V170.544C150.529 170.098 150.752 169.692 151.132 169.47C151.512 169.234 151.983 169.208 152.376 169.404L161.74 174.119ZM140.734 152.917L150.516 149.407C150.975 149.263 151.485 149.381 151.826 149.721C152.166 150.075 152.284 150.572 152.14 151.031L148.748 160.905C148.604 161.324 148.251 161.638 147.819 161.743C147.386 161.835 146.928 161.704 146.614 161.39L140.131 154.907C139.83 154.58 139.725 154.121 139.843 153.702C139.961 153.27 140.288 152.93 140.707 152.799L140.734 152.917ZM144.518 175.088C144.518 185.028 136.451 193.095 126.511 193.095C116.559 193.095 108.491 185.028 108.491 175.088C108.491 165.135 116.559 157.068 126.511 157.068C136.451 157.068 144.518 165.135 144.518 175.088ZM127.651 139.925L132.234 149.289C132.431 149.682 132.418 150.153 132.182 150.533C131.946 150.913 131.54 151.149 131.095 151.149H121.915C121.47 151.149 121.064 150.913 120.828 150.533C120.592 150.153 120.579 149.682 120.775 149.289L125.359 139.925C125.595 139.493 126.027 139.231 126.511 139.231C126.983 139.231 127.428 139.493 127.651 139.925Z" fill="url(#paint21_linear_1163_4974)"/>
<path d="M126.865 122.573H126.446C118.117 125.494 110.076 129.2 102.428 133.613C85.1152 143.199 70.343 156.793 59.3555 173.255C58.6614 174.368 58.6614 175.795 59.3555 176.908C63.4546 183.443 68.287 189.48 73.7349 194.928C72.8836 188.341 72.4646 181.714 72.4777 175.088V169.522C72.5038 168.828 72.7789 168.16 73.2503 167.636C74.1146 166.746 75.4242 166.471 76.5636 166.942C77.7029 167.414 78.4363 168.54 78.4232 169.771V175.14C78.4101 183.273 79.1042 191.392 80.4924 199.407C80.7281 200.756 81.4484 201.974 82.496 202.851C88.7559 208.024 95.4479 212.66 102.494 216.694C118.903 226.516 137.329 232.448 156.37 234.046C158.963 234.151 161.373 232.71 162.525 230.392C164.935 225.468 166.939 220.374 168.523 215.135C168.72 214.52 168.484 213.852 167.96 213.485C167.423 213.132 166.729 213.145 166.218 213.538C162.119 216.537 157.889 219.326 153.515 221.893C152.166 222.665 150.791 223.386 149.403 224.119C148.722 224.473 147.936 224.564 147.19 224.355C146.064 223.975 145.265 222.967 145.16 221.788C145.042 220.609 145.645 219.47 146.679 218.894C148.002 218.187 149.312 217.453 150.608 216.694C157.719 212.595 164.45 207.88 170.75 202.616C171.679 201.843 172.308 200.782 172.557 199.617C173.919 191.51 174.574 183.299 174.534 175.088V168.566C174.521 167.44 175.137 166.405 176.132 165.882C177.127 165.358 178.319 165.436 179.249 166.078C179.891 166.615 180.283 167.401 180.323 168.239C180.323 170.452 180.48 172.678 180.48 174.931C180.833 195.282 176.433 215.437 167.633 233.784H168.288C169.676 233.64 171.025 233.47 172.334 233.273H173.028C174.469 233.024 175.857 232.697 177.232 232.343L178.188 232.095C179.511 231.741 180.794 231.322 182.038 230.837L182.876 230.51C184.134 229.999 185.365 229.462 186.543 228.86L186.923 228.65C188.036 228.048 189.11 227.406 190.145 226.699L190.616 226.398C191.664 225.664 192.672 224.879 193.628 224.027L194.165 223.517C195.056 222.665 195.907 221.762 196.68 220.806L197.072 220.334C198.709 218.291 200.032 216.013 200.975 213.577L201.211 213.001C201.656 211.835 202.01 210.643 202.298 209.425L202.442 208.745C202.704 207.54 202.9 206.322 203.018 205.104V204.593C203.083 203.297 203.083 201.987 203.018 200.691V200.389C202.979 198.962 202.874 197.521 202.691 196.094V195.374C202.468 194.012 202.18 192.65 201.813 191.261L201.551 190.58C201.158 189.166 200.7 187.726 200.163 186.285V185.918C199.652 184.504 199.05 183.103 198.395 181.688L198.212 181.295C196.208 184.412 194.034 187.424 191.703 190.305C191.074 191.039 190.066 191.327 189.149 191.026C188.233 190.711 187.591 189.886 187.525 188.917V186.914C187.486 186.337 187.67 185.761 188.036 185.316C192.725 179.187 192.594 170.635 187.709 164.664C177.35 152.039 164.739 141.471 150.516 133.469C146.732 131.308 142.96 129.357 139.175 127.458C141.69 126.554 144.479 125.664 147.544 124.852C149.547 125.887 151.551 126.987 153.555 128.126C159.251 131.413 164.739 135.067 169.964 139.048C168.117 132.081 165.55 125.31 162.29 118.88C161.32 116.955 159.33 115.776 157.182 115.868C146.876 116.523 136.713 118.605 126.983 122.089L126.865 122.573ZM102.494 149.407L112.368 152.799C112.787 152.956 113.101 153.309 113.193 153.742C113.298 154.174 113.167 154.619 112.852 154.933L106.37 161.416C106.056 161.73 105.597 161.861 105.165 161.769C104.733 161.665 104.379 161.363 104.235 160.944L100.778 151.057C100.595 150.572 100.712 150.022 101.092 149.669C101.459 149.302 102.022 149.21 102.494 149.407ZM91.2965 176.28C90.8643 176.07 90.5762 175.612 90.5762 175.127C90.5762 174.643 90.8643 174.184 91.2965 173.975L100.66 169.378C101.053 169.182 101.524 169.208 101.904 169.431C102.284 169.666 102.52 170.072 102.52 170.517V179.711C102.52 180.143 102.284 180.562 101.904 180.785C101.524 181.02 101.053 181.047 100.66 180.85L91.2965 176.28ZM112.302 197.482L102.494 200.848C102.035 200.992 101.524 200.861 101.184 200.52C100.843 200.18 100.726 199.682 100.87 199.224L104.261 189.349C104.406 188.93 104.759 188.616 105.191 188.511C105.623 188.42 106.082 188.551 106.396 188.865L112.879 195.347C113.193 195.675 113.311 196.133 113.193 196.578C113.075 197.011 112.735 197.351 112.302 197.482ZM132.274 200.992L127.677 210.355C127.454 210.801 127.009 211.076 126.525 211.076C126.027 211.076 125.582 210.801 125.359 210.355L120.775 200.992C120.579 200.599 120.592 200.127 120.828 199.748C121.064 199.368 121.47 199.132 121.915 199.132H131.095C131.54 199.132 131.946 199.368 132.182 199.748C132.418 200.127 132.431 200.599 132.234 200.992H132.274ZM150.608 200.992L140.734 197.6C140.315 197.456 140 197.102 139.909 196.67C139.804 196.238 139.935 195.78 140.249 195.465L146.732 188.983C147.046 188.668 147.504 188.537 147.936 188.629C148.369 188.734 148.722 189.048 148.866 189.467L152.232 199.106C152.481 199.59 152.376 200.193 151.996 200.586C151.603 200.979 151.014 201.083 150.516 200.848L150.608 200.992ZM161.74 174.119C162.185 174.341 162.46 174.787 162.46 175.271C162.46 175.769 162.185 176.214 161.74 176.437L152.376 181.02C151.983 181.217 151.512 181.204 151.132 180.968C150.752 180.732 150.529 180.326 150.516 179.881V170.544C150.529 170.098 150.752 169.692 151.132 169.47C151.512 169.234 151.983 169.208 152.376 169.404L161.74 174.119ZM140.734 152.917L150.516 149.407C150.975 149.263 151.485 149.381 151.826 149.721C152.166 150.075 152.284 150.572 152.14 151.031L148.748 160.905C148.604 161.324 148.251 161.638 147.819 161.743C147.386 161.835 146.928 161.704 146.614 161.39L140.131 154.907C139.83 154.58 139.725 154.121 139.843 153.702C139.961 153.27 140.288 152.93 140.707 152.799L140.734 152.917ZM144.518 175.088C144.518 185.028 136.451 193.095 126.511 193.095C116.559 193.095 108.491 185.028 108.491 175.088C108.491 165.135 116.559 157.068 126.511 157.068C136.451 157.068 144.518 165.135 144.518 175.088ZM127.651 139.925L132.234 149.289C132.431 149.682 132.418 150.153 132.182 150.533C131.946 150.913 131.54 151.149 131.095 151.149H121.915C121.47 151.149 121.064 150.913 120.828 150.533C120.592 150.153 120.579 149.682 120.775 149.289L125.359 139.925C125.595 139.493 126.027 139.231 126.511 139.231C126.983 139.231 127.428 139.493 127.651 139.925Z" stroke="url(#paint22_linear_1163_4974)" stroke-width="3.27984" mask="url(#path-23-inside-1_1163_4974)"/>
</g>
<g filter="url(#filter14_b_1163_4974)">
<path d="M50.2927 154.069V154.789C50.5153 156.151 50.8034 157.513 51.1701 158.901L51.3797 159.621C51.7594 161.062 52.2178 162.62 52.7547 163.943V164.244C53.2917 165.659 53.8941 167.06 54.5227 168.5L54.706 168.893C60.5206 160.185 67.5139 152.314 75.4762 145.504C77.4537 135.355 80.7931 125.52 85.416 116.261C75.8429 116.641 66.6626 120.15 59.2634 126.227L58.9098 126.554C57.9669 127.445 57.0895 128.388 56.2644 129.383L55.937 129.802C54.3001 131.845 52.9774 134.137 52.0345 136.586L51.7987 137.162C51.3535 138.327 50.9999 139.519 50.7118 140.737L50.5677 141.418C50.3058 142.623 50.1094 143.841 49.9915 145.059V145.53C49.926 146.84 49.926 148.136 49.9915 149.446V149.734C50.0177 151.188 50.1225 152.628 50.2927 154.069Z" fill="url(#paint23_linear_1163_4974)"/>
<path d="M51.1127 154.069V154.02L51.107 153.972C50.9399 152.559 50.8373 151.148 50.8115 149.727V149.446V149.425L50.8104 149.405C50.7463 148.123 50.7463 146.853 50.8104 145.571L50.8115 145.551V145.53V145.099C50.9264 143.928 51.1161 142.755 51.369 141.592L51.3699 141.588L51.5119 140.916C51.7919 139.734 52.1336 138.584 52.5613 137.463L52.7934 136.896L52.7966 136.888L52.7997 136.88C53.7119 134.511 54.9921 132.293 56.5769 130.315L56.577 130.315L56.5832 130.307L56.9032 129.897C57.7052 128.93 58.5566 128.016 59.4699 127.153L59.8025 126.845C66.7028 121.185 75.1782 117.798 84.0614 117.158C79.7678 126.027 76.6338 135.404 74.7263 145.067C67.1723 151.56 60.4896 159.004 54.856 167.209C54.4021 166.157 53.9705 165.127 53.5747 164.093V163.943V163.783L53.5145 163.635C52.9975 162.361 52.5497 160.843 52.1725 159.412L52.1699 159.402L52.167 159.392L51.9603 158.682C51.6075 157.345 51.3291 156.033 51.1127 154.722V154.069Z" stroke="url(#paint24_linear_1163_4974)" stroke-width="1.63992"/>
</g>
<g filter="url(#filter15_b_1163_4974)">
<path d="M99.4917 128.269C103.813 125.781 108.187 123.529 112.64 121.551C113.177 121.198 113.465 120.569 113.4 119.927C113.321 119.299 112.889 118.749 112.273 118.539C109.772 117.989 107.297 117.518 104.861 117.138C103.853 116.941 103.014 116.247 102.635 115.304C102.255 114.362 102.386 113.288 102.975 112.45C103.63 111.546 104.717 111.088 105.817 111.245C112.26 112.227 118.599 113.72 124.793 115.724C125.88 116.064 127.059 116.064 128.159 115.724C137.47 112.672 147.148 110.839 156.944 110.289L156.76 110.04C155.844 108.73 154.887 107.473 153.905 106.294L153.643 105.928C152.648 104.762 151.653 103.649 150.631 102.601L150.068 102.025C149.047 101.03 148.038 100.087 147.069 99.2096L146.493 98.7512C145.38 97.8083 144.214 96.9309 143.009 96.1189H142.8C141.7 95.3463 140.561 94.6522 139.382 94.0105L138.897 93.7748C137.745 93.2378 136.566 92.7795 135.361 92.3866L134.667 92.1771C133.476 91.8235 132.258 91.5485 131.04 91.3389H130.437C128.08 91.0115 125.697 91.0115 123.352 91.3389H122.514C121.611 91.3389 120.733 91.6401 119.843 91.8497H119.358C118.337 92.1247 117.341 92.4652 116.359 92.845L115.639 93.1462C114.814 93.4867 114.002 93.8534 113.177 94.2593L112.548 94.5474C111.566 95.0713 110.558 95.6475 109.549 96.263L109.091 96.5642C108.279 97.1273 107.454 97.7297 106.629 98.3714L106.066 98.8167C104.141 100.467 102.334 102.261 100.683 104.186L100.264 104.671C98.444 106.766 96.7546 108.992 95.2224 111.31L95.0129 111.611C89.5912 120.111 85.5445 129.409 83.0039 139.165C88.2685 135.184 93.7688 131.543 99.4917 128.269Z" fill="url(#paint25_linear_1163_4974)"/>
<path d="M84.4226 137.087C86.9577 128.251 90.7491 119.823 95.6954 112.066L95.8955 111.778L95.9011 111.771L95.9064 111.762C97.4191 109.474 99.0867 107.276 100.883 105.208L100.885 105.207L101.304 104.722L101.306 104.72C102.924 102.832 104.697 101.071 106.587 99.4498L107.132 99.0187C107.133 99.018 107.134 99.0174 107.135 99.0167C107.944 98.3879 108.753 97.7969 109.55 97.2438L109.988 96.9558C110.972 96.3555 111.955 95.7935 112.913 95.2825L113.519 95.0047L113.529 95L113.539 94.995C114.348 94.5969 115.144 94.2377 115.952 93.9041L115.955 93.9027L116.665 93.6058C117.591 93.2483 118.52 92.9294 119.468 92.6696H119.843H119.938L120.031 92.6478C120.289 92.5871 120.527 92.5251 120.753 92.4666C121.401 92.2984 121.938 92.1589 122.514 92.1589H123.352H123.409L123.466 92.151C125.735 91.8342 128.042 91.8341 130.325 92.1511L130.381 92.1589H130.437H130.969C132.136 92.362 133.298 92.6261 134.432 92.9626C134.433 92.9628 134.433 92.963 134.434 92.9632L135.116 93.169C136.287 93.5511 137.429 93.9957 138.545 94.5151L139.006 94.7396C140.156 95.3661 141.263 96.0412 142.329 96.7899L142.541 96.9389H142.758C143.865 97.6954 144.937 98.5081 145.963 99.3769L145.973 99.3851L145.983 99.3929L146.538 99.835C147.492 100.699 148.484 101.627 149.489 102.605L150.044 103.174L84.4226 137.087ZM84.4226 137.087C89.1299 133.637 94.0199 130.455 99.0837 127.558C103.403 125.071 107.779 122.816 112.235 120.834C112.477 120.651 112.615 120.344 112.585 120.02C112.543 119.711 112.334 119.442 112.045 119.329C109.576 118.787 107.135 118.322 104.735 117.948L104.719 117.946L104.704 117.943C103.424 117.693 102.358 116.812 101.874 115.611C101.388 114.405 101.558 113.039 102.304 111.978L102.311 111.968L102.311 111.968C103.145 110.818 104.532 110.233 105.933 110.433L105.941 110.434L105.941 110.434C112.426 111.423 118.806 112.925 125.042 114.942C125.965 115.231 126.97 115.232 127.91 114.942C136.816 112.024 146.054 110.213 155.412 109.563C154.717 108.611 154.003 107.693 153.275 106.819L153.256 106.796L153.238 106.771L152.997 106.433C152.017 105.287 151.042 104.197 150.045 103.175L84.4226 137.087Z" stroke="url(#paint26_linear_1163_4974)" stroke-width="1.63992"/>
</g>
<g filter="url(#filter16_b_1163_4974)">
<path d="M178.462 146.251C185.966 152.89 192.553 160.473 198.067 168.841C199.494 165.79 200.66 162.621 201.55 159.373V158.928C201.93 157.461 202.231 156.02 202.48 154.606V154.095C202.703 152.668 202.847 151.24 202.925 149.8C203.004 148.438 203.004 147.076 202.925 145.714V145.321C202.821 144.051 202.624 142.767 202.362 141.51V140.855C202.074 139.637 201.708 138.446 201.275 137.28L201.04 136.743C200.084 134.294 198.774 132.016 197.137 129.986L196.77 129.501C195.985 128.545 195.133 127.641 194.217 126.803L193.68 126.293C192.724 125.441 191.728 124.643 190.681 123.922L190.196 123.582C189.149 122.875 188.075 122.233 186.961 121.63L186.542 121.303C185.364 120.701 184.133 120.164 182.849 119.653L182.037 119.326C180.793 118.867 179.51 118.448 178.161 118.068L177.205 117.82C175.817 117.466 174.442 117.165 173.001 116.89H172.307C170.971 116.667 169.583 116.497 168.169 116.353H167.566C172.032 125.271 175.306 134.739 177.297 144.522C177.493 145.203 177.899 145.806 178.462 146.251Z" fill="url(#paint27_linear_1163_4974)"/>
<path d="M186.961 121.63C188.075 122.233 189.149 122.875 190.196 123.582L186.961 121.63ZM186.961 121.63L186.542 121.303L186.961 121.63ZM194.217 126.803C195.133 127.641 195.985 128.545 196.77 129.501L197.137 129.986C198.774 132.016 200.084 134.294 201.04 136.743L194.217 126.803ZM194.217 126.803L193.68 126.293L194.217 126.803ZM202.362 141.51C202.624 142.767 202.821 144.051 202.925 145.321L202.362 141.51ZM202.362 141.51V140.855V141.51ZM179.006 145.637L178.989 145.622L178.971 145.608C178.548 145.274 178.245 144.827 178.093 144.324C176.182 134.947 173.1 125.856 168.927 117.258C170.037 117.381 171.123 117.524 172.172 117.699L172.239 117.71H172.307H172.923C174.321 117.978 175.655 118.271 177.001 118.614C177.001 118.614 177.002 118.614 177.003 118.614L177.947 118.86C179.267 119.232 180.524 119.642 181.742 120.091L182.543 120.413L182.543 120.413L182.546 120.415C183.789 120.909 184.972 121.425 186.1 121.998L186.457 122.277L186.511 122.319L186.571 122.352C187.662 122.942 188.71 123.568 189.731 124.257L190.209 124.593L190.209 124.593L190.216 124.598C191.227 125.293 192.192 126.067 193.124 126.896L193.652 127.397L193.657 127.403L193.663 127.408C194.546 128.215 195.367 129.086 196.127 130.009L196.483 130.48L196.491 130.491L196.499 130.5C198.082 132.463 199.349 134.668 200.276 137.041L200.282 137.057L200.289 137.073L200.515 137.588C200.922 138.687 201.268 139.809 201.542 140.952V141.51V141.595L201.56 141.677C201.813 142.895 202.003 144.133 202.105 145.355V145.714V145.738L202.107 145.761C202.184 147.092 202.184 148.422 202.107 149.753L202.107 149.755C202.029 151.171 201.888 152.571 201.67 153.969L201.66 154.032V154.095V154.534C201.417 155.908 201.124 157.304 200.757 158.722L200.73 158.823V158.928V159.262C199.986 161.957 199.049 164.597 197.929 167.158C192.547 159.216 186.193 151.997 179.006 145.637Z" stroke="url(#paint28_linear_1163_4974)" stroke-width="1.63992"/>
</g>
</g>
<g clip-path="url(#clip3_1163_4974)">
<g filter="url(#filter17_b_1163_4974)">
<path d="M220.408 78.7871L223.136 81.5129L215.756 88.8925L208.376 81.5139L211.103 78.7871L215.756 83.464L220.408 78.7871ZM225.061 74.1344L227.81 76.8602L225.086 79.586L222.359 76.8602L225.061 74.1344ZM215.756 74.1344L218.482 76.8361L215.755 79.5629L213.029 76.8602L215.756 74.1344ZM206.449 74.1344L209.153 76.8602L206.451 79.5619L203.724 76.8602L206.449 74.1344ZM215.757 64.8289L223.134 72.1833L220.407 74.9082L215.757 70.2564L211.104 74.9332L208.377 72.2074L215.757 64.8289Z" fill="url(#paint29_linear_1163_4974)" fill-opacity="0.8"/>
<path d="M220.41 80.3834L221.541 81.5132L215.756 87.2981L209.971 81.5139L211.101 80.3836L214.957 84.2591L215.756 85.0626L216.555 84.2591L220.41 80.3834ZM221.538 72.1842L220.407 73.3138L216.554 69.4594L215.755 68.6597L214.958 69.4612L211.102 73.3369L209.972 72.2073L215.758 66.4221L221.538 72.1842ZM223.95 76.8567L225.068 75.7288L226.213 76.8637L225.085 77.9916L223.95 76.8567ZM215.752 77.9719L214.627 76.8569L215.759 75.7251L216.884 76.8396L215.752 77.9719ZM206.448 77.9713L205.322 76.8563L206.446 75.7321L207.562 76.857L206.448 77.9713Z" stroke="url(#paint30_linear_1163_4974)" stroke-width="2.25489"/>
</g>
</g>
<g filter="url(#filter18_b_1163_4974)">
<path fill-rule="evenodd" clip-rule="evenodd" d="M237.957 111.18H251.956C252.131 111.18 252.292 111.253 252.423 111.385L254.642 113.662C255.051 114.085 254.759 114.801 254.175 114.801H240.175C240 114.801 239.84 114.728 239.708 114.596L237.489 112.319C237.081 111.896 237.373 111.18 237.957 111.18ZM237.489 108.158L239.708 105.881C239.825 105.75 240 105.677 240.175 105.677H254.16C254.744 105.677 255.036 106.392 254.627 106.815L252.423 109.093C252.306 109.224 252.131 109.297 251.956 109.297H237.957C237.373 109.297 237.081 108.582 237.489 108.158ZM254.627 117.808L252.409 120.085C252.277 120.216 252.117 120.289 251.941 120.289H237.957C237.373 120.289 237.081 119.574 237.489 119.151L239.708 116.873C239.825 116.742 240 116.669 240.175 116.669H254.16C254.744 116.669 255.036 117.384 254.627 117.808Z" fill="url(#paint31_linear_1163_4974)" fill-opacity="0.6"/>
<path d="M238.972 108.204L240.369 106.77H253.15L251.762 108.204H238.972ZM238.972 119.196L240.369 117.762H253.145L251.748 119.196H238.972ZM240.369 113.707L238.972 112.273H251.763L253.16 113.707H240.369Z" stroke="url(#paint32_linear_1163_4974)" stroke-width="2.18656"/>
</g>
<g filter="url(#filter19_b_1163_4974)">
<path d="M263.802 157.879C263.573 157.757 263.317 157.693 263.058 157.693C262.798 157.693 262.542 157.757 262.313 157.879L258.957 159.864L256.612 161.167L253.256 163.153C253.027 163.275 252.771 163.339 252.512 163.339C252.252 163.339 251.997 163.275 251.767 163.153L249.1 161.6C248.881 161.474 248.697 161.293 248.567 161.076C248.436 160.859 248.363 160.612 248.355 160.358V157.26C248.35 157.004 248.418 156.752 248.549 156.532C248.681 156.312 248.872 156.134 249.1 156.018L251.767 154.529C251.996 154.407 252.252 154.343 252.512 154.343C252.772 154.343 253.027 154.407 253.256 154.529L255.924 156.018C256.143 156.145 256.327 156.325 256.457 156.543C256.587 156.76 256.66 157.007 256.668 157.26V159.244L258.957 157.879V155.957C258.963 155.702 258.898 155.451 258.768 155.231C258.639 155.012 258.451 154.833 258.225 154.715L253.317 151.862C253.088 151.739 252.833 151.675 252.573 151.675C252.313 151.675 252.057 151.739 251.828 151.862L246.866 154.715C246.619 154.811 246.407 154.983 246.263 155.206C246.118 155.429 246.047 155.691 246.06 155.957V161.725C246.056 161.98 246.124 162.231 246.256 162.449C246.388 162.667 246.578 162.845 246.805 162.96L251.767 165.82C251.997 165.942 252.252 166.006 252.512 166.006C252.771 166.006 253.027 165.942 253.256 165.82L256.612 163.897L258.907 162.532L262.252 160.615C262.481 160.493 262.737 160.429 262.997 160.429C263.256 160.429 263.512 160.493 263.741 160.615L266.408 162.104C266.628 162.23 266.811 162.411 266.941 162.628C267.072 162.846 267.144 163.093 267.152 163.346V166.386C267.157 166.641 267.09 166.893 266.958 167.113C266.827 167.332 266.636 167.51 266.408 167.626L263.741 169.176C263.512 169.299 263.256 169.363 262.997 169.363C262.737 169.363 262.481 169.299 262.252 169.176L259.585 167.687C259.365 167.561 259.182 167.381 259.051 167.164C258.921 166.947 258.848 166.7 258.84 166.447V164.455L256.612 165.757V167.74C256.608 167.996 256.675 168.248 256.806 168.468C256.938 168.688 257.128 168.866 257.356 168.982L262.319 171.835C262.548 171.957 262.804 172.022 263.064 172.022C263.324 172.022 263.579 171.957 263.809 171.835L268.771 168.982C268.989 168.855 269.171 168.674 269.3 168.457C269.429 168.241 269.501 167.994 269.509 167.742V161.972C269.514 161.716 269.447 161.464 269.315 161.244C269.183 161.025 268.992 160.847 268.764 160.731L263.802 157.879Z" fill="url(#paint33_linear_1163_4974)" fill-opacity="0.4"/>
<path d="M257.706 166.384L257.747 166.36V166.447V166.465L257.747 166.483C257.762 166.922 257.888 167.35 258.114 167.727C258.34 168.103 258.659 168.416 259.039 168.635L259.046 168.639L259.052 168.642L261.719 170.131L261.728 170.136L261.736 170.14C262.124 170.348 262.557 170.456 262.997 170.456C263.436 170.456 263.869 170.348 264.257 170.14L264.274 170.131L264.29 170.122L266.936 168.584C267.333 168.375 267.665 168.06 267.896 167.675C268.131 167.283 268.252 166.833 268.245 166.377V163.346V163.328L268.245 163.311C268.231 162.872 268.105 162.444 267.879 162.067C267.654 161.69 267.335 161.377 266.955 161.157L266.948 161.153L266.941 161.149L264.274 159.66L264.265 159.655L264.255 159.65C263.868 159.444 263.436 159.336 262.997 159.336C262.558 159.336 262.125 159.444 261.738 159.65L261.723 159.658L261.708 159.666L258.364 161.584L258.356 161.588L258.349 161.592L256.061 162.952L252.731 164.861C252.663 164.895 252.588 164.913 252.512 164.913C252.436 164.913 252.361 164.895 252.293 164.861L247.351 162.013L247.327 161.999L247.302 161.986C247.256 161.963 247.218 161.928 247.192 161.885C247.166 161.841 247.153 161.791 247.153 161.74L247.153 161.733V161.725V155.957V155.93L247.152 155.904C247.15 155.867 247.16 155.831 247.18 155.801C247.2 155.77 247.228 155.747 247.262 155.734L247.339 155.704L247.411 155.663L252.355 152.82C252.422 152.786 252.497 152.768 252.573 152.768C252.648 152.768 252.722 152.786 252.789 152.819L257.675 155.66L257.697 155.672L257.719 155.684C257.764 155.707 257.801 155.743 257.827 155.786C257.852 155.83 257.865 155.88 257.864 155.93L257.864 155.944V155.957V157.258L257.762 157.319V157.26V157.242L257.761 157.224C257.747 156.785 257.62 156.357 257.395 155.98C257.169 155.604 256.85 155.291 256.47 155.071L256.463 155.067L256.456 155.063L253.789 153.575L253.781 153.57L253.772 153.566C253.385 153.358 252.952 153.249 252.512 153.249C252.072 153.249 251.639 153.358 251.251 153.566L251.243 153.57L251.235 153.575L248.582 155.055C248.181 155.265 247.845 155.581 247.612 155.97C247.377 156.362 247.256 156.812 247.262 157.268V160.358V160.376L247.262 160.394C247.277 160.833 247.403 161.262 247.629 161.638C247.855 162.014 248.172 162.327 248.552 162.546C248.553 162.547 248.553 162.547 248.554 162.547L251.218 164.098L251.235 164.108L251.253 164.117C251.641 164.324 252.073 164.432 252.512 164.432C252.951 164.432 253.383 164.324 253.77 164.117L253.792 164.106L253.813 164.094L257.156 162.115L259.488 160.819L259.501 160.812L259.513 160.805L262.843 158.836C262.91 158.803 262.983 158.786 263.058 158.786C263.134 158.786 263.209 158.804 263.277 158.838L268.22 161.679L268.244 161.692L268.268 161.705C268.314 161.728 268.351 161.763 268.378 161.807C268.404 161.85 268.417 161.901 268.416 161.951L268.416 161.961V161.972V167.719C268.412 167.782 268.393 167.843 268.361 167.898C268.327 167.955 268.279 168.002 268.222 168.036C268.221 168.036 268.221 168.037 268.22 168.037L263.282 170.876C263.214 170.91 263.14 170.928 263.064 170.928C262.988 170.928 262.913 170.91 262.845 170.876L257.901 168.034L257.878 168.021L257.854 168.009C257.808 167.986 257.77 167.95 257.744 167.906C257.718 167.862 257.705 167.812 257.706 167.761L257.706 167.751V167.74V166.384Z" stroke="url(#paint34_linear_1163_4974)" stroke-width="2.18656"/>
</g>
<g filter="url(#filter20_b_1163_4974)">
<path d="M247.591 201.78C247.773 203.621 247.111 204.926 245.603 205.695C246.787 205.978 247.672 206.5 248.259 207.258C248.846 208.017 249.073 209.1 248.942 210.506C248.871 211.224 248.707 211.857 248.449 212.403C248.191 212.949 247.864 213.4 247.47 213.754C247.075 214.108 246.585 214.404 245.998 214.642C245.411 214.879 244.796 215.054 244.154 215.165C243.511 215.276 242.775 215.352 241.946 215.393V219.263H239.609V215.453C238.799 215.453 238.182 215.448 237.757 215.438V219.263H235.42V215.393C235.238 215.393 234.965 215.39 234.6 215.385C234.236 215.38 233.958 215.378 233.766 215.378H230.73L231.201 212.6H232.885C233.391 212.6 233.685 212.342 233.766 211.826V205.726H234.009C233.948 205.715 233.867 205.71 233.766 205.71V201.355C233.634 200.667 233.184 200.323 232.415 200.323H230.73V197.834L233.948 197.849C234.595 197.849 235.086 197.844 235.42 197.834V194.01H237.757V197.758C238.587 197.738 239.204 197.728 239.609 197.728V194.01H241.946V197.834C242.745 197.905 243.453 198.019 244.07 198.175C244.687 198.332 245.259 198.56 245.785 198.858C246.311 199.157 246.729 199.551 247.037 200.042C247.346 200.533 247.53 201.112 247.591 201.78ZM244.328 210.051C244.328 209.687 244.252 209.363 244.101 209.079C243.949 208.796 243.762 208.563 243.539 208.381C243.317 208.199 243.026 208.045 242.667 207.918C242.307 207.792 241.976 207.698 241.672 207.638C241.369 207.577 240.995 207.531 240.549 207.501C240.104 207.471 239.755 207.456 239.502 207.456C239.249 207.456 238.923 207.461 238.523 207.471C238.124 207.481 237.884 207.486 237.803 207.486V212.616C237.884 212.616 238.071 212.618 238.364 212.623C238.657 212.628 238.9 212.631 239.093 212.631C239.285 212.631 239.553 212.623 239.897 212.608C240.241 212.593 240.537 212.573 240.785 212.547C241.033 212.522 241.321 212.479 241.65 212.418C241.979 212.358 242.259 212.287 242.492 212.206C242.725 212.125 242.965 212.019 243.213 211.887C243.461 211.756 243.661 211.604 243.812 211.432C243.964 211.26 244.088 211.057 244.184 210.825C244.28 210.592 244.328 210.334 244.328 210.051ZM243.251 202.827C243.251 202.493 243.188 202.197 243.061 201.939C242.935 201.681 242.78 201.469 242.598 201.302C242.416 201.135 242.173 200.993 241.87 200.877C241.566 200.76 241.288 200.677 241.035 200.626C240.782 200.576 240.471 200.535 240.102 200.505C239.732 200.475 239.439 200.462 239.222 200.467C239.004 200.472 238.731 200.477 238.402 200.482C238.073 200.487 237.873 200.49 237.803 200.49V205.149C237.853 205.149 238.028 205.151 238.326 205.156C238.625 205.161 238.86 205.161 239.032 205.156C239.204 205.151 239.457 205.141 239.791 205.126C240.125 205.111 240.403 205.083 240.625 205.043C240.848 205.002 241.108 204.946 241.407 204.876C241.705 204.805 241.951 204.711 242.143 204.595C242.335 204.479 242.522 204.342 242.704 204.185C242.887 204.028 243.023 203.834 243.114 203.601C243.205 203.368 243.251 203.11 243.251 202.827Z" fill="url(#paint35_linear_1163_4974)" fill-opacity="0.2"/>
<path d="M246.414 201.887L246.414 201.887L246.415 201.896C246.49 202.651 246.382 203.2 246.177 203.604C245.976 204.001 245.633 204.353 245.066 204.642L242.211 206.099L245.328 206.845C246.321 207.082 246.942 207.488 247.324 207.981C247.657 208.412 247.881 209.148 247.765 210.393C247.705 211.001 247.57 211.496 247.38 211.898C247.18 212.322 246.942 212.639 246.68 212.874C246.405 213.121 246.038 213.35 245.554 213.546C245.047 213.751 244.514 213.903 243.952 214C243.368 214.102 242.682 214.173 241.888 214.212L240.764 214.267V214.271H239.609C238.802 214.271 238.196 214.266 237.785 214.257L236.602 214.228V214.211H235.42C235.246 214.211 234.98 214.208 234.617 214.203C234.251 214.198 233.966 214.196 233.766 214.196H232.13L232.2 213.782H232.885C233.339 213.782 233.846 213.664 234.265 213.295C234.68 212.93 234.865 212.448 234.933 212.01L234.948 211.918V211.826V205.726H234.106L234.108 205.71H234.948V201.355V201.243L234.927 201.133C234.82 200.574 234.554 200.029 234.047 199.642C233.553 199.264 232.967 199.141 232.415 199.141H231.913V199.022L233.942 199.031V199.031H233.948C234.598 199.031 235.103 199.026 235.456 199.015L236.602 198.981V198.969L237.786 198.94C238.614 198.92 239.219 198.91 239.609 198.91H240.764V198.916L241.841 199.011C242.593 199.078 243.237 199.183 243.779 199.321C244.3 199.453 244.772 199.643 245.202 199.886C245.566 200.093 245.837 200.353 246.037 200.671C246.232 200.981 246.368 201.375 246.414 201.887ZM240.117 206.291C240.376 206.273 240.618 206.245 240.837 206.206C241.086 206.16 241.368 206.1 241.68 206.026C242.057 205.936 242.427 205.805 242.755 205.606C243.007 205.454 243.247 205.278 243.476 205.081C243.81 204.793 244.057 204.436 244.215 204.032C244.366 203.645 244.433 203.238 244.433 202.827C244.433 202.342 244.34 201.863 244.122 201.419C243.942 201.05 243.704 200.712 243.397 200.43C243.077 200.137 242.694 199.927 242.293 199.773C241.942 199.639 241.599 199.534 241.267 199.467C240.955 199.405 240.595 199.359 240.199 199.327C239.812 199.295 239.472 199.279 239.194 199.285C238.981 199.29 238.711 199.295 238.384 199.3C238.051 199.305 237.862 199.308 237.803 199.308H236.621V200.49V205.149V206.304V206.331V207.486V212.616V213.798H237.803C237.871 213.798 238.047 213.8 238.344 213.805C238.641 213.81 238.891 213.813 239.093 213.813C239.311 213.813 239.599 213.804 239.949 213.789C240.308 213.773 240.628 213.751 240.905 213.723C241.193 213.694 241.514 213.645 241.864 213.581C242.233 213.513 242.575 213.428 242.88 213.322C243.177 213.219 243.473 213.087 243.767 212.931C244.113 212.747 244.434 212.513 244.699 212.214C244.945 211.935 245.135 211.618 245.277 211.276C245.439 210.883 245.51 210.47 245.51 210.051C245.51 209.518 245.398 208.998 245.143 208.521C244.926 208.117 244.644 207.758 244.288 207.467C243.931 207.175 243.508 206.962 243.059 206.804C242.659 206.663 242.273 206.552 241.904 206.479C241.534 206.405 241.106 206.354 240.63 206.322C240.446 206.309 240.275 206.299 240.117 206.291Z" stroke="url(#paint36_linear_1163_4974)" stroke-width="2.36408"/>
</g>
<g filter="url(#filter21_b_1163_4974)">
<path d="M166.433 75.0808L157.74 69.9459L166.432 82.1988L175.132 69.9459L166.429 75.0808H166.433ZM166.565 53.8684L157.87 68.2968L166.564 73.4365L175.258 68.3016L166.565 53.8684Z" fill="url(#paint37_linear_1163_4974)"/>
<path d="M166.433 76.4069H168.918L166.432 79.9075L163.949 76.4069H166.429H166.433ZM163.823 75.0791L163.248 75.4184L162.419 74.2499L163.823 75.0791ZM169.617 75.4217L169.04 75.0804L170.451 74.2475L169.617 75.4217ZM173.432 67.84L166.564 71.8962L159.696 67.8359L166.565 56.4381L173.432 67.84Z" stroke="url(#paint38_linear_1163_4974)" stroke-width="2.65216"/>
</g>
</g>
<defs>
<filter id="filter0_f_1163_4974" x="-55.6411" y="-24.9833" width="419.242" height="427.767" filterUnits="userSpaceOnUse" color-interpolation-filters="sRGB">
<feFlood flood-opacity="0" result="BackgroundImageFix"/>
<feBlend mode="normal" in="SourceGraphic" in2="BackgroundImageFix" result="shape"/>
<feGaussianBlur stdDeviation="53.6589" result="effect1_foregroundBlur_1163_4974"/>
</filter>
<filter id="filter1_i_1163_4974" x="153.979" y="135.898" width="95.4492" height="96.4644" filterUnits="userSpaceOnUse" color-interpolation-filters="sRGB">
<feFlood flood-opacity="0" result="BackgroundImageFix"/>
<feBlend mode="normal" in="SourceGraphic" in2="BackgroundImageFix" result="shape"/>
<feColorMatrix in="SourceAlpha" type="matrix" values="0 0 0 0 0 0 0 0 0 0 0 0 0 0 0 0 0 0 127 0" result="hardAlpha"/>
<feOffset dy="-1.52312"/>
<feGaussianBlur stdDeviation="0.507707"/>
<feComposite in2="hardAlpha" operator="arithmetic" k2="-1" k3="1"/>
<feColorMatrix type="matrix" values="0 0 0 0 1 0 0 0 0 1 0 0 0 0 1 0 0 0 0.21 0"/>
<feBlend mode="normal" in2="shape" result="effect1_innerShadow_1163_4974"/>
</filter>
<filter id="filter2_i_1163_4974" x="106.255" y="183.622" width="95.4492" height="96.4644" filterUnits="userSpaceOnUse" color-interpolation-filters="sRGB">
<feFlood flood-opacity="0" result="BackgroundImageFix"/>
<feBlend mode="normal" in="SourceGraphic" in2="BackgroundImageFix" result="shape"/>
<feColorMatrix in="SourceAlpha" type="matrix" values="0 0 0 0 0 0 0 0 0 0 0 0 0 0 0 0 0 0 127 0" result="hardAlpha"/>
<feOffset dy="-1.52312"/>
<feGaussianBlur stdDeviation="0.507707"/>
<feComposite in2="hardAlpha" operator="arithmetic" k2="-1" k3="1"/>
<feColorMatrix type="matrix" values="0 0 0 0 1 0 0 0 0 1 0 0 0 0 1 0 0 0 0.21 0"/>
<feBlend mode="normal" in2="shape" result="effect1_innerShadow_1163_4974"/>
</filter>
<filter id="filter3_i_1163_4974" x="58.5312" y="135.898" width="95.4492" height="96.4644" filterUnits="userSpaceOnUse" color-interpolation-filters="sRGB">
<feFlood flood-opacity="0" result="BackgroundImageFix"/>
<feBlend mode="normal" in="SourceGraphic" in2="BackgroundImageFix" result="shape"/>
<feColorMatrix in="SourceAlpha" type="matrix" values="0 0 0 0 0 0 0 0 0 0 0 0 0 0 0 0 0 0 127 0" result="hardAlpha"/>
<feOffset dy="-1.52312"/>
<feGaussianBlur stdDeviation="0.507707"/>
<feComposite in2="hardAlpha" operator="arithmetic" k2="-1" k3="1"/>
<feColorMatrix type="matrix" values="0 0 0 0 1 0 0 0 0 1 0 0 0 0 1 0 0 0 0.21 0"/>
<feBlend mode="normal" in2="shape" result="effect1_innerShadow_1163_4974"/>
</filter>
<filter id="filter4_i_1163_4974" x="71.2783" y="104.443" width="95.4492" height="96.4649" filterUnits="userSpaceOnUse" color-interpolation-filters="sRGB">
<feFlood flood-opacity="0" result="BackgroundImageFix"/>
<feBlend mode="normal" in="SourceGraphic" in2="BackgroundImageFix" result="shape"/>
<feColorMatrix in="SourceAlpha" type="matrix" values="0 0 0 0 0 0 0 0 0 0 0 0 0 0 0 0 0 0 127 0" result="hardAlpha"/>
<feOffset dy="1.52312"/>
<feGaussianBlur stdDeviation="0.507707"/>
<feComposite in2="hardAlpha" operator="arithmetic" k2="-1" k3="1"/>
<feColorMatrix type="matrix" values="0 0 0 0 1 0 0 0 0 1 0 0 0 0 1 0 0 0 0.21 0"/>
<feBlend mode="normal" in2="shape" result="effect1_innerShadow_1163_4974"/>
</filter>
<filter id="filter5_i_1163_4974" x="106.255" y="89.1886" width="95.4492" height="96.4644" filterUnits="userSpaceOnUse" color-interpolation-filters="sRGB">
<feFlood flood-opacity="0" result="BackgroundImageFix"/>
<feBlend mode="normal" in="SourceGraphic" in2="BackgroundImageFix" result="shape"/>
<feColorMatrix in="SourceAlpha" type="matrix" values="0 0 0 0 0 0 0 0 0 0 0 0 0 0 0 0 0 0 127 0" result="hardAlpha"/>
<feOffset dy="1.52312"/>
<feGaussianBlur stdDeviation="0.507707"/>
<feComposite in2="hardAlpha" operator="arithmetic" k2="-1" k3="1"/>
<feColorMatrix type="matrix" values="0 0 0 0 1 0 0 0 0 1 0 0 0 0 1 0 0 0 0.21 0"/>
<feBlend mode="normal" in2="shape" result="effect1_innerShadow_1163_4974"/>
</filter>
<filter id="filter6_i_1163_4974" x="138.725" y="101.936" width="95.4492" height="96.4648" filterUnits="userSpaceOnUse" color-interpolation-filters="sRGB">
<feFlood flood-opacity="0" result="BackgroundImageFix"/>
<feBlend mode="normal" in="SourceGraphic" in2="BackgroundImageFix" result="shape"/>
<feColorMatrix in="SourceAlpha" type="matrix" values="0 0 0 0 0 0 0 0 0 0 0 0 0 0 0 0 0 0 127 0" result="hardAlpha"/>
<feOffset dy="1.52312"/>
<feGaussianBlur stdDeviation="0.507707"/>
<feComposite in2="hardAlpha" operator="arithmetic" k2="-1" k3="1"/>
<feColorMatrix type="matrix" values="0 0 0 0 1 0 0 0 0 1 0 0 0 0 1 0 0 0 0.21 0"/>
<feBlend mode="normal" in2="shape" result="effect1_innerShadow_1163_4974"/>
</filter>
<filter id="filter7_i_1163_4974" x="153.979" y="136.913" width="95.4492" height="96.4644" filterUnits="userSpaceOnUse" color-interpolation-filters="sRGB">
<feFlood flood-opacity="0" result="BackgroundImageFix"/>
<feBlend mode="normal" in="SourceGraphic" in2="BackgroundImageFix" result="shape"/>
<feColorMatrix in="SourceAlpha" type="matrix" values="0 0 0 0 0 0 0 0 0 0 0 0 0 0 0 0 0 0 127 0" result="hardAlpha"/>
<feOffset dy="1.52312"/>
<feGaussianBlur stdDeviation="0.507707"/>
<feComposite in2="hardAlpha" operator="arithmetic" k2="-1" k3="1"/>
<feColorMatrix type="matrix" values="0 0 0 0 1 0 0 0 0 1 0 0 0 0 1 0 0 0 0.21 0"/>
<feBlend mode="normal" in2="shape" result="effect1_innerShadow_1163_4974"/>
</filter>
<filter id="filter8_f_1163_4974" x="104.732" y="135.39" width="98.4953" height="98.4952" filterUnits="userSpaceOnUse" color-interpolation-filters="sRGB">
<feFlood flood-opacity="0" result="BackgroundImageFix"/>
<feBlend mode="normal" in="SourceGraphic" in2="BackgroundImageFix" result="shape"/>
<feGaussianBlur stdDeviation="9.13873" result="effect1_foregroundBlur_1163_4974"/>
</filter>
<filter id="filter9_b_1163_4974" x="74.0673" y="67.2722" width="173.915" height="173.915" filterUnits="userSpaceOnUse" color-interpolation-filters="sRGB">
<feFlood flood-opacity="0" result="BackgroundImageFix"/>
<feGaussianBlur in="BackgroundImageFix" stdDeviation="11.1807"/>
<feComposite in2="SourceAlpha" operator="in" result="effect1_backgroundBlur_1163_4974"/>
<feBlend mode="normal" in="SourceGraphic" in2="effect1_backgroundBlur_1163_4974" result="shape"/>
</filter>
<filter id="filter10_b_1163_4974" x="35.1831" y="76.3341" width="182.644" height="197.396" filterUnits="userSpaceOnUse" color-interpolation-filters="sRGB">
<feFlood flood-opacity="0" result="BackgroundImageFix"/>
<feGaussianBlur in="BackgroundImageFix" stdDeviation="7.37964"/>
<feComposite in2="SourceAlpha" operator="in" result="effect1_backgroundBlur_1163_4974"/>
<feBlend mode="normal" in="SourceGraphic" in2="effect1_backgroundBlur_1163_4974" result="shape"/>
</filter>
<filter id="filter11_b_1163_4974" x="81.2759" y="219.532" width="90.3623" height="54.1979" filterUnits="userSpaceOnUse" color-interpolation-filters="sRGB">
<feFlood flood-opacity="0" result="BackgroundImageFix"/>
<feGaussianBlur in="BackgroundImageFix" stdDeviation="7.37964"/>
<feComposite in2="SourceAlpha" operator="in" result="effect1_backgroundBlur_1163_4974"/>
<feBlend mode="normal" in="SourceGraphic" in2="effect1_backgroundBlur_1163_4974" result="shape"/>
</filter>
<filter id="filter12_b_1163_4974" x="35.2183" y="166.562" width="93.1367" height="82.0886" filterUnits="userSpaceOnUse" color-interpolation-filters="sRGB">
<feFlood flood-opacity="0" result="BackgroundImageFix"/>
<feGaussianBlur in="BackgroundImageFix" stdDeviation="7.37964"/>
<feComposite in2="SourceAlpha" operator="in" result="effect1_backgroundBlur_1163_4974"/>
<feBlend mode="normal" in="SourceGraphic" in2="effect1_backgroundBlur_1163_4974" result="shape"/>
</filter>
<filter id="filter13_b_1163_4974" x="44.0757" y="101.104" width="173.751" height="147.707" filterUnits="userSpaceOnUse" color-interpolation-filters="sRGB">
<feFlood flood-opacity="0" result="BackgroundImageFix"/>
<feGaussianBlur in="BackgroundImageFix" stdDeviation="7.37964"/>
<feComposite in2="SourceAlpha" operator="in" result="effect1_backgroundBlur_1163_4974"/>
<feBlend mode="normal" in="SourceGraphic" in2="effect1_backgroundBlur_1163_4974" result="shape"/>
</filter>
<filter id="filter14_b_1163_4974" x="35.1831" y="101.501" width="64.9922" height="82.1511" filterUnits="userSpaceOnUse" color-interpolation-filters="sRGB">
<feFlood flood-opacity="0" result="BackgroundImageFix"/>
<feGaussianBlur in="BackgroundImageFix" stdDeviation="7.37964"/>
<feComposite in2="SourceAlpha" operator="in" result="effect1_backgroundBlur_1163_4974"/>
<feBlend mode="normal" in="SourceGraphic" in2="effect1_backgroundBlur_1163_4974" result="shape"/>
</filter>
<filter id="filter15_b_1163_4974" x="68.2446" y="76.3341" width="103.458" height="77.5905" filterUnits="userSpaceOnUse" color-interpolation-filters="sRGB">
<feFlood flood-opacity="0" result="BackgroundImageFix"/>
<feGaussianBlur in="BackgroundImageFix" stdDeviation="7.37964"/>
<feComposite in2="SourceAlpha" operator="in" result="effect1_backgroundBlur_1163_4974"/>
<feBlend mode="normal" in="SourceGraphic" in2="effect1_backgroundBlur_1163_4974" result="shape"/>
</filter>
<filter id="filter16_b_1163_4974" x="152.807" y="101.593" width="64.9365" height="82.0071" filterUnits="userSpaceOnUse" color-interpolation-filters="sRGB">
<feFlood flood-opacity="0" result="BackgroundImageFix"/>
<feGaussianBlur in="BackgroundImageFix" stdDeviation="7.37964"/>
<feComposite in2="SourceAlpha" operator="in" result="effect1_backgroundBlur_1163_4974"/>
<feBlend mode="normal" in="SourceGraphic" in2="effect1_backgroundBlur_1163_4974" result="shape"/>
</filter>
<filter id="filter17_b_1163_4974" x="183.43" y="44.5348" width="64.6749" height="64.6518" filterUnits="userSpaceOnUse" color-interpolation-filters="sRGB">
<feFlood flood-opacity="0" result="BackgroundImageFix"/>
<feGaussianBlur in="BackgroundImageFix" stdDeviation="10.147"/>
<feComposite in2="SourceAlpha" operator="in" result="effect1_backgroundBlur_1163_4974"/>
<feBlend mode="normal" in="SourceGraphic" in2="effect1_backgroundBlur_1163_4974" result="shape"/>
</filter>
<filter id="filter18_b_1163_4974" x="217.62" y="85.9977" width="56.8923" height="53.9708" filterUnits="userSpaceOnUse" color-interpolation-filters="sRGB">
<feFlood flood-opacity="0" result="BackgroundImageFix"/>
<feGaussianBlur in="BackgroundImageFix" stdDeviation="9.83952"/>
<feComposite in2="SourceAlpha" operator="in" result="effect1_backgroundBlur_1163_4974"/>
<feBlend mode="normal" in="SourceGraphic" in2="effect1_backgroundBlur_1163_4974" result="shape"/>
</filter>
<filter id="filter19_b_1163_4974" x="226.38" y="131.996" width="62.8093" height="59.7045" filterUnits="userSpaceOnUse" color-interpolation-filters="sRGB">
<feFlood flood-opacity="0" result="BackgroundImageFix"/>
<feGaussianBlur in="BackgroundImageFix" stdDeviation="9.83952"/>
<feComposite in2="SourceAlpha" operator="in" result="effect1_backgroundBlur_1163_4974"/>
<feBlend mode="normal" in="SourceGraphic" in2="effect1_backgroundBlur_1163_4974" result="shape"/>
</filter>
<filter id="filter20_b_1163_4974" x="209.454" y="172.733" width="60.8006" height="67.8067" filterUnits="userSpaceOnUse" color-interpolation-filters="sRGB">
<feFlood flood-opacity="0" result="BackgroundImageFix"/>
<feGaussianBlur in="BackgroundImageFix" stdDeviation="10.6384"/>
<feComposite in2="SourceAlpha" operator="in" result="effect1_backgroundBlur_1163_4974"/>
<feBlend mode="normal" in="SourceGraphic" in2="effect1_backgroundBlur_1163_4974" result="shape"/>
</filter>
<filter id="filter21_b_1163_4974" x="133.871" y="29.9989" width="65.2565" height="76.0694" filterUnits="userSpaceOnUse" color-interpolation-filters="sRGB">
<feFlood flood-opacity="0" result="BackgroundImageFix"/>
<feGaussianBlur in="BackgroundImageFix" stdDeviation="11.9347"/>
<feComposite in2="SourceAlpha" operator="in" result="effect1_backgroundBlur_1163_4974"/>
<feBlend mode="normal" in="SourceGraphic" in2="effect1_backgroundBlur_1163_4974" result="shape"/>
</filter>
<radialGradient id="paint0_angular_1163_4974" cx="0" cy="0" r="1" gradientUnits="userSpaceOnUse" gradientTransform="translate(186.449 149.661) rotate(90) scale(47.7245)">
<stop stop-color="#F37322"/>
<stop offset="0.685417"/>
</radialGradient>
<radialGradient id="paint1_angular_1163_4974" cx="0" cy="0" r="1" gradientUnits="userSpaceOnUse" gradientTransform="translate(201.704 184.638) rotate(90) scale(47.7245)">
<stop stop-color="#F37322"/>
<stop offset="0.685417"/>
</radialGradient>
<radialGradient id="paint2_angular_1163_4974" cx="0" cy="0" r="1" gradientUnits="userSpaceOnUse" gradientTransform="translate(188.956 217.107) rotate(90) scale(47.7245)">
<stop stop-color="#F37322"/>
<stop offset="0.685417"/>
</radialGradient>
<radialGradient id="paint3_angular_1163_4974" cx="0" cy="0" r="1" gradientUnits="userSpaceOnUse" gradientTransform="translate(153.98 232.362) rotate(90) scale(47.7245)">
<stop stop-color="#F37322"/>
<stop offset="0.685417"/>
</radialGradient>
<radialGradient id="paint4_angular_1163_4974" cx="0" cy="0" r="1" gradientUnits="userSpaceOnUse" gradientTransform="translate(121.51 219.614) rotate(90) scale(47.7245)">
<stop stop-color="#F37322"/>
<stop offset="0.685417"/>
</radialGradient>
<radialGradient id="paint5_angular_1163_4974" cx="0" cy="0" r="1" gradientUnits="userSpaceOnUse" gradientTransform="translate(106.256 184.638) rotate(90) scale(47.7245)">
<stop stop-color="#F37322"/>
<stop offset="0.685417"/>
</radialGradient>
<radialGradient id="paint6_angular_1163_4974" cx="0" cy="0" r="1" gradientUnits="userSpaceOnUse" gradientTransform="translate(119.003 152.168) rotate(90) scale(47.7245)">
<stop stop-color="#F37322"/>
<stop offset="0.685417"/>
</radialGradient>
<radialGradient id="paint7_angular_1163_4974" cx="0" cy="0" r="1" gradientUnits="userSpaceOnUse" gradientTransform="translate(121.51 219.614) rotate(90) scale(47.7245)">
<stop stop-color="#F37322"/>
<stop offset="0.685417"/>
</radialGradient>
<radialGradient id="paint8_angular_1163_4974" cx="0" cy="0" r="1" gradientUnits="userSpaceOnUse" gradientTransform="translate(106.256 184.638) rotate(90) scale(47.7245)">
<stop stop-color="#F37322"/>
<stop offset="0.685417"/>
</radialGradient>
<radialGradient id="paint9_angular_1163_4974" cx="0" cy="0" r="1" gradientUnits="userSpaceOnUse" gradientTransform="translate(119.003 152.168) rotate(90) scale(47.7245)">
<stop stop-color="#F37322"/>
<stop offset="0.685417"/>
</radialGradient>
<radialGradient id="paint10_angular_1163_4974" cx="0" cy="0" r="1" gradientUnits="userSpaceOnUse" gradientTransform="translate(153.979 136.913) rotate(90) scale(47.7245)">
<stop stop-color="#F37322"/>
<stop offset="0.685417"/>
</radialGradient>
<radialGradient id="paint11_angular_1163_4974" cx="0" cy="0" r="1" gradientUnits="userSpaceOnUse" gradientTransform="translate(186.449 149.661) rotate(90) scale(47.7245)">
<stop stop-color="#F37322"/>
<stop offset="0.685417"/>
</radialGradient>
<radialGradient id="paint12_angular_1163_4974" cx="0" cy="0" r="1" gradientUnits="userSpaceOnUse" gradientTransform="translate(201.704 184.638) rotate(90) scale(47.7245)">
<stop stop-color="#F37322"/>
<stop offset="0.685417"/>
</radialGradient>
<radialGradient id="paint13_angular_1163_4974" cx="0" cy="0" r="1" gradientUnits="userSpaceOnUse" gradientTransform="translate(188.956 217.107) rotate(90) scale(47.7245)">
<stop stop-color="#F37322"/>
<stop offset="0.685417"/>
</radialGradient>
<linearGradient id="paint14_linear_1163_4974" x1="177.585" y1="43.6498" x2="177.585" y2="263.35" gradientUnits="userSpaceOnUse">
<stop stop-color="#F37322"/>
<stop offset="0.717951" stop-color="#EF4444" stop-opacity="0"/>
</linearGradient>
<linearGradient id="paint15_linear_1163_4974" x1="103.722" y1="211.532" x2="218.328" y2="96.9272" gradientUnits="userSpaceOnUse">
<stop stop-color="white" stop-opacity="0.2"/>
<stop offset="1" stop-color="white" stop-opacity="0.49"/>
</linearGradient>
<linearGradient id="paint16_linear_1163_4974" x1="105.548" y1="99.7943" x2="213.541" y2="215.263" gradientUnits="userSpaceOnUse">
<stop stop-color="white"/>
<stop offset="1" stop-color="white" stop-opacity="0"/>
</linearGradient>
<linearGradient id="paint17_linear_1163_4974" x1="99.4701" y1="257.577" x2="114.721" y2="219.978" gradientUnits="userSpaceOnUse">
<stop stop-color="white" stop-opacity="0.2"/>
<stop offset="1" stop-color="white" stop-opacity="0.49"/>
</linearGradient>
<linearGradient id="paint18_linear_1163_4974" x1="100.33" y1="236.232" x2="114.043" y2="272.382" gradientUnits="userSpaceOnUse">
<stop stop-color="white"/>
<stop offset="1" stop-color="white" stop-opacity="0"/>
</linearGradient>
<linearGradient id="paint19_linear_1163_4974" x1="53.5692" y1="230.924" x2="99.3676" y2="175.5" gradientUnits="userSpaceOnUse">
<stop stop-color="white" stop-opacity="0.2"/>
<stop offset="1" stop-color="white" stop-opacity="0.49"/>
</linearGradient>
<linearGradient id="paint20_linear_1163_4974" x1="54.4683" y1="185.456" x2="97.0874" y2="240.603" gradientUnits="userSpaceOnUse">
<stop stop-color="white"/>
<stop offset="1" stop-color="white" stop-opacity="0"/>
</linearGradient>
<linearGradient id="paint21_linear_1163_4974" x1="66.9777" y1="227.379" x2="169.776" y2="101.928" gradientUnits="userSpaceOnUse">
<stop stop-color="white" stop-opacity="0.2"/>
<stop offset="1" stop-color="white" stop-opacity="0.49"/>
</linearGradient>
<linearGradient id="paint22_linear_1163_4974" x1="69.0161" y1="125.158" x2="164.627" y2="249.916" gradientUnits="userSpaceOnUse">
<stop stop-color="white"/>
<stop offset="1" stop-color="white" stop-opacity="0"/>
</linearGradient>
<linearGradient id="paint23_linear_1163_4974" x1="51.9451" y1="165.922" x2="95.2225" y2="136.754" gradientUnits="userSpaceOnUse">
<stop stop-color="white" stop-opacity="0.2"/>
<stop offset="1" stop-color="white" stop-opacity="0.49"/>
</linearGradient>
<linearGradient id="paint24_linear_1163_4974" x1="52.4464" y1="120.4" x2="94.276" y2="150.545" gradientUnits="userSpaceOnUse">
<stop stop-color="white"/>
<stop offset="1" stop-color="white" stop-opacity="0"/>
</linearGradient>
<linearGradient id="paint25_linear_1163_4974" x1="87.1782" y1="136.451" x2="126.154" y2="76.5031" gradientUnits="userSpaceOnUse">
<stop stop-color="white" stop-opacity="0.2"/>
<stop offset="1" stop-color="white" stop-opacity="0.49"/>
</linearGradient>
<linearGradient id="paint26_linear_1163_4974" x1="88.2232" y1="94.8741" x2="123.98" y2="153.679" gradientUnits="userSpaceOnUse">
<stop stop-color="white"/>
<stop offset="1" stop-color="white" stop-opacity="0"/>
</linearGradient>
<linearGradient id="paint27_linear_1163_4974" x1="169.566" y1="165.878" x2="212.744" y2="136.743" gradientUnits="userSpaceOnUse">
<stop stop-color="white" stop-opacity="0.2"/>
<stop offset="1" stop-color="white" stop-opacity="0.49"/>
</linearGradient>
<linearGradient id="paint28_linear_1163_4974" x1="170.067" y1="120.481" x2="211.797" y2="150.589" gradientUnits="userSpaceOnUse">
<stop stop-color="white"/>
<stop offset="1" stop-color="white" stop-opacity="0"/>
</linearGradient>
<linearGradient id="paint29_linear_1163_4974" x1="205.083" y1="87.534" x2="226.43" y2="66.1669" gradientUnits="userSpaceOnUse">
<stop stop-color="white" stop-opacity="0.2"/>
<stop offset="1" stop-color="white" stop-opacity="0.49"/>
</linearGradient>
<linearGradient id="paint30_linear_1163_4974" x1="205.424" y1="66.7214" x2="225.538" y2="88.2482" gradientUnits="userSpaceOnUse">
<stop stop-color="white"/>
<stop offset="1" stop-color="white" stop-opacity="0"/>
</linearGradient>
<linearGradient id="paint31_linear_1163_4974" x1="238.289" y1="119.464" x2="251.039" y2="104.165" gradientUnits="userSpaceOnUse">
<stop stop-color="white" stop-opacity="0.2"/>
<stop offset="1" stop-color="white" stop-opacity="0.49"/>
</linearGradient>
<linearGradient id="paint32_linear_1163_4974" x1="238.537" y1="106.826" x2="250.408" y2="122.057" gradientUnits="userSpaceOnUse">
<stop stop-color="white"/>
<stop offset="1" stop-color="white" stop-opacity="0"/>
</linearGradient>
<linearGradient id="paint33_linear_1163_4974" x1="247.383" y1="170.873" x2="265.251" y2="150.278" gradientUnits="userSpaceOnUse">
<stop stop-color="white" stop-opacity="0.2"/>
<stop offset="1" stop-color="white" stop-opacity="0.49"/>
</linearGradient>
<linearGradient id="paint34_linear_1163_4974" x1="247.714" y1="153.275" x2="264.394" y2="173.832" gradientUnits="userSpaceOnUse">
<stop stop-color="white"/>
<stop offset="1" stop-color="white" stop-opacity="0"/>
</linearGradient>
<linearGradient id="paint35_linear_1163_4974" x1="231.761" y1="217.837" x2="253.03" y2="202.468" gradientUnits="userSpaceOnUse">
<stop stop-color="white" stop-opacity="0.2"/>
<stop offset="1" stop-color="white" stop-opacity="0.49"/>
</linearGradient>
<linearGradient id="paint36_linear_1163_4974" x1="232.019" y1="195.996" x2="252.49" y2="211.812" gradientUnits="userSpaceOnUse">
<stop stop-color="white"/>
<stop offset="1" stop-color="white" stop-opacity="0"/>
</linearGradient>
<linearGradient id="paint37_linear_1163_4974" x1="158.729" y1="80.5994" x2="181.212" y2="66.6973" gradientUnits="userSpaceOnUse">
<stop stop-color="white" stop-opacity="0.2"/>
<stop offset="1" stop-color="white" stop-opacity="0.49"/>
</linearGradient>
<linearGradient id="paint38_linear_1163_4974" x1="158.977" y1="56.0965" x2="180.815" y2="70.5347" gradientUnits="userSpaceOnUse">
<stop stop-color="white"/>
<stop offset="1" stop-color="white" stop-opacity="0"/>
</linearGradient>
<clipPath id="clip0_1163_4974">
<rect width="328.158" height="328.158" fill="white" transform="translate(0.947266 0.920898)"/>
</clipPath>
<clipPath id="clip1_1163_4974">
<rect width="204.606" height="102.303" fill="white" transform="translate(51.6768 184.638)"/>
</clipPath>
<clipPath id="clip2_1163_4974">
<rect width="204.606" height="102.303" fill="white" transform="matrix(-1 0 0 -1 256.283 184.638)"/>
</clipPath>
<clipPath id="clip3_1163_4974">
<rect width="24.0867" height="24.0867" fill="white" transform="translate(203.724 64.8169)"/>
</clipPath>
</defs>
</svg>
