<svg width="575" height="576" viewBox="0 0 575 576" fill="none" xmlns="http://www.w3.org/2000/svg">
<g filter="url(#filter0_f_918_15634)">
<g clip-path="url(#clip0_918_15634)">
<circle cx="332.145" cy="240.24" r="65.3848" transform="rotate(42.8712 332.145 240.24)" fill="url(#paint0_angular_918_15634)"/>
<g filter="url(#filter1_i_918_15634)">
<circle cx="353.045" cy="288.16" r="65.3848" transform="rotate(90 353.045 288.16)" fill="url(#paint1_angular_918_15634)"/>
</g>
<circle cx="335.58" cy="332.645" r="65.3848" transform="rotate(132.871 335.58 332.645)" fill="url(#paint2_angular_918_15634)"/>
<g filter="url(#filter2_i_918_15634)">
<circle cx="287.66" cy="353.545" r="65.3848" transform="rotate(180 287.66 353.545)" fill="url(#paint3_angular_918_15634)"/>
</g>
<circle cx="243.176" cy="336.08" r="65.3848" transform="rotate(-137.129 243.176 336.08)" fill="url(#paint4_angular_918_15634)"/>
<g filter="url(#filter3_i_918_15634)">
<circle cx="222.275" cy="288.16" r="65.3848" transform="rotate(-90 222.275 288.16)" fill="url(#paint5_angular_918_15634)"/>
</g>
<circle cx="239.74" cy="243.675" r="65.3848" transform="rotate(-47.1288 239.74 243.675)" fill="url(#paint6_angular_918_15634)"/>
</g>
<g clip-path="url(#clip1_918_15634)">
<circle cx="287.66" cy="353.545" r="65.3848" transform="rotate(180 287.66 353.545)" fill="url(#paint7_angular_918_15634)"/>
<circle cx="243.176" cy="336.08" r="65.3848" transform="rotate(-137.129 243.176 336.08)" fill="url(#paint8_angular_918_15634)"/>
<circle cx="222.275" cy="288.16" r="65.3848" transform="rotate(-90 222.275 288.16)" fill="url(#paint9_angular_918_15634)"/>
<g filter="url(#filter4_i_918_15634)">
<circle cx="239.741" cy="243.675" r="65.3848" transform="rotate(-47.1288 239.741 243.675)" fill="url(#paint10_angular_918_15634)"/>
</g>
<g filter="url(#filter5_i_918_15634)">
<circle cx="287.66" cy="222.775" r="65.3848" fill="url(#paint11_angular_918_15634)"/>
</g>
<g filter="url(#filter6_i_918_15634)">
<circle cx="332.145" cy="240.24" r="65.3848" transform="rotate(42.8712 332.145 240.24)" fill="url(#paint12_angular_918_15634)"/>
</g>
<g filter="url(#filter7_i_918_15634)">
<circle cx="353.045" cy="288.16" r="65.3848" transform="rotate(90 353.045 288.16)" fill="url(#paint13_angular_918_15634)"/>
</g>
<circle cx="335.58" cy="332.645" r="65.3848" transform="rotate(132.871 335.58 332.645)" fill="url(#paint14_angular_918_15634)"/>
</g>
<g filter="url(#filter8_f_918_15634)">
<circle cx="287.66" cy="288.16" r="42.4306" fill="#9747FF"/>
</g>
</g>
<rect x="169.5" y="95" width="301" height="301" rx="150.5" fill="url(#paint15_linear_918_15634)"/>
<path d="M317.161 169.875C316.802 170.754 316.402 171.583 315.963 172.362C315.523 173.142 315.044 173.891 314.524 174.61C313.845 175.569 313.226 176.388 312.666 177.067C312.107 177.746 311.608 178.285 311.168 178.685C310.529 179.284 309.84 179.744 309.101 180.063C308.361 180.383 307.612 180.543 306.853 180.543C306.294 180.543 305.685 180.463 305.025 180.303C304.366 180.143 303.637 179.904 302.838 179.584C302.079 179.264 301.34 179.035 300.621 178.895C299.901 178.755 299.222 178.685 298.583 178.685C297.864 178.685 297.145 178.755 296.426 178.895C295.706 179.035 294.947 179.264 294.148 179.584C293.349 179.904 292.63 180.153 291.991 180.333C291.352 180.513 290.792 180.603 290.313 180.603C289.594 180.643 288.864 180.503 288.125 180.183C287.386 179.864 286.637 179.364 285.878 178.685C285.438 178.245 284.919 177.676 284.32 176.977C283.721 176.278 283.081 175.429 282.402 174.43C281.643 173.391 280.954 172.253 280.335 171.014C279.715 169.775 279.146 168.457 278.627 167.059C278.107 165.54 277.718 164.042 277.458 162.564C277.198 161.086 277.068 159.647 277.068 158.249C277.068 156.611 277.248 155.093 277.608 153.694C277.967 152.296 278.507 150.998 279.226 149.799C279.785 148.88 280.424 148.041 281.144 147.282C281.863 146.523 282.682 145.884 283.601 145.364C284.56 144.805 285.528 144.385 286.507 144.106C287.486 143.826 288.515 143.666 289.594 143.626C290.193 143.626 290.882 143.716 291.661 143.896C292.44 144.076 293.309 144.345 294.268 144.705C295.187 145.065 295.956 145.334 296.575 145.514C297.195 145.694 297.644 145.784 297.924 145.784C298.124 145.784 298.563 145.684 299.242 145.484C299.921 145.284 300.84 144.965 301.999 144.525C303.078 144.126 304.077 143.846 304.995 143.686C305.914 143.526 306.753 143.486 307.512 143.566C309.55 143.726 311.338 144.206 312.876 145.005C314.414 145.804 315.703 146.942 316.742 148.421C314.904 149.499 313.535 150.818 312.636 152.376C311.737 153.934 311.288 155.712 311.288 157.71C311.288 159.268 311.578 160.686 312.157 161.965C312.736 163.243 313.565 164.402 314.644 165.441C315.163 165.92 315.703 166.34 316.262 166.699C316.821 167.059 317.401 167.378 318 167.658C317.88 168.018 317.75 168.387 317.611 168.767C317.471 169.146 317.321 169.516 317.161 169.875Z" fill="url(#paint16_radial_918_15634)"/>
<g opacity="0.5">
<mask id="mask0_918_15634" style="mask-type:alpha" maskUnits="userSpaceOnUse" x="277" y="143" width="41" height="38">
<path d="M317.093 169.875C316.733 170.754 316.334 171.583 315.894 172.362C315.455 173.142 314.975 173.891 314.456 174.61C313.777 175.569 313.157 176.388 312.598 177.067C312.039 177.746 311.539 178.285 311.1 178.685C310.461 179.284 309.771 179.744 309.032 180.063C308.293 180.383 307.544 180.543 306.785 180.543C306.226 180.543 305.616 180.463 304.957 180.303C304.298 180.143 303.569 179.904 302.77 179.584C302.011 179.264 301.271 179.035 300.552 178.895C299.833 178.755 299.154 178.685 298.515 178.685C297.795 178.685 297.076 178.755 296.357 178.895C295.638 179.035 294.879 179.264 294.08 179.584C293.281 179.904 292.562 180.153 291.922 180.333C291.283 180.513 290.724 180.603 290.244 180.603C289.525 180.643 288.796 180.503 288.057 180.183C287.318 179.864 286.569 179.364 285.81 178.685C285.37 178.245 284.851 177.676 284.251 176.977C283.652 176.278 283.013 175.429 282.334 174.43C281.575 173.391 280.885 172.253 280.266 171.014C279.647 169.775 279.078 168.457 278.558 167.059C278.039 165.54 277.649 164.042 277.39 162.564C277.13 161.086 277 159.647 277 158.249C277 156.611 277.18 155.093 277.539 153.694C277.899 152.296 278.438 150.998 279.157 149.799C279.717 148.88 280.356 148.041 281.075 147.282C281.794 146.523 282.613 145.884 283.532 145.364C284.491 144.805 285.46 144.385 286.439 144.106C287.418 143.826 288.446 143.666 289.525 143.626C290.125 143.626 290.814 143.716 291.593 143.896C292.372 144.076 293.241 144.345 294.2 144.705C295.119 145.065 295.888 145.334 296.507 145.514C297.126 145.694 297.576 145.784 297.855 145.784C298.055 145.784 298.495 145.684 299.174 145.484C299.853 145.284 300.772 144.965 301.931 144.525C303.009 144.126 304.008 143.846 304.927 143.686C305.846 143.526 306.685 143.486 307.444 143.566C309.482 143.726 311.27 144.206 312.808 145.005C314.346 145.804 315.634 146.942 316.673 148.421C314.835 149.499 313.467 150.818 312.568 152.376C311.669 153.934 311.22 155.712 311.22 157.71C311.22 159.268 311.509 160.686 312.089 161.965C312.668 163.243 313.497 164.402 314.576 165.441C315.095 165.92 315.634 166.34 316.194 166.699C316.753 167.059 317.332 167.378 317.932 167.658C317.812 168.018 317.682 168.387 317.542 168.767C317.402 169.146 317.253 169.516 317.093 169.875Z" fill="#303638"/>
</mask>
<g mask="url(#mask0_918_15634)">
<g opacity="0.7" filter="url(#filter9_i_918_15634)">
<circle cx="315.639" cy="158.148" r="9.78779" fill="url(#paint17_linear_918_15634)"/>
</g>
</g>
</g>
<mask id="mask1_918_15634" style="mask-type:alpha" maskUnits="userSpaceOnUse" x="297" y="132" width="11" height="12">
<path d="M307.811 133.019C307.811 134.217 307.582 135.386 307.122 136.525C306.663 137.663 305.994 138.752 305.115 139.791C304.036 141.029 302.867 141.988 301.609 142.667C300.35 143.347 299.022 143.626 297.623 143.506C297.583 143.347 297.563 143.197 297.563 143.057C297.563 142.917 297.563 142.767 297.563 142.607C297.563 141.409 297.803 140.21 298.283 139.012C298.762 137.813 299.461 136.714 300.38 135.716C300.82 135.196 301.329 134.717 301.908 134.277C302.488 133.838 303.117 133.458 303.796 133.139C304.515 132.779 305.194 132.509 305.834 132.33C306.473 132.15 307.112 132.04 307.751 132C307.751 132.16 307.761 132.33 307.781 132.509C307.801 132.689 307.811 132.859 307.811 133.019Z" fill="#303638"/>
</mask>
<g mask="url(#mask1_918_15634)">
<path d="M307.811 133.019C307.811 134.217 307.582 135.386 307.122 136.525C306.663 137.663 305.994 138.752 305.115 139.791C304.036 141.029 302.867 141.988 301.609 142.667C300.35 143.347 299.022 143.626 297.623 143.506C297.583 143.347 297.563 143.197 297.563 143.057C297.563 142.917 297.563 142.767 297.563 142.607C297.563 141.409 297.803 140.21 298.283 139.012C298.762 137.813 299.461 136.714 300.38 135.716C300.82 135.196 301.329 134.717 301.908 134.277C302.488 133.838 303.117 133.458 303.796 133.139C304.515 132.779 305.194 132.509 305.834 132.33C306.473 132.15 307.112 132.04 307.751 132C307.751 132.16 307.761 132.33 307.781 132.509C307.801 132.689 307.811 132.859 307.811 133.019Z" fill="white"/>
<path opacity="0.5" d="M311.681 135.56C311.681 137.394 311.33 139.181 310.627 140.922C309.924 142.664 308.901 144.329 307.557 145.918C305.907 147.812 304.119 149.278 302.195 150.317C300.27 151.356 298.238 151.784 296.099 151.6C296.038 151.356 296.008 151.127 296.008 150.913C296.008 150.699 296.008 150.47 296.008 150.225C296.008 148.392 296.374 146.559 297.108 144.726C297.841 142.893 298.91 141.213 300.316 139.685C300.988 138.891 301.767 138.157 302.653 137.485C303.539 136.813 304.501 136.233 305.54 135.744C306.64 135.194 307.679 134.781 308.656 134.506C309.634 134.231 310.612 134.063 311.589 134.002C311.589 134.247 311.605 134.506 311.635 134.781C311.666 135.056 311.681 135.316 311.681 135.56Z" fill="url(#paint18_linear_918_15634)"/>
<g opacity="0.2">
<g filter="url(#filter10_f_918_15634)">
<path d="M301.669 138.284C299.787 139.593 297.387 143.295 297.069 144.22H298.018C298.937 141.724 300.71 139.175 301.669 138.284Z" fill="white"/>
</g>
<g filter="url(#filter11_f_918_15634)">
<path d="M301.669 138.284C299.787 139.593 297.387 143.295 297.069 144.22H298.018C298.937 141.724 300.71 139.175 301.669 138.284Z" fill="white"/>
</g>
</g>
</g>
<path d="M336.799 182.67L336.797 182.67C336.706 182.71 336.641 182.79 336.616 182.882L332.846 196.73C332.57 197.745 333.544 198.672 334.517 198.32C337.892 197.096 340.511 196.844 342.686 197.155C344.861 197.465 346.609 198.341 348.24 199.404C348.948 199.865 349.889 199.506 350.118 198.675L353.991 184.618C354.136 184.095 353.947 183.524 353.5 183.219C351.625 181.937 349.581 180.865 346.93 180.585C344.281 180.306 341.05 180.821 336.799 182.67ZM346.322 177.85L346.322 177.85C349.247 177.873 351.453 178.936 353.454 180.249C354.162 180.714 355.105 180.354 355.333 179.522L359.149 165.619C359.293 165.095 359.103 164.525 358.657 164.219C356.814 162.956 354.812 161.865 352.23 161.532C349.649 161.199 346.511 161.626 342.396 163.357C342.046 163.504 341.784 163.814 341.682 164.185L337.991 177.691C337.715 178.704 338.682 179.637 339.656 179.271C342.288 178.284 344.455 177.835 346.322 177.85ZM357.639 186.025C356.93 185.565 355.988 185.924 355.759 186.755L351.94 200.638C351.797 201.161 351.986 201.731 352.431 202.037C354.273 203.302 356.273 204.393 358.852 204.726C361.431 205.059 364.567 204.632 368.68 202.902C369.03 202.754 369.293 202.444 369.394 202.073L372.978 188.909C373.244 187.929 372.344 187.015 371.386 187.306C367.925 188.359 365.294 188.557 363.132 188.237C360.97 187.917 359.26 187.077 357.639 186.025ZM378.217 169.758C378.495 168.743 377.521 167.814 376.547 168.167C373.178 169.389 370.549 169.655 368.363 169.359C366.177 169.063 364.417 168.205 362.786 167.151C362.076 166.692 361.133 167.052 360.905 167.885L357.084 181.876C356.942 182.398 357.13 182.968 357.577 183.272C359.434 184.539 361.519 185.641 364.138 185.97C366.758 186.298 369.892 185.85 373.847 184.053C374.181 183.901 374.43 183.599 374.528 183.24L378.217 169.758Z" fill="white" stroke="white" stroke-width="0.403125"/>
<path d="M394.346 216.929L393.715 219.327L390.62 221.721L385.715 225.679L383.699 229.667L384.139 236.373L388.756 240.471L396.893 243.104L405.963 241.06L411.662 235.095L406.209 225.069L405.337 220.146L394.346 216.929Z" fill="#ECEFF1"/>
<path d="M411.091 228.799C409.754 225.763 408.512 223.777 408.555 220.508C408.598 217.24 409.514 218.442 409.555 215.626C409.592 214.167 409.235 213.033 408.811 212.103C408.255 211.131 407.469 210.424 406.978 210.152C405.962 209.257 403.472 207.546 399.596 207.876C395.588 208.163 394.987 211.364 393.621 217.826C393.489 218.235 393.192 218.705 392.797 219.03C391.973 219.782 390.789 220.304 389.77 220.767C388.52 221.494 387.27 222.221 386.249 223.136C383.912 224.982 381.507 227.486 381.536 228.74C382.225 228.85 387.309 241.361 387.243 241.565C387.801 241.633 390.032 242.355 392 242.992C394.789 243.781 396.397 244.188 398.496 245.32C398.595 245.013 398.563 244.663 398.663 244.356C398.862 243.741 399.159 243.271 399.522 242.597C399.819 242.127 400.116 241.657 400.446 241.085C398.835 241.582 396.142 241.842 393.811 241.428C391.744 241.098 388.629 239.524 387.551 237.478C387.682 237.52 387.945 237.605 388.109 237.545C388.536 237.57 388.963 237.595 389.16 237.433C389.72 237.048 389.623 236.451 389.46 236.058C389.297 235.666 387.694 233.902 386.974 232.99C386.254 232.078 385.829 231.601 385.436 231.021C385.436 231.021 384.848 230.152 384.652 229.862C384.456 229.572 384.391 229.325 384.293 229.18C384.196 228.583 384.264 227.926 384.66 227.149C385.156 226.064 385.979 225.312 386.967 224.5C387.362 224.175 388.284 223.568 388.284 223.568C388.284 223.568 384.66 227.149 385.41 228.863C385.41 228.863 385.972 227.573 386.928 226.411C387.62 225.617 388.708 224.497 389.727 224.035C390.746 223.573 393.577 221.546 394.239 219.949C394.471 219.232 394.834 218.558 395 218.046C394.607 217.466 404.125 219.414 404.285 220.711C404.284 221.163 404.927 225.446 405.347 227.732C405.574 228.824 405.965 229.856 406.027 231.008C406.056 232.262 405.821 233.884 405.324 235.42C405.224 235.728 405.058 236.24 404.761 236.71C405.024 236.795 411.534 234.148 406.658 228.609C406.658 228.609 409.902 231.13 409.171 233.836C408.606 236.03 406.861 237.389 406.499 237.612C406.63 237.654 408.957 239.425 409.088 239.468C409.613 239.638 410.762 239.67 410.762 239.67C410.993 239.405 411.652 238.713 411.751 238.406C413.432 236.347 412.428 231.834 411.091 228.799Z" fill="#263238"/>
<path d="M396.613 216.644C397.555 216.949 398.616 216.278 398.982 215.147C399.348 214.015 398.882 212.851 397.939 212.546C396.997 212.241 395.937 212.911 395.57 214.043C395.204 215.174 395.671 216.339 396.613 216.644Z" fill="#ECEFF1"/>
<path d="M402.452 218.76C403.684 219.158 405.024 218.427 405.445 217.125C405.866 215.824 405.209 214.446 403.977 214.047C402.745 213.648 401.405 214.38 400.984 215.681C400.562 216.983 401.22 218.361 402.452 218.76Z" fill="#ECEFF1"/>
<path d="M398.185 215.043C398.293 214.335 397.961 213.668 397.441 213.555C396.922 213.442 396.413 213.925 396.304 214.633C396.195 215.342 396.527 216.009 397.047 216.122C397.566 216.235 398.076 215.752 398.185 215.043Z" fill="#212121"/>
<path d="M402.52 218.103C403.244 218.337 404.025 217.931 404.263 217.195C404.501 216.46 404.106 215.674 403.382 215.439C402.657 215.204 401.876 215.611 401.638 216.346C401.4 217.082 401.795 217.868 402.52 218.103Z" fill="#212121"/>
<path d="M413.11 244.957C412.651 244.582 411.832 243.978 411.343 242.801C411.115 242.161 411.71 240.769 411.253 239.942C410.992 239.405 410.401 239.44 410.27 239.398C409.022 239.22 405.802 239.763 404.496 237.529C404.299 237.239 404.005 236.805 403.349 236.592C402.693 236.38 402.364 236.5 401.969 236.825C401.574 237.15 401.475 237.457 401.143 238.481C400.878 239.301 400.579 240.223 400.216 240.898C399.39 242.554 398.665 243.451 398.333 244.476C397.968 245.603 398.13 246.447 398.556 246.924C398.85 247.359 399.44 247.776 400.883 248.243C402.327 248.711 403.378 248.598 404.529 248.178C405.35 247.878 405.942 247.843 408.11 247.413C409.786 247.164 412.315 246.963 412.808 246.784C413.137 246.664 413.564 246.689 413.763 246.074C413.929 245.562 413.47 245.187 413.11 244.957Z" fill="#868686"/>
<path d="M386.633 236.728C385.852 234.664 385.82 234.314 385.233 232.993C384.777 231.713 383.701 229.215 382.651 228.875C381.864 228.62 381.371 228.8 380.713 229.04C380.055 229.28 379.232 230.032 378.148 230.247C377.195 230.505 374.997 229.68 374.273 230.125C373.549 230.57 374.301 231.831 373.803 233.368C373.604 233.983 372.816 234.18 372.552 234.548C372.255 235.017 372.024 235.282 372.154 235.777C372.48 236.561 373.07 236.979 377.299 239.14C379.529 240.314 381.428 242.06 382.839 242.63C384.249 243.2 386.776 243.904 387.671 241.138C388.332 239.541 387.284 238.749 386.633 236.728Z" fill="#868686"/>
<path d="M395.128 218.992C394.473 218.328 393.95 217.706 394.149 217.091C394.348 216.476 394.939 216.441 395.892 216.184C396.056 216.124 397.831 215.567 399.275 216.034C400.718 216.501 402.192 217.77 402.782 218.187C403.897 218.775 405.012 219.362 404.648 220.036C404.185 221.018 403.988 221.181 402.51 221.268C401.525 221.176 399.454 221.751 398.273 221.368C397.748 221.199 396.961 220.944 396.469 220.671C396.109 220.442 395.618 219.717 395.128 218.992Z" fill="#868686"/>
<path d="M395.131 218.088C395.327 218.378 395.655 218.71 396.015 218.94C396.245 219.127 396.605 219.357 396.605 219.357C397.13 219.527 397.524 219.654 397.786 219.739C398.442 219.952 399.427 220.044 400.478 219.932C401.496 219.922 401.694 219.759 402.416 219.767C403.172 219.672 403.928 219.577 403.698 219.389C403.469 219.202 403.173 219.219 402.122 219.332C401.202 219.487 400.48 219.479 399.593 219.532C399.166 219.507 398.575 219.542 398.181 219.415C397.787 219.287 397.394 219.16 397 219.032C396.606 218.905 396.377 218.718 396.017 218.488C395.787 218.3 395.689 218.155 395.558 218.113C395.329 217.926 394.936 217.346 394.707 217.158C394.707 217.158 394.445 217.074 394.543 217.218C394.837 217.653 394.935 217.798 395.131 218.088Z" fill="#7A7A7A"/>
<path d="M399.798 217.108C399.862 217.356 400.125 217.441 400.223 217.585C400.321 217.73 400.452 217.773 400.452 217.773C400.617 217.713 400.552 217.466 400.421 217.423C400.487 217.218 399.831 217.006 399.798 217.108Z" fill="#7A7A7A"/>
<path d="M397.631 216.634C397.598 216.736 397.827 216.923 397.86 216.821C398.025 216.761 398.189 216.701 398.32 216.744C398.616 216.726 398.518 216.581 398.124 216.454C397.829 216.471 397.795 216.574 397.631 216.634Z" fill="#7A7A7A"/>
<path d="M404.492 238.886C404.459 238.988 404.426 239.091 404.392 239.193C404.522 239.688 405.145 240.003 405.67 240.173C406.458 240.428 407.378 240.273 407.904 239.99C407.937 239.888 408.101 239.828 408.266 239.768C408.628 239.545 408.825 239.383 408.99 239.323C408.99 239.323 408.892 239.178 408.925 239.076C408.86 238.828 408.532 238.496 408.041 238.224C407.68 237.994 407.057 237.679 406.795 237.594C405.647 237.109 404.891 237.204 404.398 237.384C404.398 237.384 404.529 237.427 404.496 237.529C404.692 237.819 404.757 238.066 404.658 238.374C404.723 238.621 404.558 238.681 404.492 238.886Z" fill="#455A64"/>
<g filter="url(#filter12_f_918_15634)">
<path d="M372.359 332.906C367.189 306.233 343.712 286.103 315.517 286.103C287.322 286.103 263.845 306.233 258.675 332.906C257.553 338.662 262.105 344 267.961 344H363.056C368.929 344 373.464 338.679 372.342 332.906H372.359Z" fill="url(#paint19_linear_918_15634)"/>
<path d="M315.517 272.499C331.394 272.499 344.264 259.629 344.264 243.752C344.264 227.875 331.394 215.005 315.517 215.005C299.64 215.005 286.77 227.875 286.77 243.752C286.77 259.629 299.64 272.499 315.517 272.499Z" fill="url(#paint20_linear_918_15634)"/>
</g>
<path d="M372.359 332.906C367.189 306.233 343.712 286.103 315.517 286.103C287.322 286.103 263.845 306.233 258.675 332.906C257.553 338.662 262.105 344 267.961 344H363.056C368.929 344 373.464 338.679 372.342 332.906H372.359Z" fill="url(#paint21_linear_918_15634)"/>
<path d="M315.517 272.499C331.394 272.499 344.264 259.629 344.264 243.752C344.264 227.875 331.394 215.005 315.517 215.005C299.64 215.005 286.77 227.875 286.77 243.752C286.77 259.629 299.64 272.499 315.517 272.499Z" fill="url(#paint22_linear_918_15634)"/>
<g filter="url(#filter13_b_918_15634)">
<path d="M293.747 330.095C287.254 296.662 257.821 271.412 222.481 271.412C187.14 271.412 157.707 296.662 151.214 330.095C149.809 337.324 155.498 344 162.861 344H282.084C289.447 344 295.136 337.324 293.73 330.095H293.747Z" fill="url(#paint23_linear_918_15634)"/>
<path d="M222.481 272.442C256.884 272.442 285.612 296.718 292.486 329.064H292.48L292.719 330.292C293.996 336.862 288.821 342.969 282.084 342.969H162.861C156.123 342.969 150.949 336.862 152.226 330.292L152.226 330.291C158.626 297.334 187.643 272.442 222.481 272.442Z" stroke="url(#paint24_linear_918_15634)" stroke-width="2.06123"/>
</g>
<g filter="url(#filter14_b_918_15634)">
<path d="M230.732 253.402C250.097 248.831 262.09 229.428 257.52 210.063C252.949 190.698 233.546 178.705 214.181 183.276C194.816 187.846 182.823 207.25 187.394 226.614C191.964 245.979 211.368 257.972 230.732 253.402Z" fill="url(#paint25_linear_918_15634)"/>
<path d="M256.517 210.3C260.956 229.111 249.306 247.959 230.496 252.399C211.685 256.838 192.837 245.188 188.397 226.378C183.957 207.567 195.607 188.719 214.418 184.279C233.229 179.839 252.077 191.489 256.517 210.3Z" stroke="url(#paint26_linear_918_15634)" stroke-width="2.06123"/>
</g>
<defs>
<filter id="filter0_f_918_15634" x="0.469406" y="0.969406" width="574.382" height="586.061" filterUnits="userSpaceOnUse" color-interpolation-filters="sRGB">
<feFlood flood-opacity="0" result="BackgroundImageFix"/>
<feBlend mode="normal" in="SourceGraphic" in2="BackgroundImageFix" result="shape"/>
<feGaussianBlur stdDeviation="73.5153" result="effect1_foregroundBlur_918_15634"/>
</filter>
<filter id="filter1_i_918_15634" x="287.66" y="221.384" width="130.77" height="132.161" filterUnits="userSpaceOnUse" color-interpolation-filters="sRGB">
<feFlood flood-opacity="0" result="BackgroundImageFix"/>
<feBlend mode="normal" in="SourceGraphic" in2="BackgroundImageFix" result="shape"/>
<feColorMatrix in="SourceAlpha" type="matrix" values="0 0 0 0 0 0 0 0 0 0 0 0 0 0 0 0 0 0 127 0" result="hardAlpha"/>
<feOffset dy="-2.08675"/>
<feGaussianBlur stdDeviation="0.695583"/>
<feComposite in2="hardAlpha" operator="arithmetic" k2="-1" k3="1"/>
<feColorMatrix type="matrix" values="0 0 0 0 1 0 0 0 0 1 0 0 0 0 1 0 0 0 0.21 0"/>
<feBlend mode="normal" in2="shape" result="effect1_innerShadow_918_15634"/>
</filter>
<filter id="filter2_i_918_15634" x="222.275" y="286.769" width="130.77" height="132.161" filterUnits="userSpaceOnUse" color-interpolation-filters="sRGB">
<feFlood flood-opacity="0" result="BackgroundImageFix"/>
<feBlend mode="normal" in="SourceGraphic" in2="BackgroundImageFix" result="shape"/>
<feColorMatrix in="SourceAlpha" type="matrix" values="0 0 0 0 0 0 0 0 0 0 0 0 0 0 0 0 0 0 127 0" result="hardAlpha"/>
<feOffset dy="-2.08675"/>
<feGaussianBlur stdDeviation="0.695583"/>
<feComposite in2="hardAlpha" operator="arithmetic" k2="-1" k3="1"/>
<feColorMatrix type="matrix" values="0 0 0 0 1 0 0 0 0 1 0 0 0 0 1 0 0 0 0.21 0"/>
<feBlend mode="normal" in2="shape" result="effect1_innerShadow_918_15634"/>
</filter>
<filter id="filter3_i_918_15634" x="156.891" y="221.384" width="130.77" height="132.161" filterUnits="userSpaceOnUse" color-interpolation-filters="sRGB">
<feFlood flood-opacity="0" result="BackgroundImageFix"/>
<feBlend mode="normal" in="SourceGraphic" in2="BackgroundImageFix" result="shape"/>
<feColorMatrix in="SourceAlpha" type="matrix" values="0 0 0 0 0 0 0 0 0 0 0 0 0 0 0 0 0 0 127 0" result="hardAlpha"/>
<feOffset dy="-2.08675"/>
<feGaussianBlur stdDeviation="0.695583"/>
<feComposite in2="hardAlpha" operator="arithmetic" k2="-1" k3="1"/>
<feColorMatrix type="matrix" values="0 0 0 0 1 0 0 0 0 1 0 0 0 0 1 0 0 0 0.21 0"/>
<feBlend mode="normal" in2="shape" result="effect1_innerShadow_918_15634"/>
</filter>
<filter id="filter4_i_918_15634" x="174.356" y="178.29" width="130.77" height="132.161" filterUnits="userSpaceOnUse" color-interpolation-filters="sRGB">
<feFlood flood-opacity="0" result="BackgroundImageFix"/>
<feBlend mode="normal" in="SourceGraphic" in2="BackgroundImageFix" result="shape"/>
<feColorMatrix in="SourceAlpha" type="matrix" values="0 0 0 0 0 0 0 0 0 0 0 0 0 0 0 0 0 0 127 0" result="hardAlpha"/>
<feOffset dy="2.08675"/>
<feGaussianBlur stdDeviation="0.695583"/>
<feComposite in2="hardAlpha" operator="arithmetic" k2="-1" k3="1"/>
<feColorMatrix type="matrix" values="0 0 0 0 1 0 0 0 0 1 0 0 0 0 1 0 0 0 0.21 0"/>
<feBlend mode="normal" in2="shape" result="effect1_innerShadow_918_15634"/>
</filter>
<filter id="filter5_i_918_15634" x="222.275" y="157.39" width="130.77" height="132.161" filterUnits="userSpaceOnUse" color-interpolation-filters="sRGB">
<feFlood flood-opacity="0" result="BackgroundImageFix"/>
<feBlend mode="normal" in="SourceGraphic" in2="BackgroundImageFix" result="shape"/>
<feColorMatrix in="SourceAlpha" type="matrix" values="0 0 0 0 0 0 0 0 0 0 0 0 0 0 0 0 0 0 127 0" result="hardAlpha"/>
<feOffset dy="2.08675"/>
<feGaussianBlur stdDeviation="0.695583"/>
<feComposite in2="hardAlpha" operator="arithmetic" k2="-1" k3="1"/>
<feColorMatrix type="matrix" values="0 0 0 0 1 0 0 0 0 1 0 0 0 0 1 0 0 0 0.21 0"/>
<feBlend mode="normal" in2="shape" result="effect1_innerShadow_918_15634"/>
</filter>
<filter id="filter6_i_918_15634" x="266.76" y="174.855" width="130.771" height="132.161" filterUnits="userSpaceOnUse" color-interpolation-filters="sRGB">
<feFlood flood-opacity="0" result="BackgroundImageFix"/>
<feBlend mode="normal" in="SourceGraphic" in2="BackgroundImageFix" result="shape"/>
<feColorMatrix in="SourceAlpha" type="matrix" values="0 0 0 0 0 0 0 0 0 0 0 0 0 0 0 0 0 0 127 0" result="hardAlpha"/>
<feOffset dy="2.08675"/>
<feGaussianBlur stdDeviation="0.695583"/>
<feComposite in2="hardAlpha" operator="arithmetic" k2="-1" k3="1"/>
<feColorMatrix type="matrix" values="0 0 0 0 1 0 0 0 0 1 0 0 0 0 1 0 0 0 0.21 0"/>
<feBlend mode="normal" in2="shape" result="effect1_innerShadow_918_15634"/>
</filter>
<filter id="filter7_i_918_15634" x="287.66" y="222.775" width="130.77" height="132.161" filterUnits="userSpaceOnUse" color-interpolation-filters="sRGB">
<feFlood flood-opacity="0" result="BackgroundImageFix"/>
<feBlend mode="normal" in="SourceGraphic" in2="BackgroundImageFix" result="shape"/>
<feColorMatrix in="SourceAlpha" type="matrix" values="0 0 0 0 0 0 0 0 0 0 0 0 0 0 0 0 0 0 127 0" result="hardAlpha"/>
<feOffset dy="2.08675"/>
<feGaussianBlur stdDeviation="0.695583"/>
<feComposite in2="hardAlpha" operator="arithmetic" k2="-1" k3="1"/>
<feColorMatrix type="matrix" values="0 0 0 0 1 0 0 0 0 1 0 0 0 0 1 0 0 0 0.21 0"/>
<feBlend mode="normal" in2="shape" result="effect1_innerShadow_918_15634"/>
</filter>
<filter id="filter8_f_918_15634" x="220.188" y="220.688" width="134.943" height="134.943" filterUnits="userSpaceOnUse" color-interpolation-filters="sRGB">
<feFlood flood-opacity="0" result="BackgroundImageFix"/>
<feBlend mode="normal" in="SourceGraphic" in2="BackgroundImageFix" result="shape"/>
<feGaussianBlur stdDeviation="12.5205" result="effect1_foregroundBlur_918_15634"/>
</filter>
<filter id="filter9_i_918_15634" x="305.852" y="148.361" width="20.4537" height="20.4541" filterUnits="userSpaceOnUse" color-interpolation-filters="sRGB">
<feFlood flood-opacity="0" result="BackgroundImageFix"/>
<feBlend mode="normal" in="SourceGraphic" in2="BackgroundImageFix" result="shape"/>
<feColorMatrix in="SourceAlpha" type="matrix" values="0 0 0 0 0 0 0 0 0 0 0 0 0 0 0 0 0 0 127 0" result="hardAlpha"/>
<feOffset dx="2.44042" dy="3.51421"/>
<feGaussianBlur stdDeviation="0.439276"/>
<feComposite in2="hardAlpha" operator="arithmetic" k2="-1" k3="1"/>
<feColorMatrix type="matrix" values="0 0 0 0 0 0 0 0 0 0 0 0 0 0 0 0 0 0 0.13 0"/>
<feBlend mode="normal" in2="shape" result="effect1_innerShadow_918_15634"/>
</filter>
<filter id="filter10_f_918_15634" x="295.507" y="136.722" width="7.72335" height="9.06063" filterUnits="userSpaceOnUse" color-interpolation-filters="sRGB">
<feFlood flood-opacity="0" result="BackgroundImageFix"/>
<feBlend mode="normal" in="SourceGraphic" in2="BackgroundImageFix" result="shape"/>
<feGaussianBlur stdDeviation="0.780936" result="effect1_foregroundBlur_918_15634"/>
</filter>
<filter id="filter11_f_918_15634" x="296.386" y="137.6" width="5.96625" height="7.30353" filterUnits="userSpaceOnUse" color-interpolation-filters="sRGB">
<feFlood flood-opacity="0" result="BackgroundImageFix"/>
<feBlend mode="normal" in="SourceGraphic" in2="BackgroundImageFix" result="shape"/>
<feGaussianBlur stdDeviation="0.34166" result="effect1_foregroundBlur_918_15634"/>
</filter>
<filter id="filter12_f_918_15634" x="167.81" y="124.311" width="295.398" height="310.383" filterUnits="userSpaceOnUse" color-interpolation-filters="sRGB">
<feFlood flood-opacity="0" result="BackgroundImageFix"/>
<feBlend mode="normal" in="SourceGraphic" in2="BackgroundImageFix" result="shape"/>
<feGaussianBlur stdDeviation="45.347" result="effect1_foregroundBlur_918_15634"/>
</filter>
<filter id="filter13_b_918_15634" x="132.449" y="252.861" width="180.046" height="109.69" filterUnits="userSpaceOnUse" color-interpolation-filters="sRGB">
<feFlood flood-opacity="0" result="BackgroundImageFix"/>
<feGaussianBlur in="BackgroundImageFix" stdDeviation="9.27552"/>
<feComposite in2="SourceAlpha" operator="in" result="effect1_backgroundBlur_918_15634"/>
<feBlend mode="normal" in="SourceGraphic" in2="effect1_backgroundBlur_918_15634" result="shape"/>
</filter>
<filter id="filter14_b_918_15634" x="167.871" y="163.753" width="109.171" height="109.171" filterUnits="userSpaceOnUse" color-interpolation-filters="sRGB">
<feFlood flood-opacity="0" result="BackgroundImageFix"/>
<feGaussianBlur in="BackgroundImageFix" stdDeviation="9.27552"/>
<feComposite in2="SourceAlpha" operator="in" result="effect1_backgroundBlur_918_15634"/>
<feBlend mode="normal" in="SourceGraphic" in2="effect1_backgroundBlur_918_15634" result="shape"/>
</filter>
<radialGradient id="paint0_angular_918_15634" cx="0" cy="0" r="1" gradientUnits="userSpaceOnUse" gradientTransform="translate(332.145 240.24) rotate(90) scale(65.3848)">
<stop stop-color="#9747FF"/>
<stop offset="0.685417"/>
</radialGradient>
<radialGradient id="paint1_angular_918_15634" cx="0" cy="0" r="1" gradientUnits="userSpaceOnUse" gradientTransform="translate(353.045 288.16) rotate(90) scale(65.3848)">
<stop stop-color="#9747FF"/>
<stop offset="0.685417"/>
</radialGradient>
<radialGradient id="paint2_angular_918_15634" cx="0" cy="0" r="1" gradientUnits="userSpaceOnUse" gradientTransform="translate(335.58 332.645) rotate(90) scale(65.3848)">
<stop stop-color="#9747FF"/>
<stop offset="0.685417"/>
</radialGradient>
<radialGradient id="paint3_angular_918_15634" cx="0" cy="0" r="1" gradientUnits="userSpaceOnUse" gradientTransform="translate(287.66 353.545) rotate(90) scale(65.3848)">
<stop stop-color="#9747FF"/>
<stop offset="0.685417"/>
</radialGradient>
<radialGradient id="paint4_angular_918_15634" cx="0" cy="0" r="1" gradientUnits="userSpaceOnUse" gradientTransform="translate(243.176 336.08) rotate(90) scale(65.3848)">
<stop stop-color="#9747FF"/>
<stop offset="0.685417"/>
</radialGradient>
<radialGradient id="paint5_angular_918_15634" cx="0" cy="0" r="1" gradientUnits="userSpaceOnUse" gradientTransform="translate(222.275 288.16) rotate(90) scale(65.3848)">
<stop stop-color="#9747FF"/>
<stop offset="0.685417"/>
</radialGradient>
<radialGradient id="paint6_angular_918_15634" cx="0" cy="0" r="1" gradientUnits="userSpaceOnUse" gradientTransform="translate(239.74 243.675) rotate(90) scale(65.3848)">
<stop stop-color="#9747FF"/>
<stop offset="0.685417"/>
</radialGradient>
<radialGradient id="paint7_angular_918_15634" cx="0" cy="0" r="1" gradientUnits="userSpaceOnUse" gradientTransform="translate(287.66 353.545) rotate(90) scale(65.3848)">
<stop stop-color="#9747FF"/>
<stop offset="0.685417"/>
</radialGradient>
<radialGradient id="paint8_angular_918_15634" cx="0" cy="0" r="1" gradientUnits="userSpaceOnUse" gradientTransform="translate(243.176 336.08) rotate(90) scale(65.3848)">
<stop stop-color="#9747FF"/>
<stop offset="0.685417"/>
</radialGradient>
<radialGradient id="paint9_angular_918_15634" cx="0" cy="0" r="1" gradientUnits="userSpaceOnUse" gradientTransform="translate(222.275 288.16) rotate(90) scale(65.3848)">
<stop stop-color="#9747FF"/>
<stop offset="0.685417"/>
</radialGradient>
<radialGradient id="paint10_angular_918_15634" cx="0" cy="0" r="1" gradientUnits="userSpaceOnUse" gradientTransform="translate(239.741 243.675) rotate(90) scale(65.3848)">
<stop stop-color="#9747FF"/>
<stop offset="0.685417"/>
</radialGradient>
<radialGradient id="paint11_angular_918_15634" cx="0" cy="0" r="1" gradientUnits="userSpaceOnUse" gradientTransform="translate(287.66 222.775) rotate(90) scale(65.3848)">
<stop stop-color="#9747FF"/>
<stop offset="0.685417"/>
</radialGradient>
<radialGradient id="paint12_angular_918_15634" cx="0" cy="0" r="1" gradientUnits="userSpaceOnUse" gradientTransform="translate(332.145 240.24) rotate(90) scale(65.3848)">
<stop stop-color="#9747FF"/>
<stop offset="0.685417"/>
</radialGradient>
<radialGradient id="paint13_angular_918_15634" cx="0" cy="0" r="1" gradientUnits="userSpaceOnUse" gradientTransform="translate(353.045 288.16) rotate(90) scale(65.3848)">
<stop stop-color="#9747FF"/>
<stop offset="0.685417"/>
</radialGradient>
<radialGradient id="paint14_angular_918_15634" cx="0" cy="0" r="1" gradientUnits="userSpaceOnUse" gradientTransform="translate(335.58 332.645) rotate(90) scale(65.3848)">
<stop stop-color="#9747FF"/>
<stop offset="0.685417"/>
</radialGradient>
<linearGradient id="paint15_linear_918_15634" x1="320" y1="95" x2="320" y2="396" gradientUnits="userSpaceOnUse">
<stop stop-color="#5258F2"/>
<stop offset="0.717951" stop-color="#6852F2" stop-opacity="0"/>
</linearGradient>
<radialGradient id="paint16_radial_918_15634" cx="0" cy="0" r="1" gradientUnits="userSpaceOnUse" gradientTransform="translate(285.649 149.882) rotate(42.5559) scale(25.303 27.9292)">
<stop stop-color="white"/>
<stop offset="1" stop-color="white"/>
</radialGradient>
<linearGradient id="paint17_linear_918_15634" x1="308.936" y1="154.077" x2="317.325" y2="161.973" gradientUnits="userSpaceOnUse">
<stop stop-color="white"/>
<stop offset="1" stop-color="white"/>
</linearGradient>
<linearGradient id="paint18_linear_918_15634" x1="298.154" y1="143.015" x2="306.117" y2="136.905" gradientUnits="userSpaceOnUse">
<stop stop-color="white"/>
<stop offset="1" stop-color="white" stop-opacity="0"/>
</linearGradient>
<linearGradient id="paint19_linear_918_15634" x1="315.517" y1="375.86" x2="315.517" y2="201.785" gradientUnits="userSpaceOnUse">
<stop stop-color="#0027F6"/>
<stop offset="1" stop-color="#F7CBAD"/>
</linearGradient>
<linearGradient id="paint20_linear_918_15634" x1="315.517" y1="-540.076" x2="315.517" y2="201.785" gradientUnits="userSpaceOnUse">
<stop stop-color="#F6005A"/>
<stop offset="1" stop-color="#F7CBAD"/>
</linearGradient>
<linearGradient id="paint21_linear_918_15634" x1="315.517" y1="375.86" x2="315.517" y2="201.785" gradientUnits="userSpaceOnUse">
<stop stop-color="#1E22A0"/>
<stop offset="1" stop-color="#928FFB"/>
</linearGradient>
<linearGradient id="paint22_linear_918_15634" x1="315.517" y1="-540.076" x2="315.517" y2="201.785" gradientUnits="userSpaceOnUse">
<stop stop-color="#F6005A"/>
<stop offset="1" stop-color="#F7CBAD"/>
</linearGradient>
<linearGradient id="paint23_linear_918_15634" x1="159.07" y1="339.902" x2="211.061" y2="237.519" gradientUnits="userSpaceOnUse">
<stop stop-color="white" stop-opacity="0.2"/>
<stop offset="1" stop-color="white" stop-opacity="0.49"/>
</linearGradient>
<linearGradient id="paint24_linear_918_15634" x1="161.09" y1="277.121" x2="208.223" y2="376.362" gradientUnits="userSpaceOnUse">
<stop stop-color="white"/>
<stop offset="1" stop-color="white" stop-opacity="0"/>
</linearGradient>
<linearGradient id="paint25_linear_918_15634" x1="198.694" y1="256.784" x2="246.22" y2="179.894" gradientUnits="userSpaceOnUse">
<stop stop-color="white" stop-opacity="0.2"/>
<stop offset="1" stop-color="white" stop-opacity="0.49"/>
</linearGradient>
<linearGradient id="paint26_linear_918_15634" x1="185.37" y1="195.898" x2="258.782" y2="244.74" gradientUnits="userSpaceOnUse">
<stop stop-color="white"/>
<stop offset="1" stop-color="white" stop-opacity="0"/>
</linearGradient>
<clipPath id="clip0_918_15634">
<rect width="280.32" height="140.16" fill="white" transform="translate(147.5 288.16)"/>
</clipPath>
<clipPath id="clip1_918_15634">
<rect width="280.32" height="140.16" fill="white" transform="matrix(-1 0 0 -1 427.82 288.16)"/>
</clipPath>
</defs>
</svg>
