<svg width="329" height="330" viewBox="0 0 329 330" fill="none" xmlns="http://www.w3.org/2000/svg">
<g clip-path="url(#clip0_1163_4928)">
<g filter="url(#filter0_f_1163_4928)">
<g clip-path="url(#clip1_1163_4928)">
<circle cx="181.184" cy="145.433" r="47.6165" transform="rotate(42.8712 181.184 145.433)" fill="url(#paint0_angular_1163_4928)"/>
<g filter="url(#filter1_i_1163_4928)">
<circle cx="196.405" cy="180.33" r="47.6165" transform="rotate(90 196.405 180.33)" fill="url(#paint1_angular_1163_4928)"/>
</g>
<circle cx="183.686" cy="212.727" r="47.6165" transform="rotate(132.871 183.686 212.727)" fill="url(#paint2_angular_1163_4928)"/>
<g filter="url(#filter2_i_1163_4928)">
<circle cx="148.789" cy="227.947" r="47.6165" transform="rotate(180 148.789 227.947)" fill="url(#paint3_angular_1163_4928)"/>
</g>
<circle cx="116.392" cy="215.228" r="47.6165" transform="rotate(-137.129 116.392 215.228)" fill="url(#paint4_angular_1163_4928)"/>
<g filter="url(#filter3_i_1163_4928)">
<circle cx="101.172" cy="180.331" r="47.6165" transform="rotate(-90 101.172 180.331)" fill="url(#paint5_angular_1163_4928)"/>
</g>
<circle cx="113.891" cy="147.934" r="47.6165" transform="rotate(-47.1288 113.891 147.934)" fill="url(#paint6_angular_1163_4928)"/>
</g>
<g clip-path="url(#clip2_1163_4928)">
<circle cx="116.392" cy="215.228" r="47.6165" transform="rotate(-137.129 116.392 215.228)" fill="url(#paint7_angular_1163_4928)"/>
<circle cx="101.172" cy="180.331" r="47.6165" transform="rotate(-90 101.172 180.331)" fill="url(#paint8_angular_1163_4928)"/>
<g filter="url(#filter4_i_1163_4928)">
<circle cx="113.891" cy="147.934" r="47.6165" transform="rotate(-47.1288 113.891 147.934)" fill="url(#paint9_angular_1163_4928)"/>
</g>
<g filter="url(#filter5_i_1163_4928)">
<circle cx="148.788" cy="132.714" r="47.6165" fill="url(#paint10_angular_1163_4928)"/>
</g>
<g filter="url(#filter6_i_1163_4928)">
<circle cx="181.184" cy="145.433" r="47.6165" transform="rotate(42.8712 181.184 145.433)" fill="url(#paint11_angular_1163_4928)"/>
</g>
<g filter="url(#filter7_i_1163_4928)">
<circle cx="196.405" cy="180.33" r="47.6165" transform="rotate(90 196.405 180.33)" fill="url(#paint12_angular_1163_4928)"/>
</g>
<circle cx="183.686" cy="212.727" r="47.6165" transform="rotate(132.871 183.686 212.727)" fill="url(#paint13_angular_1163_4928)"/>
</g>
<g filter="url(#filter8_f_1163_4928)">
<circle cx="148.789" cy="180.33" r="30.9001" fill="#9747FF"/>
</g>
</g>
<rect x="62.7383" y="39.6617" width="219.203" height="219.203" rx="109.602" fill="url(#paint14_linear_1163_4928)"/>
<g filter="url(#filter9_f_1163_4928)">
<path d="M124.553 89.9108C130.825 89.9108 135.908 94.9937 135.908 101.266V146.147H113.197V101.266C113.197 94.9937 118.28 89.9108 124.553 89.9108Z" fill="url(#paint15_linear_1163_4928)"/>
<path d="M169.975 89.9108C176.247 89.9108 181.33 94.9937 181.33 101.266V146.147H158.619V101.266C158.619 94.9937 163.702 89.9108 169.975 89.9108Z" fill="url(#paint16_linear_1163_4928)"/>
<path d="M62.3682 196.436C62.3682 190.163 67.4511 185.081 73.7236 185.081H118.605V207.792H73.7236C67.4511 207.792 62.3682 202.709 62.3682 196.436Z" fill="url(#paint17_linear_1163_4928)"/>
<path d="M62.3682 151.014C62.3682 144.741 67.4511 139.659 73.7236 139.659H118.605V162.37H73.7236C67.4511 162.37 62.3682 157.287 62.3682 151.014Z" fill="url(#paint18_linear_1163_4928)"/>
<path d="M168.894 258.621C162.621 258.621 157.538 253.538 157.538 247.265V202.384H180.249V247.265C180.249 253.538 175.166 258.621 168.894 258.621Z" fill="url(#paint19_linear_1163_4928)"/>
<path d="M123.472 258.621C117.199 258.621 112.116 253.538 112.116 247.265V202.384H134.827V247.265C134.827 253.538 129.744 258.621 123.472 258.621Z" fill="url(#paint20_linear_1163_4928)"/>
<path d="M231.078 152.096C231.078 158.368 225.995 163.451 219.723 163.451H174.842V140.74H219.723C225.995 140.74 231.078 145.823 231.078 152.096Z" fill="url(#paint21_linear_1163_4928)"/>
<path d="M231.078 197.517C231.078 203.79 225.995 208.873 219.723 208.873H174.842V186.162H219.723C225.995 186.162 231.078 191.245 231.078 197.517Z" fill="url(#paint22_linear_1163_4928)"/>
</g>
<g filter="url(#filter10_f_1163_4928)">
<path d="M174.841 146.147H118.604V202.384H174.841V146.147Z" fill="white"/>
</g>
<path d="M112.656 89.9108C118.929 89.9108 124.012 94.9937 124.012 101.266V146.147H101.301V101.266C101.301 94.9937 106.384 89.9108 112.656 89.9108Z" fill="url(#paint23_linear_1163_4928)"/>
<path d="M158.077 89.9108C164.35 89.9108 169.433 94.9937 169.433 101.266V146.147H146.722V101.266C146.722 94.9937 151.805 89.9108 158.077 89.9108Z" fill="url(#paint24_linear_1163_4928)"/>
<path d="M50.4707 196.436C50.4707 190.163 55.5536 185.081 61.8262 185.081H106.707V207.792H61.8262C55.5536 207.792 50.4707 202.709 50.4707 196.436Z" fill="url(#paint25_linear_1163_4928)"/>
<path d="M50.4707 151.014C50.4707 144.741 55.5536 139.659 61.8262 139.659H106.707V162.37H61.8262C55.5536 162.37 50.4707 157.287 50.4707 151.014Z" fill="url(#paint26_linear_1163_4928)"/>
<path d="M156.996 258.621C150.724 258.621 145.641 253.538 145.641 247.265V202.384H168.352V247.265C168.352 253.538 163.269 258.621 156.996 258.621Z" fill="url(#paint27_linear_1163_4928)"/>
<path d="M111.574 258.621C105.302 258.621 100.219 253.538 100.219 247.265V202.384H122.93V247.265C122.93 253.538 117.847 258.621 111.574 258.621Z" fill="url(#paint28_linear_1163_4928)"/>
<path d="M219.181 152.096C219.181 158.368 214.098 163.451 207.825 163.451H162.944V140.74H207.825C214.098 140.74 219.181 145.823 219.181 152.096Z" fill="url(#paint29_linear_1163_4928)"/>
<path d="M219.181 197.517C219.181 203.79 214.098 208.873 207.825 208.873H162.944V186.162H207.825C214.098 186.162 219.181 191.245 219.181 197.517Z" fill="url(#paint30_linear_1163_4928)"/>
<g filter="url(#filter11_b_1163_4928)">
<path d="M174.299 118.029H95.3517C86.0938 118.029 78.5889 125.534 78.5889 134.792V213.74C78.5889 222.997 86.0938 230.502 95.3517 230.502H174.299C183.557 230.502 191.062 222.997 191.062 213.74V134.792C191.062 125.534 183.557 118.029 174.299 118.029Z" fill="url(#paint31_linear_1163_4928)"/>
<path d="M95.3517 118.979H174.299C183.033 118.979 190.112 126.059 190.112 134.792V213.74C190.112 222.473 183.033 229.553 174.299 229.553H95.3517C86.6184 229.553 79.5386 222.473 79.5386 213.74V134.792C79.5386 126.059 86.6184 118.979 95.3517 118.979Z" stroke="url(#paint32_linear_1163_4928)" stroke-width="1.8994"/>
</g>
<path d="M162.945 146.147H106.708V202.384H162.945V146.147Z" fill="white"/>
</g>
<defs>
<filter id="filter0_f_1163_4928" x="-60.3583" y="-28.8161" width="418.294" height="426.799" filterUnits="userSpaceOnUse" color-interpolation-filters="sRGB">
<feFlood flood-opacity="0" result="BackgroundImageFix"/>
<feBlend mode="normal" in="SourceGraphic" in2="BackgroundImageFix" result="shape"/>
<feGaussianBlur stdDeviation="53.5375" result="effect1_foregroundBlur_1163_4928"/>
</filter>
<filter id="filter1_i_1163_4928" x="148.788" y="131.701" width="95.2334" height="96.2461" filterUnits="userSpaceOnUse" color-interpolation-filters="sRGB">
<feFlood flood-opacity="0" result="BackgroundImageFix"/>
<feBlend mode="normal" in="SourceGraphic" in2="BackgroundImageFix" result="shape"/>
<feColorMatrix in="SourceAlpha" type="matrix" values="0 0 0 0 0 0 0 0 0 0 0 0 0 0 0 0 0 0 127 0" result="hardAlpha"/>
<feOffset dy="-1.51968"/>
<feGaussianBlur stdDeviation="0.506559"/>
<feComposite in2="hardAlpha" operator="arithmetic" k2="-1" k3="1"/>
<feColorMatrix type="matrix" values="0 0 0 0 1 0 0 0 0 1 0 0 0 0 1 0 0 0 0.21 0"/>
<feBlend mode="normal" in2="shape" result="effect1_innerShadow_1163_4928"/>
</filter>
<filter id="filter2_i_1163_4928" x="101.172" y="179.317" width="95.2334" height="96.2461" filterUnits="userSpaceOnUse" color-interpolation-filters="sRGB">
<feFlood flood-opacity="0" result="BackgroundImageFix"/>
<feBlend mode="normal" in="SourceGraphic" in2="BackgroundImageFix" result="shape"/>
<feColorMatrix in="SourceAlpha" type="matrix" values="0 0 0 0 0 0 0 0 0 0 0 0 0 0 0 0 0 0 127 0" result="hardAlpha"/>
<feOffset dy="-1.51968"/>
<feGaussianBlur stdDeviation="0.506559"/>
<feComposite in2="hardAlpha" operator="arithmetic" k2="-1" k3="1"/>
<feColorMatrix type="matrix" values="0 0 0 0 1 0 0 0 0 1 0 0 0 0 1 0 0 0 0.21 0"/>
<feBlend mode="normal" in2="shape" result="effect1_innerShadow_1163_4928"/>
</filter>
<filter id="filter3_i_1163_4928" x="53.5557" y="131.701" width="95.2334" height="96.2461" filterUnits="userSpaceOnUse" color-interpolation-filters="sRGB">
<feFlood flood-opacity="0" result="BackgroundImageFix"/>
<feBlend mode="normal" in="SourceGraphic" in2="BackgroundImageFix" result="shape"/>
<feColorMatrix in="SourceAlpha" type="matrix" values="0 0 0 0 0 0 0 0 0 0 0 0 0 0 0 0 0 0 127 0" result="hardAlpha"/>
<feOffset dy="-1.51968"/>
<feGaussianBlur stdDeviation="0.506559"/>
<feComposite in2="hardAlpha" operator="arithmetic" k2="-1" k3="1"/>
<feColorMatrix type="matrix" values="0 0 0 0 1 0 0 0 0 1 0 0 0 0 1 0 0 0 0.21 0"/>
<feBlend mode="normal" in2="shape" result="effect1_innerShadow_1163_4928"/>
</filter>
<filter id="filter4_i_1163_4928" x="66.2744" y="100.318" width="95.2334" height="96.2466" filterUnits="userSpaceOnUse" color-interpolation-filters="sRGB">
<feFlood flood-opacity="0" result="BackgroundImageFix"/>
<feBlend mode="normal" in="SourceGraphic" in2="BackgroundImageFix" result="shape"/>
<feColorMatrix in="SourceAlpha" type="matrix" values="0 0 0 0 0 0 0 0 0 0 0 0 0 0 0 0 0 0 127 0" result="hardAlpha"/>
<feOffset dy="1.51968"/>
<feGaussianBlur stdDeviation="0.506559"/>
<feComposite in2="hardAlpha" operator="arithmetic" k2="-1" k3="1"/>
<feColorMatrix type="matrix" values="0 0 0 0 1 0 0 0 0 1 0 0 0 0 1 0 0 0 0.21 0"/>
<feBlend mode="normal" in2="shape" result="effect1_innerShadow_1163_4928"/>
</filter>
<filter id="filter5_i_1163_4928" x="101.172" y="85.0974" width="95.2334" height="96.2461" filterUnits="userSpaceOnUse" color-interpolation-filters="sRGB">
<feFlood flood-opacity="0" result="BackgroundImageFix"/>
<feBlend mode="normal" in="SourceGraphic" in2="BackgroundImageFix" result="shape"/>
<feColorMatrix in="SourceAlpha" type="matrix" values="0 0 0 0 0 0 0 0 0 0 0 0 0 0 0 0 0 0 127 0" result="hardAlpha"/>
<feOffset dy="1.51968"/>
<feGaussianBlur stdDeviation="0.506559"/>
<feComposite in2="hardAlpha" operator="arithmetic" k2="-1" k3="1"/>
<feColorMatrix type="matrix" values="0 0 0 0 1 0 0 0 0 1 0 0 0 0 1 0 0 0 0.21 0"/>
<feBlend mode="normal" in2="shape" result="effect1_innerShadow_1163_4928"/>
</filter>
<filter id="filter6_i_1163_4928" x="133.567" y="97.8162" width="95.2334" height="96.2465" filterUnits="userSpaceOnUse" color-interpolation-filters="sRGB">
<feFlood flood-opacity="0" result="BackgroundImageFix"/>
<feBlend mode="normal" in="SourceGraphic" in2="BackgroundImageFix" result="shape"/>
<feColorMatrix in="SourceAlpha" type="matrix" values="0 0 0 0 0 0 0 0 0 0 0 0 0 0 0 0 0 0 127 0" result="hardAlpha"/>
<feOffset dy="1.51968"/>
<feGaussianBlur stdDeviation="0.506559"/>
<feComposite in2="hardAlpha" operator="arithmetic" k2="-1" k3="1"/>
<feColorMatrix type="matrix" values="0 0 0 0 1 0 0 0 0 1 0 0 0 0 1 0 0 0 0.21 0"/>
<feBlend mode="normal" in2="shape" result="effect1_innerShadow_1163_4928"/>
</filter>
<filter id="filter7_i_1163_4928" x="148.788" y="132.714" width="95.2334" height="96.2461" filterUnits="userSpaceOnUse" color-interpolation-filters="sRGB">
<feFlood flood-opacity="0" result="BackgroundImageFix"/>
<feBlend mode="normal" in="SourceGraphic" in2="BackgroundImageFix" result="shape"/>
<feColorMatrix in="SourceAlpha" type="matrix" values="0 0 0 0 0 0 0 0 0 0 0 0 0 0 0 0 0 0 127 0" result="hardAlpha"/>
<feOffset dy="1.51968"/>
<feGaussianBlur stdDeviation="0.506559"/>
<feComposite in2="hardAlpha" operator="arithmetic" k2="-1" k3="1"/>
<feColorMatrix type="matrix" values="0 0 0 0 1 0 0 0 0 1 0 0 0 0 1 0 0 0 0.21 0"/>
<feBlend mode="normal" in2="shape" result="effect1_innerShadow_1163_4928"/>
</filter>
<filter id="filter8_f_1163_4928" x="99.6526" y="131.194" width="98.272" height="98.2724" filterUnits="userSpaceOnUse" color-interpolation-filters="sRGB">
<feFlood flood-opacity="0" result="BackgroundImageFix"/>
<feBlend mode="normal" in="SourceGraphic" in2="BackgroundImageFix" result="shape"/>
<feGaussianBlur stdDeviation="9.11805" result="effect1_foregroundBlur_1163_4928"/>
</filter>
<filter id="filter9_f_1163_4928" x="-21.2056" y="6.33698" width="335.858" height="335.857" filterUnits="userSpaceOnUse" color-interpolation-filters="sRGB">
<feFlood flood-opacity="0" result="BackgroundImageFix"/>
<feBlend mode="normal" in="SourceGraphic" in2="BackgroundImageFix" result="shape"/>
<feGaussianBlur stdDeviation="41.7869" result="effect1_foregroundBlur_1163_4928"/>
</filter>
<filter id="filter10_f_1163_4928" x="35.0307" y="62.5737" width="223.384" height="223.384" filterUnits="userSpaceOnUse" color-interpolation-filters="sRGB">
<feFlood flood-opacity="0" result="BackgroundImageFix"/>
<feBlend mode="normal" in="SourceGraphic" in2="BackgroundImageFix" result="shape"/>
<feGaussianBlur stdDeviation="41.7869" result="effect1_foregroundBlur_1163_4928"/>
</filter>
<filter id="filter11_b_1163_4928" x="61.4942" y="100.935" width="146.663" height="146.663" filterUnits="userSpaceOnUse" color-interpolation-filters="sRGB">
<feFlood flood-opacity="0" result="BackgroundImageFix"/>
<feGaussianBlur in="BackgroundImageFix" stdDeviation="8.54732"/>
<feComposite in2="SourceAlpha" operator="in" result="effect1_backgroundBlur_1163_4928"/>
<feBlend mode="normal" in="SourceGraphic" in2="effect1_backgroundBlur_1163_4928" result="shape"/>
</filter>
<radialGradient id="paint0_angular_1163_4928" cx="0" cy="0" r="1" gradientUnits="userSpaceOnUse" gradientTransform="translate(181.184 145.433) rotate(90) scale(47.6165)">
<stop stop-color="#9747FF"/>
<stop offset="0.685417"/>
</radialGradient>
<radialGradient id="paint1_angular_1163_4928" cx="0" cy="0" r="1" gradientUnits="userSpaceOnUse" gradientTransform="translate(196.405 180.33) rotate(90) scale(47.6165)">
<stop stop-color="#9747FF"/>
<stop offset="0.685417"/>
</radialGradient>
<radialGradient id="paint2_angular_1163_4928" cx="0" cy="0" r="1" gradientUnits="userSpaceOnUse" gradientTransform="translate(183.686 212.726) rotate(90) scale(47.6165)">
<stop stop-color="#9747FF"/>
<stop offset="0.685417"/>
</radialGradient>
<radialGradient id="paint3_angular_1163_4928" cx="0" cy="0" r="1" gradientUnits="userSpaceOnUse" gradientTransform="translate(148.789 227.947) rotate(90) scale(47.6165)">
<stop stop-color="#9747FF"/>
<stop offset="0.685417"/>
</radialGradient>
<radialGradient id="paint4_angular_1163_4928" cx="0" cy="0" r="1" gradientUnits="userSpaceOnUse" gradientTransform="translate(116.392 215.228) rotate(90) scale(47.6165)">
<stop stop-color="#9747FF"/>
<stop offset="0.685417"/>
</radialGradient>
<radialGradient id="paint5_angular_1163_4928" cx="0" cy="0" r="1" gradientUnits="userSpaceOnUse" gradientTransform="translate(101.172 180.331) rotate(90) scale(47.6165)">
<stop stop-color="#9747FF"/>
<stop offset="0.685417"/>
</radialGradient>
<radialGradient id="paint6_angular_1163_4928" cx="0" cy="0" r="1" gradientUnits="userSpaceOnUse" gradientTransform="translate(113.891 147.934) rotate(90) scale(47.6165)">
<stop stop-color="#9747FF"/>
<stop offset="0.685417"/>
</radialGradient>
<radialGradient id="paint7_angular_1163_4928" cx="0" cy="0" r="1" gradientUnits="userSpaceOnUse" gradientTransform="translate(116.392 215.228) rotate(90) scale(47.6165)">
<stop stop-color="#9747FF"/>
<stop offset="0.685417"/>
</radialGradient>
<radialGradient id="paint8_angular_1163_4928" cx="0" cy="0" r="1" gradientUnits="userSpaceOnUse" gradientTransform="translate(101.172 180.331) rotate(90) scale(47.6165)">
<stop stop-color="#9747FF"/>
<stop offset="0.685417"/>
</radialGradient>
<radialGradient id="paint9_angular_1163_4928" cx="0" cy="0" r="1" gradientUnits="userSpaceOnUse" gradientTransform="translate(113.891 147.934) rotate(90) scale(47.6165)">
<stop stop-color="#9747FF"/>
<stop offset="0.685417"/>
</radialGradient>
<radialGradient id="paint10_angular_1163_4928" cx="0" cy="0" r="1" gradientUnits="userSpaceOnUse" gradientTransform="translate(148.788 132.714) rotate(90) scale(47.6165)">
<stop stop-color="#9747FF"/>
<stop offset="0.685417"/>
</radialGradient>
<radialGradient id="paint11_angular_1163_4928" cx="0" cy="0" r="1" gradientUnits="userSpaceOnUse" gradientTransform="translate(181.184 145.433) rotate(90) scale(47.6165)">
<stop stop-color="#9747FF"/>
<stop offset="0.685417"/>
</radialGradient>
<radialGradient id="paint12_angular_1163_4928" cx="0" cy="0" r="1" gradientUnits="userSpaceOnUse" gradientTransform="translate(196.405 180.33) rotate(90) scale(47.6165)">
<stop stop-color="#9747FF"/>
<stop offset="0.685417"/>
</radialGradient>
<radialGradient id="paint13_angular_1163_4928" cx="0" cy="0" r="1" gradientUnits="userSpaceOnUse" gradientTransform="translate(183.686 212.726) rotate(90) scale(47.6165)">
<stop stop-color="#9747FF"/>
<stop offset="0.685417"/>
</radialGradient>
<linearGradient id="paint14_linear_1163_4928" x1="172.34" y1="39.6617" x2="172.34" y2="258.865" gradientUnits="userSpaceOnUse">
<stop stop-color="#9747FF"/>
<stop offset="0.717951" stop-color="#9747FF" stop-opacity="0"/>
</linearGradient>
<linearGradient id="paint15_linear_1163_4928" x1="80.9802" y1="79.1717" x2="240.216" y2="233.13" gradientUnits="userSpaceOnUse">
<stop stop-color="#B14DFF"/>
<stop offset="0.99" stop-color="#652AC6"/>
</linearGradient>
<linearGradient id="paint16_linear_1163_4928" x1="104.924" y1="58.3966" x2="264.16" y2="212.355" gradientUnits="userSpaceOnUse">
<stop stop-color="#B14DFF"/>
<stop offset="0.99" stop-color="#652AC6"/>
</linearGradient>
<linearGradient id="paint17_linear_1163_4928" x1="30.3566" y1="135.03" x2="189.798" y2="289.194" gradientUnits="userSpaceOnUse">
<stop stop-color="#B14DFF"/>
<stop offset="0.99" stop-color="#652AC6"/>
</linearGradient>
<linearGradient id="paint18_linear_1163_4928" x1="51.1533" y1="109.723" x2="210.606" y2="263.877" gradientUnits="userSpaceOnUse">
<stop stop-color="#B14DFF"/>
<stop offset="0.99" stop-color="#652AC6"/>
</linearGradient>
<linearGradient id="paint19_linear_1163_4928" x1="52.7974" y1="114.99" x2="212.034" y2="268.949" gradientUnits="userSpaceOnUse">
<stop stop-color="#B14DFF"/>
<stop offset="0.99" stop-color="#652AC6"/>
</linearGradient>
<linearGradient id="paint20_linear_1163_4928" x1="28.8644" y1="135.765" x2="188.101" y2="289.724" gradientUnits="userSpaceOnUse">
<stop stop-color="#B14DFF"/>
<stop offset="0.99" stop-color="#652AC6"/>
</linearGradient>
<linearGradient id="paint21_linear_1163_4928" x1="103.216" y1="58.9267" x2="262.668" y2="213.091" gradientUnits="userSpaceOnUse">
<stop stop-color="#B14DFF"/>
<stop offset="0.99" stop-color="#652AC6"/>
</linearGradient>
<linearGradient id="paint22_linear_1163_4928" x1="82.4188" y1="84.2438" x2="241.86" y2="238.397" gradientUnits="userSpaceOnUse">
<stop stop-color="#B14DFF"/>
<stop offset="0.99" stop-color="#652AC6"/>
</linearGradient>
<linearGradient id="paint23_linear_1163_4928" x1="69.0837" y1="79.1717" x2="228.32" y2="233.13" gradientUnits="userSpaceOnUse">
<stop stop-color="#B14DFF"/>
<stop offset="0.99" stop-color="#652AC6"/>
</linearGradient>
<linearGradient id="paint24_linear_1163_4928" x1="93.0265" y1="58.3966" x2="252.263" y2="212.355" gradientUnits="userSpaceOnUse">
<stop stop-color="#B14DFF"/>
<stop offset="0.99" stop-color="#652AC6"/>
</linearGradient>
<linearGradient id="paint25_linear_1163_4928" x1="18.4591" y1="135.03" x2="177.901" y2="289.194" gradientUnits="userSpaceOnUse">
<stop stop-color="#B14DFF"/>
<stop offset="0.99" stop-color="#652AC6"/>
</linearGradient>
<linearGradient id="paint26_linear_1163_4928" x1="39.2558" y1="109.723" x2="198.708" y2="263.877" gradientUnits="userSpaceOnUse">
<stop stop-color="#B14DFF"/>
<stop offset="0.99" stop-color="#652AC6"/>
</linearGradient>
<linearGradient id="paint27_linear_1163_4928" x1="40.8999" y1="114.99" x2="200.136" y2="268.949" gradientUnits="userSpaceOnUse">
<stop stop-color="#B14DFF"/>
<stop offset="0.99" stop-color="#652AC6"/>
</linearGradient>
<linearGradient id="paint28_linear_1163_4928" x1="16.9669" y1="135.765" x2="176.203" y2="289.724" gradientUnits="userSpaceOnUse">
<stop stop-color="#B14DFF"/>
<stop offset="0.99" stop-color="#652AC6"/>
</linearGradient>
<linearGradient id="paint29_linear_1163_4928" x1="91.3181" y1="58.9267" x2="250.77" y2="213.091" gradientUnits="userSpaceOnUse">
<stop stop-color="#B14DFF"/>
<stop offset="0.99" stop-color="#652AC6"/>
</linearGradient>
<linearGradient id="paint30_linear_1163_4928" x1="70.5213" y1="84.2438" x2="229.963" y2="238.397" gradientUnits="userSpaceOnUse">
<stop stop-color="#B14DFF"/>
<stop offset="0.99" stop-color="#652AC6"/>
</linearGradient>
<linearGradient id="paint31_linear_1163_4928" x1="84.9386" y1="224.153" x2="184.712" y2="124.379" gradientUnits="userSpaceOnUse">
<stop stop-color="white" stop-opacity="0.2"/>
<stop offset="1" stop-color="white" stop-opacity="0.49"/>
</linearGradient>
<linearGradient id="paint32_linear_1163_4928" x1="86.5282" y1="126.875" x2="180.545" y2="227.401" gradientUnits="userSpaceOnUse">
<stop stop-color="white"/>
<stop offset="1" stop-color="white" stop-opacity="0"/>
</linearGradient>
<clipPath id="clip0_1163_4928">
<rect width="328.158" height="328.158" fill="white" transform="translate(0 0.920898)"/>
</clipPath>
<clipPath id="clip1_1163_4928">
<rect width="204.143" height="102.072" fill="white" transform="translate(46.7168 180.33)"/>
</clipPath>
<clipPath id="clip2_1163_4928">
<rect width="204.143" height="102.072" fill="white" transform="matrix(-1 0 0 -1 250.86 180.33)"/>
</clipPath>
</defs>
</svg>
