<svg width="330" height="330" viewBox="0 0 330 330" fill="none" xmlns="http://www.w3.org/2000/svg">
<g clip-path="url(#clip0_1163_5059)">
<g filter="url(#filter0_f_1163_5059)">
<g clip-path="url(#clip1_1163_5059)">
<circle cx="193.233" cy="143.749" r="46.3208" transform="rotate(42.8712 193.233 143.749)" fill="url(#paint0_angular_1163_5059)"/>
<g filter="url(#filter1_i_1163_5059)">
<circle cx="208.04" cy="177.697" r="46.3208" transform="rotate(90 208.04 177.697)" fill="url(#paint1_angular_1163_5059)"/>
</g>
<circle cx="195.667" cy="209.211" r="46.3208" transform="rotate(132.871 195.667 209.211)" fill="url(#paint2_angular_1163_5059)"/>
<g filter="url(#filter2_i_1163_5059)">
<circle cx="161.719" cy="224.017" r="46.3208" transform="rotate(180 161.719 224.017)" fill="url(#paint3_angular_1163_5059)"/>
</g>
<circle cx="130.204" cy="211.645" r="46.3208" transform="rotate(-137.129 130.204 211.645)" fill="url(#paint4_angular_1163_5059)"/>
<g filter="url(#filter3_i_1163_5059)">
<circle cx="115.398" cy="177.697" r="46.3208" transform="rotate(-90 115.398 177.697)" fill="url(#paint5_angular_1163_5059)"/>
</g>
<circle cx="127.771" cy="146.182" r="46.3208" transform="rotate(-47.1288 127.771 146.182)" fill="url(#paint6_angular_1163_5059)"/>
</g>
<g clip-path="url(#clip2_1163_5059)">
<circle cx="130.204" cy="211.645" r="46.3208" transform="rotate(-137.129 130.204 211.645)" fill="url(#paint7_angular_1163_5059)"/>
<circle cx="115.398" cy="177.697" r="46.3208" transform="rotate(-90 115.398 177.697)" fill="url(#paint8_angular_1163_5059)"/>
<g filter="url(#filter4_i_1163_5059)">
<circle cx="127.771" cy="146.182" r="46.3208" transform="rotate(-47.1288 127.771 146.182)" fill="url(#paint9_angular_1163_5059)"/>
</g>
<g filter="url(#filter5_i_1163_5059)">
<circle cx="161.719" cy="131.376" r="46.3208" fill="url(#paint10_angular_1163_5059)"/>
</g>
<g filter="url(#filter6_i_1163_5059)">
<circle cx="193.233" cy="143.749" r="46.3208" transform="rotate(42.8712 193.233 143.749)" fill="url(#paint11_angular_1163_5059)"/>
</g>
<g filter="url(#filter7_i_1163_5059)">
<circle cx="208.04" cy="177.697" r="46.3208" transform="rotate(90 208.04 177.697)" fill="url(#paint12_angular_1163_5059)"/>
</g>
<circle cx="195.667" cy="209.211" r="46.3208" transform="rotate(132.871 195.667 209.211)" fill="url(#paint13_angular_1163_5059)"/>
</g>
<g filter="url(#filter8_f_1163_5059)">
<circle cx="161.718" cy="177.697" r="30.0593" fill="#9747FF"/>
</g>
</g>
<rect x="66.0898" y="43.08" width="213.239" height="213.239" rx="106.619" fill="url(#paint14_linear_1163_5059)"/>
<g filter="url(#filter9_f_1163_5059)">
<path d="M212.114 120.06H164.698C159.211 120.06 154.763 124.508 154.763 129.995V199.841C154.763 205.328 159.211 209.776 164.698 209.776H212.114C217.601 209.776 222.049 205.328 222.049 199.841V129.995C222.049 124.508 217.601 120.06 212.114 120.06Z" fill="url(#paint15_linear_1163_5059)"/>
<path d="M121.598 120.06H74.1811C68.6941 120.06 64.2461 124.508 64.2461 129.995V199.841C64.2461 205.328 68.6941 209.776 74.1811 209.776H121.598C127.085 209.776 131.533 205.328 131.533 199.841V129.995C131.533 124.508 127.085 120.06 121.598 120.06Z" fill="url(#paint16_linear_1163_5059)"/>
</g>
<g filter="url(#filter10_f_1163_5059)">
<path d="M156.687 161.303L135.794 149.243C133.012 147.641 129.541 149.643 129.541 152.858V176.978C129.541 180.194 133.012 182.196 135.794 180.594L156.687 168.534C159.468 166.932 159.468 162.916 156.687 161.314V161.303Z" fill="white"/>
</g>
<path d="M212.114 120.061H164.698C159.211 120.061 154.763 124.509 154.763 129.996V199.841C154.763 205.328 159.211 209.776 164.698 209.776H212.114C217.601 209.776 222.049 205.328 222.049 199.841V129.996C222.049 124.509 217.601 120.061 212.114 120.061Z" fill="url(#paint17_linear_1163_5059)"/>
<path d="M121.598 120.061H74.1811C68.6941 120.061 64.2461 124.509 64.2461 129.996V199.841C64.2461 205.328 68.6941 209.776 74.1811 209.776H121.598C127.085 209.776 131.533 205.328 131.533 199.841V129.996C131.533 124.509 127.085 120.061 121.598 120.061Z" fill="url(#paint18_linear_1163_5059)"/>
<g filter="url(#filter11_b_1163_5059)">
<path d="M179.271 104.04H107.824C102.337 104.04 97.8887 108.488 97.8887 113.975V215.851C97.8887 221.338 102.337 225.786 107.824 225.786H179.271C184.758 225.786 189.206 221.338 189.206 215.851V113.975C189.206 108.488 184.758 104.04 179.271 104.04Z" fill="url(#paint19_linear_1163_5059)"/>
<path d="M107.824 104.836H179.271C184.319 104.836 188.41 108.928 188.41 113.975V215.851C188.41 220.898 184.319 224.99 179.271 224.99H107.824C102.776 224.99 98.6845 220.898 98.6845 215.851V113.975C98.6845 108.928 102.776 104.836 107.824 104.836Z" stroke="url(#paint20_linear_1163_5059)" stroke-width="1.59169"/>
</g>
<path d="M129.334 163.312H138.78M134.057 158.589V168.035M150.587 165.674H150.611M157.671 160.951H157.695M139.84 149.144H147.165C153.364 149.144 156.463 149.144 158.896 150.318C161.038 151.352 162.817 153.009 164.001 155.072C165.346 157.415 165.567 160.506 166.009 166.689L166.59 174.823C166.875 178.811 163.716 182.204 159.718 182.204C157.673 182.204 155.734 181.296 154.425 179.725L153.539 178.662C152.728 177.689 152.323 177.203 151.862 176.81C150.895 175.987 149.724 175.438 148.472 175.222C147.875 175.119 147.242 175.119 145.976 175.119H141.029C139.763 175.119 139.13 175.119 138.533 175.222C137.281 175.438 136.111 175.987 135.143 176.81C134.682 177.203 134.277 177.689 133.466 178.662L132.581 179.725C131.272 181.296 129.332 182.204 127.288 182.204C123.289 182.204 120.13 178.811 120.415 174.823L120.996 166.689C121.438 160.506 121.659 157.415 123.004 155.072C124.188 153.009 125.968 151.352 128.109 150.318C130.542 149.144 133.641 149.144 139.84 149.144Z" stroke="white" stroke-width="4.72289" stroke-linecap="round" stroke-linejoin="round"/>
</g>
<defs>
<filter id="filter0_f_1163_5059" x="-41.7366" y="-25.7589" width="406.911" height="415.186" filterUnits="userSpaceOnUse" color-interpolation-filters="sRGB">
<feFlood flood-opacity="0" result="BackgroundImageFix"/>
<feBlend mode="normal" in="SourceGraphic" in2="BackgroundImageFix" result="shape"/>
<feGaussianBlur stdDeviation="52.0807" result="effect1_foregroundBlur_1163_5059"/>
</filter>
<filter id="filter1_i_1163_5059" x="161.719" y="130.39" width="92.6416" height="93.6272" filterUnits="userSpaceOnUse" color-interpolation-filters="sRGB">
<feFlood flood-opacity="0" result="BackgroundImageFix"/>
<feBlend mode="normal" in="SourceGraphic" in2="BackgroundImageFix" result="shape"/>
<feColorMatrix in="SourceAlpha" type="matrix" values="0 0 0 0 0 0 0 0 0 0 0 0 0 0 0 0 0 0 127 0" result="hardAlpha"/>
<feOffset dy="-1.47832"/>
<feGaussianBlur stdDeviation="0.492775"/>
<feComposite in2="hardAlpha" operator="arithmetic" k2="-1" k3="1"/>
<feColorMatrix type="matrix" values="0 0 0 0 1 0 0 0 0 1 0 0 0 0 1 0 0 0 0.21 0"/>
<feBlend mode="normal" in2="shape" result="effect1_innerShadow_1163_5059"/>
</filter>
<filter id="filter2_i_1163_5059" x="115.398" y="176.711" width="92.6416" height="93.6272" filterUnits="userSpaceOnUse" color-interpolation-filters="sRGB">
<feFlood flood-opacity="0" result="BackgroundImageFix"/>
<feBlend mode="normal" in="SourceGraphic" in2="BackgroundImageFix" result="shape"/>
<feColorMatrix in="SourceAlpha" type="matrix" values="0 0 0 0 0 0 0 0 0 0 0 0 0 0 0 0 0 0 127 0" result="hardAlpha"/>
<feOffset dy="-1.47832"/>
<feGaussianBlur stdDeviation="0.492775"/>
<feComposite in2="hardAlpha" operator="arithmetic" k2="-1" k3="1"/>
<feColorMatrix type="matrix" values="0 0 0 0 1 0 0 0 0 1 0 0 0 0 1 0 0 0 0.21 0"/>
<feBlend mode="normal" in2="shape" result="effect1_innerShadow_1163_5059"/>
</filter>
<filter id="filter3_i_1163_5059" x="69.0771" y="130.39" width="92.6416" height="93.6272" filterUnits="userSpaceOnUse" color-interpolation-filters="sRGB">
<feFlood flood-opacity="0" result="BackgroundImageFix"/>
<feBlend mode="normal" in="SourceGraphic" in2="BackgroundImageFix" result="shape"/>
<feColorMatrix in="SourceAlpha" type="matrix" values="0 0 0 0 0 0 0 0 0 0 0 0 0 0 0 0 0 0 127 0" result="hardAlpha"/>
<feOffset dy="-1.47832"/>
<feGaussianBlur stdDeviation="0.492775"/>
<feComposite in2="hardAlpha" operator="arithmetic" k2="-1" k3="1"/>
<feColorMatrix type="matrix" values="0 0 0 0 1 0 0 0 0 1 0 0 0 0 1 0 0 0 0.21 0"/>
<feBlend mode="normal" in2="shape" result="effect1_innerShadow_1163_5059"/>
</filter>
<filter id="filter4_i_1163_5059" x="81.4502" y="99.8611" width="92.6416" height="93.6276" filterUnits="userSpaceOnUse" color-interpolation-filters="sRGB">
<feFlood flood-opacity="0" result="BackgroundImageFix"/>
<feBlend mode="normal" in="SourceGraphic" in2="BackgroundImageFix" result="shape"/>
<feColorMatrix in="SourceAlpha" type="matrix" values="0 0 0 0 0 0 0 0 0 0 0 0 0 0 0 0 0 0 127 0" result="hardAlpha"/>
<feOffset dy="1.47832"/>
<feGaussianBlur stdDeviation="0.492775"/>
<feComposite in2="hardAlpha" operator="arithmetic" k2="-1" k3="1"/>
<feColorMatrix type="matrix" values="0 0 0 0 1 0 0 0 0 1 0 0 0 0 1 0 0 0 0.21 0"/>
<feBlend mode="normal" in2="shape" result="effect1_innerShadow_1163_5059"/>
</filter>
<filter id="filter5_i_1163_5059" x="115.398" y="85.0551" width="92.6416" height="93.6272" filterUnits="userSpaceOnUse" color-interpolation-filters="sRGB">
<feFlood flood-opacity="0" result="BackgroundImageFix"/>
<feBlend mode="normal" in="SourceGraphic" in2="BackgroundImageFix" result="shape"/>
<feColorMatrix in="SourceAlpha" type="matrix" values="0 0 0 0 0 0 0 0 0 0 0 0 0 0 0 0 0 0 127 0" result="hardAlpha"/>
<feOffset dy="1.47832"/>
<feGaussianBlur stdDeviation="0.492775"/>
<feComposite in2="hardAlpha" operator="arithmetic" k2="-1" k3="1"/>
<feColorMatrix type="matrix" values="0 0 0 0 1 0 0 0 0 1 0 0 0 0 1 0 0 0 0.21 0"/>
<feBlend mode="normal" in2="shape" result="effect1_innerShadow_1163_5059"/>
</filter>
<filter id="filter6_i_1163_5059" x="146.912" y="97.4277" width="92.6416" height="93.6275" filterUnits="userSpaceOnUse" color-interpolation-filters="sRGB">
<feFlood flood-opacity="0" result="BackgroundImageFix"/>
<feBlend mode="normal" in="SourceGraphic" in2="BackgroundImageFix" result="shape"/>
<feColorMatrix in="SourceAlpha" type="matrix" values="0 0 0 0 0 0 0 0 0 0 0 0 0 0 0 0 0 0 127 0" result="hardAlpha"/>
<feOffset dy="1.47832"/>
<feGaussianBlur stdDeviation="0.492775"/>
<feComposite in2="hardAlpha" operator="arithmetic" k2="-1" k3="1"/>
<feColorMatrix type="matrix" values="0 0 0 0 1 0 0 0 0 1 0 0 0 0 1 0 0 0 0.21 0"/>
<feBlend mode="normal" in2="shape" result="effect1_innerShadow_1163_5059"/>
</filter>
<filter id="filter7_i_1163_5059" x="161.719" y="131.376" width="92.6416" height="93.6272" filterUnits="userSpaceOnUse" color-interpolation-filters="sRGB">
<feFlood flood-opacity="0" result="BackgroundImageFix"/>
<feBlend mode="normal" in="SourceGraphic" in2="BackgroundImageFix" result="shape"/>
<feColorMatrix in="SourceAlpha" type="matrix" values="0 0 0 0 0 0 0 0 0 0 0 0 0 0 0 0 0 0 127 0" result="hardAlpha"/>
<feOffset dy="1.47832"/>
<feGaussianBlur stdDeviation="0.492775"/>
<feComposite in2="hardAlpha" operator="arithmetic" k2="-1" k3="1"/>
<feColorMatrix type="matrix" values="0 0 0 0 1 0 0 0 0 1 0 0 0 0 1 0 0 0 0.21 0"/>
<feBlend mode="normal" in2="shape" result="effect1_innerShadow_1163_5059"/>
</filter>
<filter id="filter8_f_1163_5059" x="113.919" y="129.898" width="95.5979" height="95.5983" filterUnits="userSpaceOnUse" color-interpolation-filters="sRGB">
<feFlood flood-opacity="0" result="BackgroundImageFix"/>
<feBlend mode="normal" in="SourceGraphic" in2="BackgroundImageFix" result="shape"/>
<feGaussianBlur stdDeviation="8.86994" result="effect1_foregroundBlur_1163_5059"/>
</filter>
<filter id="filter9_f_1163_5059" x="-5.78817" y="50.0262" width="297.871" height="229.784" filterUnits="userSpaceOnUse" color-interpolation-filters="sRGB">
<feFlood flood-opacity="0" result="BackgroundImageFix"/>
<feBlend mode="normal" in="SourceGraphic" in2="BackgroundImageFix" result="shape"/>
<feGaussianBlur stdDeviation="35.0171" result="effect1_foregroundBlur_1163_5059"/>
</filter>
<filter id="filter10_f_1163_5059" x="59.5068" y="78.6447" width="169.301" height="172.547" filterUnits="userSpaceOnUse" color-interpolation-filters="sRGB">
<feFlood flood-opacity="0" result="BackgroundImageFix"/>
<feBlend mode="normal" in="SourceGraphic" in2="BackgroundImageFix" result="shape"/>
<feGaussianBlur stdDeviation="35.0171" result="effect1_foregroundBlur_1163_5059"/>
</filter>
<filter id="filter11_b_1163_5059" x="83.5635" y="89.7147" width="119.968" height="150.396" filterUnits="userSpaceOnUse" color-interpolation-filters="sRGB">
<feFlood flood-opacity="0" result="BackgroundImageFix"/>
<feGaussianBlur in="BackgroundImageFix" stdDeviation="7.16259"/>
<feComposite in2="SourceAlpha" operator="in" result="effect1_backgroundBlur_1163_5059"/>
<feBlend mode="normal" in="SourceGraphic" in2="effect1_backgroundBlur_1163_5059" result="shape"/>
</filter>
<radialGradient id="paint0_angular_1163_5059" cx="0" cy="0" r="1" gradientUnits="userSpaceOnUse" gradientTransform="translate(193.233 143.749) rotate(90) scale(46.3208)">
<stop stop-color="#9747FF"/>
<stop offset="0.685417"/>
</radialGradient>
<radialGradient id="paint1_angular_1163_5059" cx="0" cy="0" r="1" gradientUnits="userSpaceOnUse" gradientTransform="translate(208.04 177.697) rotate(90) scale(46.3208)">
<stop stop-color="#9747FF"/>
<stop offset="0.685417"/>
</radialGradient>
<radialGradient id="paint2_angular_1163_5059" cx="0" cy="0" r="1" gradientUnits="userSpaceOnUse" gradientTransform="translate(195.667 209.211) rotate(90) scale(46.3208)">
<stop stop-color="#9747FF"/>
<stop offset="0.685417"/>
</radialGradient>
<radialGradient id="paint3_angular_1163_5059" cx="0" cy="0" r="1" gradientUnits="userSpaceOnUse" gradientTransform="translate(161.719 224.017) rotate(90) scale(46.3208)">
<stop stop-color="#9747FF"/>
<stop offset="0.685417"/>
</radialGradient>
<radialGradient id="paint4_angular_1163_5059" cx="0" cy="0" r="1" gradientUnits="userSpaceOnUse" gradientTransform="translate(130.204 211.645) rotate(90) scale(46.3208)">
<stop stop-color="#9747FF"/>
<stop offset="0.685417"/>
</radialGradient>
<radialGradient id="paint5_angular_1163_5059" cx="0" cy="0" r="1" gradientUnits="userSpaceOnUse" gradientTransform="translate(115.398 177.697) rotate(90) scale(46.3208)">
<stop stop-color="#9747FF"/>
<stop offset="0.685417"/>
</radialGradient>
<radialGradient id="paint6_angular_1163_5059" cx="0" cy="0" r="1" gradientUnits="userSpaceOnUse" gradientTransform="translate(127.771 146.182) rotate(90) scale(46.3208)">
<stop stop-color="#9747FF"/>
<stop offset="0.685417"/>
</radialGradient>
<radialGradient id="paint7_angular_1163_5059" cx="0" cy="0" r="1" gradientUnits="userSpaceOnUse" gradientTransform="translate(130.204 211.645) rotate(90) scale(46.3208)">
<stop stop-color="#9747FF"/>
<stop offset="0.685417"/>
</radialGradient>
<radialGradient id="paint8_angular_1163_5059" cx="0" cy="0" r="1" gradientUnits="userSpaceOnUse" gradientTransform="translate(115.398 177.697) rotate(90) scale(46.3208)">
<stop stop-color="#9747FF"/>
<stop offset="0.685417"/>
</radialGradient>
<radialGradient id="paint9_angular_1163_5059" cx="0" cy="0" r="1" gradientUnits="userSpaceOnUse" gradientTransform="translate(127.771 146.182) rotate(90) scale(46.3208)">
<stop stop-color="#9747FF"/>
<stop offset="0.685417"/>
</radialGradient>
<radialGradient id="paint10_angular_1163_5059" cx="0" cy="0" r="1" gradientUnits="userSpaceOnUse" gradientTransform="translate(161.719 131.376) rotate(90) scale(46.3208)">
<stop stop-color="#9747FF"/>
<stop offset="0.685417"/>
</radialGradient>
<radialGradient id="paint11_angular_1163_5059" cx="0" cy="0" r="1" gradientUnits="userSpaceOnUse" gradientTransform="translate(193.233 143.749) rotate(90) scale(46.3208)">
<stop stop-color="#9747FF"/>
<stop offset="0.685417"/>
</radialGradient>
<radialGradient id="paint12_angular_1163_5059" cx="0" cy="0" r="1" gradientUnits="userSpaceOnUse" gradientTransform="translate(208.04 177.697) rotate(90) scale(46.3208)">
<stop stop-color="#9747FF"/>
<stop offset="0.685417"/>
</radialGradient>
<radialGradient id="paint13_angular_1163_5059" cx="0" cy="0" r="1" gradientUnits="userSpaceOnUse" gradientTransform="translate(195.667 209.211) rotate(90) scale(46.3208)">
<stop stop-color="#9747FF"/>
<stop offset="0.685417"/>
</radialGradient>
<linearGradient id="paint14_linear_1163_5059" x1="172.709" y1="43.08" x2="172.709" y2="256.319" gradientUnits="userSpaceOnUse">
<stop stop-color="#52E1F2"/>
<stop offset="0.717951" stop-color="#52E1F2" stop-opacity="0"/>
</linearGradient>
<linearGradient id="paint15_linear_1163_5059" x1="77.0071" y1="230.236" x2="231.016" y2="139.93" gradientUnits="userSpaceOnUse">
<stop stop-color="#50D9EA"/>
<stop offset="0.52" stop-color="#3F8C97"/>
<stop offset="1" stop-color="#3EA0B0"/>
</linearGradient>
<linearGradient id="paint16_linear_1163_5059" x1="53.8549" y1="190.74" x2="207.853" y2="100.424" gradientUnits="userSpaceOnUse">
<stop stop-color="#4FC5D3"/>
<stop offset="0.52" stop-color="#335D6C"/>
<stop offset="1" stop-color="#FFD400"/>
</linearGradient>
<linearGradient id="paint17_linear_1163_5059" x1="77.0071" y1="230.236" x2="231.016" y2="139.931" gradientUnits="userSpaceOnUse">
<stop stop-color="#50D9EA"/>
<stop offset="0.52" stop-color="#3F8C97"/>
<stop offset="1" stop-color="#3EA0B0"/>
</linearGradient>
<linearGradient id="paint18_linear_1163_5059" x1="53.8549" y1="190.741" x2="207.853" y2="100.424" gradientUnits="userSpaceOnUse">
<stop stop-color="#4FC5D3"/>
<stop offset="0.52" stop-color="#335D6C"/>
<stop offset="1" stop-color="#FFD400"/>
</linearGradient>
<linearGradient id="paint19_linear_1163_5059" x1="103.044" y1="218.912" x2="206.726" y2="141.144" gradientUnits="userSpaceOnUse">
<stop stop-color="white" stop-opacity="0.2"/>
<stop offset="1" stop-color="white" stop-opacity="0.49"/>
</linearGradient>
<linearGradient id="paint20_linear_1163_5059" x1="104.335" y1="113.615" x2="203.897" y2="193.464" gradientUnits="userSpaceOnUse">
<stop stop-color="white"/>
<stop offset="1" stop-color="white" stop-opacity="0"/>
</linearGradient>
<clipPath id="clip0_1163_5059">
<rect width="328.158" height="328.158" fill="white" transform="translate(0.894531 0.920898)"/>
</clipPath>
<clipPath id="clip1_1163_5059">
<rect width="198.588" height="99.2941" fill="white" transform="translate(62.4248 177.697)"/>
</clipPath>
<clipPath id="clip2_1163_5059">
<rect width="198.588" height="99.2941" fill="white" transform="matrix(-1 0 0 -1 261.013 177.697)"/>
</clipPath>
</defs>
</svg>
