<svg width="20" height="20" viewBox="0 0 20 20" fill="none" xmlns="http://www.w3.org/2000/svg">
<path d="M12.6198 6.35C12.1998 6.63 10.8698 7.39 10.6698 7.54C10.2798 7.85 9.91984 7.83 9.52984 7.53C9.32984 7.37 7.99984 6.61 7.57984 6.34C7.09984 6.03 7.12984 5.64 7.65984 5.42C9.29984 4.73 10.9398 4.78 12.5698 5.45C13.0598 5.66 13.0798 6.05 12.6198 6.35ZM19.8398 13.63C18.9098 11.54 17.6398 9.64 15.9998 7.97C15.4928 7.44337 15.128 6.79642 14.9398 6.09C14.8398 5.76 14.7698 5.42 14.6998 5.08C14.4998 4.2 14.4098 3.3 13.9998 2.47C13.2698 0.89 11.9998 0.07 10.1598 0C8.34984 0.05 6.99984 0.81 6.20984 2.4C5.99984 2.83 5.84984 3.28 5.74984 3.74C5.57984 4.5 5.42984 5.29 5.24984 6.06C5.09984 6.71 4.79984 7.27 4.28984 7.77C2.67984 9.34 1.38984 11.14 0.409842 13.12C0.269842 13.41 0.129842 13.7 0.0398416 14C-0.150158 14.66 0.329842 15.12 1.02984 14.96C1.46984 14.87 1.90984 14.78 2.32984 14.65C2.73984 14.5 2.89984 14.6 2.99984 15C3.64984 17.15 5.06984 18.66 7.23984 19.5C11.3598 21.06 16.1698 18.84 17.2098 14.92C17.2798 14.65 17.3798 14.55 17.6798 14.65C18.1398 14.79 18.6098 14.89 19.0798 15C19.5698 15.09 19.9298 14.84 19.9998 14.36C20.0298 14.1 19.9398 13.87 19.8398 13.63Z" fill="white"/>
</svg>
