<svg width="24" height="24" viewBox="0 0 24 24" fill="none" xmlns="http://www.w3.org/2000/svg">
<path d="M22.0929 17.4895C21.5409 18.7116 21.2769 19.2581 20.5679 20.3381C19.5775 21.8464 18.179 23.7285 16.4501 23.7415C14.9123 23.7544 14.5153 22.7381 12.4283 22.7547C10.3412 22.7648 9.90641 23.7599 8.36672 23.7442C6.6378 23.7285 5.3141 22.0328 4.32272 20.5273C1.55072 16.3042 1.2581 11.3547 2.97133 8.72115C4.18333 6.85377 6.10149 5.75715 7.90241 5.75715C9.73656 5.75715 10.8895 6.76515 12.4061 6.76515C13.8775 6.76515 14.7738 5.75438 16.895 5.75438C18.4993 5.75438 20.1959 6.62854 21.4079 8.13685C17.4424 10.3098 18.0867 15.9738 22.0929 17.4895ZM15.2852 4.06885C16.0569 3.07838 16.6421 1.68085 16.4298 0.255615C15.1707 0.341461 13.6984 1.14546 12.8381 2.18669C12.059 3.13469 11.4129 4.54331 11.6649 5.90577C13.0384 5.95008 14.4599 5.13131 15.2852 4.06885Z" fill="gray"/>
</svg>
