<svg width="22" height="24" viewBox="0 0 22 24" fill="none" xmlns="http://www.w3.org/2000/svg">
<path d="M21.0929 17.4895C20.5409 18.7116 20.2769 19.2581 19.5679 20.3381C18.5775 21.8464 17.179 23.7285 15.4501 23.7415C13.9123 23.7544 13.5153 22.7381 11.4283 22.7547C9.34118 22.7648 8.90641 23.7599 7.36672 23.7442C5.6378 23.7285 4.3141 22.0328 3.32272 20.5273C0.550719 16.3042 0.258104 11.3547 1.97133 8.72115C3.18333 6.85377 5.10149 5.75715 6.90241 5.75715C8.73656 5.75715 9.88949 6.76515 11.4061 6.76515C12.8775 6.76515 13.7738 5.75438 15.895 5.75438C17.4993 5.75438 19.1959 6.62854 20.4079 8.13685C16.4424 10.3098 17.0867 15.9738 21.0929 17.4895ZM14.2852 4.06885C15.0569 3.07838 15.6421 1.68085 15.4298 0.255615C14.1707 0.341461 12.6984 1.14546 11.8381 2.18669C11.059 3.13469 10.4129 4.54331 10.6649 5.90577C12.0384 5.95008 13.4599 5.13131 14.2852 4.06885Z" fill="white"/>
</svg>
