<svg width="137" height="138" viewBox="0 0 137 138" fill="none" xmlns="http://www.w3.org/2000/svg">
<g filter="url(#filter0_f_58_2834)">
<path d="M49.0068 79.1312V58.3806C49.0068 47.6786 57.6854 39 68.3875 39C79.0895 39 87.7681 47.6786 87.7681 58.3806V79.1255" stroke="#9146FF" stroke-width="9.21181" stroke-miterlimit="10"/>
</g>
<path d="M49.0068 79.1312V58.3806C49.0068 47.6786 57.6854 39 68.3875 39C79.0895 39 87.7681 47.6786 87.7681 58.3806V79.1255" stroke="#9146FF" stroke-width="9.21181" stroke-miterlimit="10"/>
<g filter="url(#filter1_b_58_2834)">
<path d="M93.8323 66.5203H42.9417C39.1079 66.5203 36 69.6282 36 73.462V101.997C36 105.831 39.1079 108.939 42.9417 108.939H93.8323C97.6661 108.939 100.774 105.831 100.774 101.997V73.462C100.774 69.6282 97.6661 66.5203 93.8323 66.5203Z" fill="url(#paint0_linear_58_2834)"/>
<path d="M42.9417 67.0236H93.8323C97.3881 67.0236 100.271 69.9062 100.271 73.462V101.997C100.271 105.553 97.3881 108.435 93.8323 108.435H42.9417C39.3859 108.435 36.5034 105.553 36.5034 101.997V73.462C36.5034 69.9062 39.3859 67.0236 42.9417 67.0236Z" stroke="url(#paint1_linear_58_2834)" stroke-width="1.00676"/>
</g>
<defs>
<filter id="filter0_f_58_2834" x="0.10413" y="-9.90319" width="136.567" height="133.332" filterUnits="userSpaceOnUse" color-interpolation-filters="sRGB">
<feFlood flood-opacity="0" result="BackgroundImageFix"/>
<feBlend mode="normal" in="SourceGraphic" in2="BackgroundImageFix" result="shape"/>
<feGaussianBlur stdDeviation="22.1486" result="effect1_foregroundBlur_58_2834"/>
</filter>
<filter id="filter1_b_58_2834" x="26.9392" y="57.4595" width="82.896" height="60.5401" filterUnits="userSpaceOnUse" color-interpolation-filters="sRGB">
<feFlood flood-opacity="0" result="BackgroundImageFix"/>
<feGaussianBlur in="BackgroundImageFix" stdDeviation="4.5304"/>
<feComposite in2="SourceAlpha" operator="in" result="effect1_backgroundBlur_58_2834"/>
<feBlend mode="normal" in="SourceGraphic" in2="effect1_backgroundBlur_58_2834" result="shape"/>
</filter>
<linearGradient id="paint0_linear_58_2834" x1="39.6569" y1="106.544" x2="74.1488" y2="53.8738" gradientUnits="userSpaceOnUse">
<stop stop-color="white" stop-opacity="0.2"/>
<stop offset="1" stop-color="white" stop-opacity="0.49"/>
</linearGradient>
<linearGradient id="paint1_linear_58_2834" x1="40.5723" y1="69.8564" x2="72.2283" y2="121.543" gradientUnits="userSpaceOnUse">
<stop stop-color="white"/>
<stop offset="1" stop-color="white" stop-opacity="0"/>
</linearGradient>
</defs>
</svg>
