<svg width="128" height="133" viewBox="0 0 128 133" fill="none" xmlns="http://www.w3.org/2000/svg">
<g filter="url(#filter0_f_58_2743)">
<path d="M92.4811 31H52.0542C50.4066 31 49.0771 32.3365 49.0771 33.977V57.9277C49.0771 59.5753 50.4136 60.9047 52.0542 60.9047H56.5162V67.5376C56.5162 69.5176 58.9063 70.5076 60.3065 69.1075L68.5092 60.9047H92.4811C94.1287 60.9047 95.4581 59.5682 95.4581 57.9277V33.977C95.4581 32.3294 94.1216 31 92.4811 31Z" fill="#EF4444"/>
</g>
<path d="M92.4811 31H52.0542C50.4066 31 49.0771 32.3365 49.0771 33.977V57.9277C49.0771 59.5753 50.4136 60.9047 52.0542 60.9047H56.5162V67.5376C56.5162 69.5176 58.9063 70.5076 60.3065 69.1075L68.5092 60.9047H92.4811C94.1287 60.9047 95.4581 59.5682 95.4581 57.9277V33.977C95.4581 32.3294 94.1216 31 92.4811 31Z" fill="#EF4444"/>
<g filter="url(#filter1_b_58_2743)">
<path d="M71.451 41.8687H38.3783C34.8568 41.8687 32 44.7255 32 48.2399V101.629C32 105.15 34.8568 108 38.3783 108H71.451C74.9726 108 77.8294 105.15 77.8294 101.629V48.2399C77.8294 44.7255 74.9726 41.8687 71.451 41.8687ZM68.8771 103.418C68.6154 103.679 68.2477 103.842 67.8517 103.842H41.9777C41.1786 103.842 40.528 103.198 40.528 102.399C40.528 102.003 40.6907 101.636 40.9523 101.374C41.2139 101.112 41.5746 100.95 41.9777 100.95H67.8517C68.6508 100.95 69.3014 101.6 69.3014 102.399C69.3014 102.795 69.1387 103.163 68.8771 103.418Z" fill="url(#paint0_linear_58_2743)"/>
<path d="M38.3783 42.0454H71.451C74.8751 42.0454 77.6526 44.8232 77.6526 48.2399V101.629C77.6526 105.052 74.8752 107.823 71.451 107.823H38.3783C34.9542 107.823 32.1768 105.052 32.1768 101.629V48.2399C32.1768 44.8232 34.9543 42.0454 38.3783 42.0454ZM67.8517 104.019C68.2957 104.019 68.7076 103.837 69.0012 103.544C69.2963 103.256 69.4781 102.843 69.4781 102.399C69.4781 101.503 68.7484 100.773 67.8517 100.773H41.9777C41.5257 100.773 41.1207 100.956 40.8273 101.249C40.5336 101.543 40.3513 101.955 40.3513 102.399C40.3513 103.297 41.0821 104.019 41.9777 104.019H67.8517Z" stroke="url(#paint1_linear_58_2743)" stroke-width="0.353567"/>
</g>
<path d="M69.3007 102.399C69.3007 102.795 69.138 103.163 68.8764 103.418C68.6147 103.679 68.247 103.842 67.851 103.842H41.977C41.1779 103.842 40.5273 103.198 40.5273 102.399C40.5273 102.003 40.69 101.636 40.9516 101.374C41.2132 101.112 41.5739 100.95 41.977 100.95H67.851C68.6501 100.95 69.3007 101.6 69.3007 102.399Z" fill="white"/>
<defs>
<filter id="filter0_f_58_2743" x="18.6704" y="0.593204" width="107.194" height="99.577" filterUnits="userSpaceOnUse" color-interpolation-filters="sRGB">
<feFlood flood-opacity="0" result="BackgroundImageFix"/>
<feBlend mode="normal" in="SourceGraphic" in2="BackgroundImageFix" result="shape"/>
<feGaussianBlur stdDeviation="15.2034" result="effect1_foregroundBlur_58_2743"/>
</filter>
<filter id="filter1_b_58_2743" x="19.2716" y="29.1402" width="71.286" height="91.5882" filterUnits="userSpaceOnUse" color-interpolation-filters="sRGB">
<feFlood flood-opacity="0" result="BackgroundImageFix"/>
<feGaussianBlur in="BackgroundImageFix" stdDeviation="6.36421"/>
<feComposite in2="SourceAlpha" operator="in" result="effect1_backgroundBlur_58_2743"/>
<feBlend mode="normal" in="SourceGraphic" in2="effect1_backgroundBlur_58_2743" result="shape"/>
</filter>
<linearGradient id="paint0_linear_58_2743" x1="34.5873" y1="104.266" x2="89.5166" y2="66.2001" gradientUnits="userSpaceOnUse">
<stop stop-color="white" stop-opacity="0.2"/>
<stop offset="1" stop-color="white" stop-opacity="0.49"/>
</linearGradient>
<linearGradient id="paint1_linear_58_2743" x1="35.235" y1="47.0698" x2="88.2389" y2="86.3448" gradientUnits="userSpaceOnUse">
<stop stop-color="white"/>
<stop offset="1" stop-color="white" stop-opacity="0"/>
</linearGradient>
</defs>
</svg>
