<svg width="18" height="20" viewBox="0 0 18 20" fill="none" xmlns="http://www.w3.org/2000/svg">
<path d="M18 11V18.434C18 18.6354 17.9594 18.8348 17.8807 19.0202C17.8019 19.2056 17.6867 19.3733 17.5417 19.5132C17.3968 19.6531 17.2252 19.7623 17.0371 19.8345C16.849 19.9066 16.6483 19.9401 16.447 19.933L16.314 19.922L9 19.008V11H18ZM7 11V18.758L1.752 18.102C1.26821 18.0415 0.823156 17.8064 0.500523 17.4409C0.177889 17.0753 -0.000106132 16.6045 4.74773e-08 16.117V11H7ZM16.314 0.0779763C16.5139 0.0530064 16.7167 0.0685486 16.9105 0.123676C17.1042 0.178803 17.2849 0.272385 17.4416 0.398841C17.5984 0.525298 17.7281 0.682036 17.823 0.859709C17.9179 1.03738 17.9761 1.23235 17.994 1.43298L18 1.56598V8.99998H9V0.991976L16.314 0.0779763ZM7 1.24198V8.99998H4.74773e-08V3.88298C-0.000106132 3.39542 0.177889 2.92461 0.500523 2.55907C0.823156 2.19353 1.26821 1.95843 1.752 1.89798L7 1.24198Z" fill="white"/>
</svg>
